<svg xmlns="http://www.w3.org/2000/svg" xmlns:xlink="http://www.w3.org/1999/xlink" viewBox="0 0 5909.17 3296.57"><defs><filter id="luminosity-noclip" x="1345.64" y="-9800" width="40.72" height="32766" filterUnits="userSpaceOnUse" color-interpolation-filters="sRGB"><feFlood flood-color="#fff" result="bg"/><feBlend in="SourceGraphic" in2="bg"/></filter><mask id="mask" x="1345.64" y="-9800" width="40.72" height="32766" maskUnits="userSpaceOnUse"><g style="filter:url(#luminosity-noclip)"/></mask><linearGradient id="linear-gradient" x1="3211.41" y1="2856.37" x2="3211.41" y2="2062.25" gradientTransform="matrix(1, 0, 0, -1, -1845.41, 3871.65)" gradientUnits="userSpaceOnUse"><stop offset="0" stop-color="#fff"/><stop offset="1"/></linearGradient><filter id="luminosity-noclip-2" x="1852.06" y="-9800" width="40.72" height="32766" filterUnits="userSpaceOnUse" color-interpolation-filters="sRGB"><feFlood flood-color="#fff" result="bg"/><feBlend in="SourceGraphic" in2="bg"/></filter><mask id="mask-2" x="1852.06" y="-9800" width="40.72" height="32766" maskUnits="userSpaceOnUse"><g style="filter:url(#luminosity-noclip-2)"/></mask><linearGradient id="linear-gradient-2" x1="6885.65" y1="2957.86" x2="6885.65" y2="2163.74" gradientTransform="translate(8758.07 3871.65) rotate(180)" xlink:href="#linear-gradient"/><filter id="luminosity-noclip-3" x="2028" y="-9800" width="40.72" height="32766" filterUnits="userSpaceOnUse" color-interpolation-filters="sRGB"><feFlood flood-color="#fff" result="bg"/><feBlend in="SourceGraphic" in2="bg"/></filter><mask id="mask-3" x="2028" y="-9800" width="40.72" height="32766" maskUnits="userSpaceOnUse"><g style="filter:url(#luminosity-noclip-3)"/></mask><linearGradient id="linear-gradient-3" x1="3893.77" y1="2372.01" x2="3893.77" y2="1577.89" xlink:href="#linear-gradient"/><filter id="luminosity-noclip-4" x="1157.66" y="-9800" width="40.71" height="32766" filterUnits="userSpaceOnUse" color-interpolation-filters="sRGB"><feFlood flood-color="#fff" result="bg"/><feBlend in="SourceGraphic" in2="bg"/></filter><mask id="mask-4" x="1157.66" y="-9800" width="40.71" height="32766" maskUnits="userSpaceOnUse"><g style="filter:url(#luminosity-noclip-4)"/></mask><linearGradient id="linear-gradient-4" x1="6922.09" y1="2521.68" x2="6922.09" y2="1727.57" gradientTransform="translate(8100.1 3871.65) rotate(180)" xlink:href="#linear-gradient"/><linearGradient id="New_Gradient_Swatch_5" x1="1245" y1="2262.02" x2="5520.59" y2="-2088.59" gradientUnits="userSpaceOnUse"><stop offset="0" stop-color="#ffb996"/><stop offset="1" stop-color="#ff5e81"/></linearGradient><linearGradient id="linear-gradient-5" x1="642.35" y1="2195.45" x2="3077.52" y2="2426.74" gradientTransform="matrix(1, 0, 0, 1, 0, 0)" xlink:href="#linear-gradient"/><linearGradient id="linear-gradient-6" x1="720.39" y1="2270.32" x2="3165.47" y2="2816.61" gradientUnits="userSpaceOnUse"><stop offset="0" stop-color="#d0d2d3"/><stop offset="1" stop-color="#a6a8ab"/></linearGradient><linearGradient id="linear-gradient-7" x1="2291.68" y1="3033.36" x2="1564.77" y2="1178.63" gradientUnits="userSpaceOnUse"><stop offset="0" stop-color="#e6e7e8"/><stop offset="1" stop-color="#f1f1f2"/></linearGradient><linearGradient id="linear-gradient-8" x1="797.72" y1="1924.39" x2="3242.77" y2="2470.67" xlink:href="#linear-gradient-6"/><linearGradient id="linear-gradient-9" x1="3256.46" y1="2512.31" x2="3405.15" y2="2424.75" gradientUnits="userSpaceOnUse"><stop offset="0" stop-color="#fff"/><stop offset="1" stop-color="#58595b"/></linearGradient><linearGradient id="linear-gradient-10" x1="651.21" y1="2580" x2="3096.27" y2="3126.29" xlink:href="#linear-gradient-6"/><linearGradient id="linear-gradient-11" x1="2128.18" y1="2979.9" x2="2480.22" y2="2979.9" gradientUnits="userSpaceOnUse"><stop offset="0" stop-color="#a6a8ab"/><stop offset="0.5" stop-color="#fff"/><stop offset="1" stop-color="#a6a8ab"/></linearGradient><linearGradient id="linear-gradient-12" x1="742.47" y1="2171.49" x2="3187.58" y2="2717.79" xlink:href="#linear-gradient-6"/><linearGradient id="linear-gradient-13" x1="221.95" y1="2055.19" x2="858.52" y2="2197.42" xlink:href="#linear-gradient-11"/><linearGradient id="linear-gradient-14" x1="3071.41" y1="1524.89" x2="4094.17" y2="2992.62" gradientUnits="userSpaceOnUse"><stop offset="0" stop-color="#ffb198"/><stop offset="0.06" stop-color="#ffab97"/><stop offset="0.47" stop-color="#ff8592"/><stop offset="0.79" stop-color="#ff6e8f"/><stop offset="1" stop-color="#ff658e"/></linearGradient><linearGradient id="linear-gradient-15" x1="3122.33" y1="1489.4" x2="4145.1" y2="2957.14" xlink:href="#linear-gradient-14"/><linearGradient id="linear-gradient-16" x1="3173.25" y1="1453.92" x2="4196.02" y2="2921.66" xlink:href="#linear-gradient-14"/><linearGradient id="linear-gradient-17" x1="3224.18" y1="1418.43" x2="4246.95" y2="2886.17" xlink:href="#linear-gradient-14"/><linearGradient id="linear-gradient-18" x1="3275.1" y1="1382.94" x2="4297.88" y2="2850.69" xlink:href="#linear-gradient-14"/><linearGradient id="linear-gradient-19" x1="3326.03" y1="1347.47" x2="4348.79" y2="2815.19" xlink:href="#linear-gradient-14"/><linearGradient id="linear-gradient-20" x1="3376.96" y1="1311.99" x2="4399.71" y2="2779.7" xlink:href="#linear-gradient-14"/><linearGradient id="linear-gradient-21" x1="3427.88" y1="1276.49" x2="4450.65" y2="2744.22" xlink:href="#linear-gradient-14"/><linearGradient id="linear-gradient-22" x1="3478.79" y1="1241" x2="4501.57" y2="2708.74" xlink:href="#linear-gradient-14"/><linearGradient id="linear-gradient-23" x1="3529.72" y1="1205.51" x2="4552.5" y2="2673.26" xlink:href="#linear-gradient-14"/><linearGradient id="linear-gradient-24" x1="3007.8" y1="1569.21" x2="4030.56" y2="3036.93" xlink:href="#linear-gradient-14"/><linearGradient id="linear-gradient-25" x1="3058.73" y1="1533.72" x2="4081.5" y2="3001.46" xlink:href="#linear-gradient-14"/><linearGradient id="linear-gradient-26" x1="3109.65" y1="1498.24" x2="4132.42" y2="2965.97" xlink:href="#linear-gradient-14"/><linearGradient id="linear-gradient-27" x1="3160.58" y1="1462.75" x2="4183.34" y2="2930.48" xlink:href="#linear-gradient-14"/><linearGradient id="linear-gradient-28" x1="3211.5" y1="1427.27" x2="4234.27" y2="2895.01" xlink:href="#linear-gradient-14"/><linearGradient id="linear-gradient-29" x1="3262.43" y1="1391.78" x2="4285.2" y2="2859.52" xlink:href="#linear-gradient-14"/><linearGradient id="linear-gradient-30" x1="3313.34" y1="1356.29" x2="4336.12" y2="2824.04" xlink:href="#linear-gradient-14"/><linearGradient id="linear-gradient-31" x1="3364.28" y1="1320.82" x2="4387.04" y2="2788.54" xlink:href="#linear-gradient-14"/><linearGradient id="linear-gradient-32" x1="3415.19" y1="1285.32" x2="4437.96" y2="2753.05" xlink:href="#linear-gradient-14"/><linearGradient id="linear-gradient-33" x1="2893.27" y1="1649.02" x2="3916.04" y2="3116.76" xlink:href="#linear-gradient-14"/><linearGradient id="linear-gradient-34" x1="2944.2" y1="1613.54" x2="3966.96" y2="3081.26" xlink:href="#linear-gradient-14"/><linearGradient id="linear-gradient-35" x1="2995.12" y1="1578.04" x2="4017.89" y2="3045.78" xlink:href="#linear-gradient-14"/><linearGradient id="linear-gradient-36" x1="3046.04" y1="1542.56" x2="4068.82" y2="3010.31" xlink:href="#linear-gradient-14"/><linearGradient id="linear-gradient-37" x1="3096.97" y1="1507.07" x2="4119.74" y2="2974.81" xlink:href="#linear-gradient-14"/><linearGradient id="linear-gradient-38" x1="3147.9" y1="1471.59" x2="4170.67" y2="2939.33" xlink:href="#linear-gradient-14"/><linearGradient id="linear-gradient-39" x1="3198.82" y1="1436.11" x2="4221.59" y2="2903.84" xlink:href="#linear-gradient-14"/><linearGradient id="linear-gradient-40" x1="3249.75" y1="1400.62" x2="4272.52" y2="2868.36" xlink:href="#linear-gradient-14"/><linearGradient id="linear-gradient-41" x1="3300.67" y1="1365.13" x2="4323.44" y2="2832.87" xlink:href="#linear-gradient-14"/><linearGradient id="linear-gradient-42" x1="2829.67" y1="1693.33" x2="3852.46" y2="3161.09" xlink:href="#linear-gradient-14"/><linearGradient id="linear-gradient-43" x1="2880.6" y1="1657.85" x2="3903.36" y2="3125.58" xlink:href="#linear-gradient-14"/><linearGradient id="linear-gradient-44" x1="2931.52" y1="1622.37" x2="3954.28" y2="3090.09" xlink:href="#linear-gradient-14"/><linearGradient id="linear-gradient-45" x1="2982.45" y1="1586.89" x2="4005.21" y2="3054.61" xlink:href="#linear-gradient-14"/><linearGradient id="linear-gradient-46" x1="3033.37" y1="1551.4" x2="4056.13" y2="3019.13" xlink:href="#linear-gradient-14"/><linearGradient id="linear-gradient-47" x1="3084.3" y1="1515.91" x2="4107.06" y2="2983.64" xlink:href="#linear-gradient-14"/><linearGradient id="linear-gradient-48" x1="2613.29" y1="1844.12" x2="3636.07" y2="3311.86" xlink:href="#linear-gradient-14"/><linearGradient id="linear-gradient-49" x1="2664.22" y1="1808.63" x2="3687" y2="3276.38" xlink:href="#linear-gradient-14"/><linearGradient id="linear-gradient-50" x1="3020.68" y1="1560.23" x2="4043.46" y2="3027.98" xlink:href="#linear-gradient-14"/><linearGradient id="linear-gradient-51" x1="3071.61" y1="1524.74" x2="4094.39" y2="2992.49" xlink:href="#linear-gradient-14"/><linearGradient id="linear-gradient-52" x1="2842.45" y1="1684.43" x2="3865.22" y2="3152.17" xlink:href="#linear-gradient-14"/><linearGradient id="linear-gradient-53" x1="2753.29" y1="1746.57" x2="3776.05" y2="3214.29" xlink:href="#linear-gradient-14"/><linearGradient id="linear-gradient-54" x1="3160.68" y1="1462.68" x2="4183.45" y2="2930.41" xlink:href="#linear-gradient-14"/><linearGradient id="linear-gradient-55" x1="2899.61" y1="1644.6" x2="3922.39" y2="3112.35" xlink:href="#linear-gradient-14"/><linearGradient id="linear-gradient-56" x1="2901.06" y1="2206.82" x2="3045.03" y2="2710.72" xlink:href="#linear-gradient-14"/><linearGradient id="linear-gradient-57" x1="3403.14" y1="1048.98" x2="1773.09" y2="1374.99" xlink:href="#linear-gradient-7"/><linearGradient id="linear-gradient-58" x1="2038.32" y1="494.49" x2="2872.01" y2="1667.83" xlink:href="#linear-gradient-14"/><linearGradient id="linear-gradient-59" x1="2043.53" y1="-120.92" x2="3487.45" y2="1778.97" xlink:href="#linear-gradient-6"/><linearGradient id="linear-gradient-60" x1="3444.44" y1="2122.34" x2="3444.44" y2="2369.21" xlink:href="#linear-gradient-9"/><linearGradient id="linear-gradient-61" x1="3358.88" y1="985.71" x2="3358.88" y2="1300" xlink:href="#linear-gradient-11"/><linearGradient id="linear-gradient-62" x1="1872.18" y1="-60.6" x2="1872.18" y2="180.96" xlink:href="#linear-gradient-11"/><linearGradient id="linear-gradient-63" x1="3388.38" y1="213.63" x2="2576.6" y2="1780.98" gradientTransform="matrix(1, 0, 0, 1, 0, 0)" xlink:href="#linear-gradient"/><filter id="luminosity-noclip-5" x="1345.64" y="648.06" width="40.72" height="1260.96" filterUnits="userSpaceOnUse" color-interpolation-filters="sRGB"><feFlood flood-color="#fff" result="bg"/><feBlend in="SourceGraphic" in2="bg"/></filter><mask id="mask-5" x="2685.64" y="688.06" width="40.72" height="1260.96" maskUnits="userSpaceOnUse"><g style="filter:url(#luminosity-noclip-5)"><g transform="translate(1340 40)"><g style="mask:url(#mask)"><polyline points="1386.35 1887.54 1349.15 1909.02 1345.64 669.55 1382.84 648.07 1386.35 1887.54" style="mix-blend-mode:multiply;fill:url(#linear-gradient)"/></g></g></g></mask><linearGradient id="linear-gradient-64" x1="3211.41" y1="2856.37" x2="3211.41" y2="2062.25" gradientTransform="matrix(1, 0, 0, -1, -505.41, 3911.65)" gradientUnits="userSpaceOnUse"><stop offset="0" stop-color="#fff"/><stop offset="1" stop-color="#fff"/></linearGradient><filter id="luminosity-noclip-6" x="1852.06" y="546.57" width="40.72" height="1260.96" filterUnits="userSpaceOnUse" color-interpolation-filters="sRGB"><feFlood flood-color="#fff" result="bg"/><feBlend in="SourceGraphic" in2="bg"/></filter><mask id="mask-6" x="3192.06" y="586.57" width="40.72" height="1260.96" maskUnits="userSpaceOnUse"><g style="filter:url(#luminosity-noclip-6)"><g transform="translate(1340 40)"><g style="mask:url(#mask-2)"><polyline points="1852.06 1786.05 1889.26 1807.53 1892.78 568.05 1855.57 546.57 1852.06 1786.05" style="mix-blend-mode:multiply;fill:url(#linear-gradient-2)"/></g></g></g></mask><linearGradient id="linear-gradient-65" x1="6885.65" y1="2957.86" x2="6885.65" y2="2163.74" gradientTransform="translate(10098.07 3911.65) rotate(180)" xlink:href="#linear-gradient-64"/><linearGradient id="linear-gradient-66" x1="1654.49" y1="1855.44" x2="1906.93" y2="2149.27" gradientUnits="userSpaceOnUse"><stop offset="0" stop-color="#f1f1f2"/><stop offset="1" stop-color="#d0d2d3"/></linearGradient><linearGradient id="linear-gradient-67" x1="1432.75" y1="1593.83" x2="1875.57" y2="1817.3" xlink:href="#linear-gradient-66"/><linearGradient id="New_Gradient_Swatch_4" x1="1930.14" y1="2097.64" x2="1372.8" y2="1589.97" gradientUnits="userSpaceOnUse"><stop offset="0" stop-color="#54aeff"/><stop offset="1" stop-color="#54ff96"/></linearGradient><linearGradient id="linear-gradient-68" x1="1899.29" y1="1556.3" x2="1471.63" y2="1294.19" xlink:href="#linear-gradient-66"/><linearGradient id="linear-gradient-69" x1="1547.37" y1="1362.23" x2="1547.37" y2="1649.39" xlink:href="#linear-gradient-66"/><linearGradient id="New_Gradient_Swatch_4-2" x1="2932.97" y1="1681.75" x2="2800.28" y2="1549.06" xlink:href="#New_Gradient_Swatch_4"/><linearGradient id="New_Gradient_Swatch_4-3" x1="2926.93" y1="1687.82" x2="2794.22" y2="1555.11" xlink:href="#New_Gradient_Swatch_4"/><linearGradient id="New_Gradient_Swatch_4-4" x1="2920.88" y1="1693.86" x2="2788.17" y2="1561.16" xlink:href="#New_Gradient_Swatch_4"/><linearGradient id="New_Gradient_Swatch_4-5" x1="2914.82" y1="1699.9" x2="2782.13" y2="1567.21" xlink:href="#New_Gradient_Swatch_4"/><linearGradient id="New_Gradient_Swatch_4-6" x1="2932.97" y1="1681.75" x2="2800.28" y2="1549.06" xlink:href="#New_Gradient_Swatch_4"/><linearGradient id="New_Gradient_Swatch_4-7" x1="2926.93" y1="1687.81" x2="2794.22" y2="1555.1" xlink:href="#New_Gradient_Swatch_4"/><linearGradient id="New_Gradient_Swatch_4-8" x1="2920.88" y1="1693.85" x2="2788.18" y2="1561.15" xlink:href="#New_Gradient_Swatch_4"/><linearGradient id="New_Gradient_Swatch_4-9" x1="2932.97" y1="1681.74" x2="2800.29" y2="1549.06" xlink:href="#New_Gradient_Swatch_4"/><linearGradient id="New_Gradient_Swatch_4-10" x1="2926.93" y1="1687.8" x2="2794.23" y2="1555.1" xlink:href="#New_Gradient_Swatch_4"/><linearGradient id="New_Gradient_Swatch_4-11" x1="2945.08" y1="1669.65" x2="2812.38" y2="1536.95" xlink:href="#New_Gradient_Swatch_4"/><linearGradient id="New_Gradient_Swatch_4-12" x1="2939.03" y1="1675.69" x2="2806.34" y2="1543" xlink:href="#New_Gradient_Swatch_4"/><linearGradient id="New_Gradient_Swatch_4-13" x1="2932.98" y1="1681.74" x2="2800.3" y2="1549.06" xlink:href="#New_Gradient_Swatch_4"/><linearGradient id="New_Gradient_Swatch_4-14" x1="2957.19" y1="1657.54" x2="2824.49" y2="1524.84" xlink:href="#New_Gradient_Swatch_4"/><linearGradient id="New_Gradient_Swatch_4-15" x1="2951.13" y1="1663.59" x2="2818.45" y2="1530.9" xlink:href="#New_Gradient_Swatch_4"/><linearGradient id="New_Gradient_Swatch_4-16" x1="2945.08" y1="1669.64" x2="2812.37" y2="1536.93" xlink:href="#New_Gradient_Swatch_4"/><linearGradient id="New_Gradient_Swatch_4-17" x1="2939.03" y1="1675.69" x2="2806.34" y2="1543" xlink:href="#New_Gradient_Swatch_4"/><linearGradient id="New_Gradient_Swatch_4-18" x1="1694.15" y1="1674.96" x2="1634.83" y2="1527.35" xlink:href="#New_Gradient_Swatch_4"/><linearGradient id="New_Gradient_Swatch_4-19" x1="1429.5" y1="1495.62" x2="1357.76" y2="1381.11" xlink:href="#New_Gradient_Swatch_4"/><linearGradient id="Gradiente_sem_nome_3" x1="1434.01" y1="1139.73" x2="1592.37" y2="1139.73" gradientTransform="matrix(0.99, 0.14, 0.14, -0.99, -137.92, 2981.77)" gradientUnits="userSpaceOnUse"><stop offset="0" stop-color="#15baff"/><stop offset="1" stop-color="#857fff"/></linearGradient><linearGradient id="Gradiente_sem_nome_3-2" x1="1434.72" y1="2088.7" x2="1590.28" y2="2088.7" gradientTransform="matrix(0.99, 0.14, -0.14, 0.99, 319.09, -203.61)" xlink:href="#Gradiente_sem_nome_3"/><linearGradient id="Gradiente_sem_nome_3-3" x1="1435.48" y1="1066.75" x2="1589.51" y2="1066.75" xlink:href="#Gradiente_sem_nome_3"/><linearGradient id="New_Gradient_Swatch_copy_8" x1="1618.59" y1="1916.89" x2="1604.11" y2="2194.54" gradientTransform="matrix(1, 0, 0, 1, 0, 0)" xlink:href="#linear-gradient"/><linearGradient id="linear-gradient-70" x1="3027.03" y1="2640.87" x2="3064.63" y2="2640.87" xlink:href="#linear-gradient-66"/><linearGradient id="linear-gradient-71" x1="1748.24" y1="2568.61" x2="1748.24" y2="2484.37" xlink:href="#linear-gradient-66"/><linearGradient id="linear-gradient-72" x1="1772.89" y1="2477.1" x2="1772.89" y2="2540.11" xlink:href="#linear-gradient-66"/><linearGradient id="linear-gradient-73" x1="3026.66" y1="2511.73" x2="3064.27" y2="2511.73" xlink:href="#linear-gradient-66"/><linearGradient id="linear-gradient-74" x1="1687.94" y1="2456.22" x2="1778.52" y2="2435.07" xlink:href="#linear-gradient-66"/><linearGradient id="linear-gradient-75" x1="2377.57" y1="2099.45" x2="2415.17" y2="2099.45" xlink:href="#linear-gradient-66"/><linearGradient id="linear-gradient-76" x1="1098.78" y1="2027.18" x2="1098.78" y2="1942.95" xlink:href="#linear-gradient-66"/><linearGradient id="linear-gradient-77" x1="1123.43" y1="1935.68" x2="1123.43" y2="1998.69" xlink:href="#linear-gradient-66"/><linearGradient id="linear-gradient-78" x1="2377.2" y1="1970.31" x2="2414.81" y2="1970.31" xlink:href="#linear-gradient-66"/><linearGradient id="linear-gradient-79" x1="1038.47" y1="1914.8" x2="1129.06" y2="1893.65" xlink:href="#linear-gradient-66"/><linearGradient id="New_Gradient_Swatch_4-20" x1="1882.44" y1="1450.11" x2="1465.96" y2="1193.24" xlink:href="#New_Gradient_Swatch_4"/><linearGradient id="New_Gradient_Swatch_4-21" x1="1892.01" y1="1434.65" x2="1475.52" y2="1177.78" xlink:href="#New_Gradient_Swatch_4"/><linearGradient id="New_Gradient_Swatch_4-22" x1="1864.13" y1="1578.59" x2="1993.21" y2="1578.59" xlink:href="#New_Gradient_Swatch_4"/><linearGradient id="linear-gradient-80" x1="1883.86" y1="1586.48" x2="2011.88" y2="1586.48" xlink:href="#linear-gradient-66"/><filter id="luminosity-noclip-7" x="2028" y="1132.42" width="40.72" height="1260.96" filterUnits="userSpaceOnUse" color-interpolation-filters="sRGB"><feFlood flood-color="#fff" result="bg"/><feBlend in="SourceGraphic" in2="bg"/></filter><mask id="mask-7" x="3368" y="1172.42" width="40.72" height="1260.96" maskUnits="userSpaceOnUse"><g style="filter:url(#luminosity-noclip-7)"><g transform="translate(1340 40)"><g style="mask:url(#mask-3)"><polyline points="2068.71 2371.9 2031.51 2393.38 2028 1153.91 2065.2 1132.42 2068.71 2371.9" style="mix-blend-mode:multiply;fill:url(#linear-gradient-3)"/></g></g></g></mask><linearGradient id="linear-gradient-81" x1="3893.77" y1="2372.01" x2="3893.77" y2="1577.89" xlink:href="#linear-gradient-64"/><filter id="luminosity-noclip-8" x="1157.66" y="982.75" width="40.71" height="1260.96" filterUnits="userSpaceOnUse" color-interpolation-filters="sRGB"><feFlood flood-color="#fff" result="bg"/><feBlend in="SourceGraphic" in2="bg"/></filter><mask id="mask-8" x="2497.66" y="1022.75" width="40.71" height="1260.96" maskUnits="userSpaceOnUse"><g style="filter:url(#luminosity-noclip-8)"><g transform="translate(1340 40)"><g style="mask:url(#mask-4)"><polyline points="1157.66 2222.23 1194.86 2243.71 1198.37 1004.24 1161.17 982.75 1157.66 2222.23" style="mix-blend-mode:multiply;fill:url(#linear-gradient-4)"/></g></g></g></mask><linearGradient id="linear-gradient-82" x1="6922.09" y1="2521.68" x2="6922.09" y2="1727.57" gradientTransform="translate(9440.1 3911.65) rotate(180)" xlink:href="#linear-gradient-64"/><linearGradient id="linear-gradient-83" x1="5655.53" y1="2142.92" x2="5024.73" y2="1994.24" gradientTransform="matrix(-1, 0, 0, 1, 7122.72, 0)" gradientUnits="userSpaceOnUse"><stop offset="0" stop-color="#54aeff"/><stop offset="1"/></linearGradient><linearGradient id="linear-gradient-84" x1="6040.83" y1="1895.11" x2="5410.03" y2="1746.42" gradientTransform="translate(-4108)" xlink:href="#linear-gradient-83"/><radialGradient id="radial-gradient" cx="5955.04" cy="1757.19" r="59.27" gradientTransform="matrix(-1, 0, 0, 1, 7122.72, 0)" gradientUnits="userSpaceOnUse"><stop offset="0" stop-color="#54ff96"/><stop offset="1" stop-color="#54aeff"/></radialGradient><radialGradient id="radial-gradient-2" cx="5009.62" cy="1171.63" r="84.49" xlink:href="#radial-gradient"/><radialGradient id="radial-gradient-3" cx="5189.19" cy="2205.16" r="77.2" xlink:href="#radial-gradient"/><radialGradient id="radial-gradient-4" cx="5633.33" cy="872.18" r="59.27" xlink:href="#radial-gradient"/></defs><g style="isolation:isolate"><g id="BG"><rect width="5180" height="3296.57" style="fill:none"/><path d="M3726,14.48c-52.19,2.13-96.78,5.27-135.23,9.6a867.28,867.28,0,0,0-502.2,190.18C2974.14,285.74,2722.75,394.2,2410,236q-22-12.39-44.6-24.15c-711.14-369-1586.75-91.61-1955.73,619.53S318,2418.11,1029.15,2787.09c644.68,334.51,1424.53,137.81,1839.56-431.69h0l0,0q21.58-29.62,41.83-60.57c103.52-142.88,387.2-492.61,715.43-543,394.71-12.06,711.05-101.56,870.93-560.35C4789.42,352.09,4125.33-1.81,3726,14.48Z" transform="translate(1340 40)" style="fill:url(#New_Gradient_Swatch_5)"/></g><g id="Pic"><g style="opacity:0.5;mix-blend-mode:multiply"><path d="M3368.43,2461.94c36.71,21.2,36.91,55.54.44,76.74L2350.48,3130.49c-36.44,21.18-95.73,21.18-132.44,0L574.17,2181.38c-36.67-21.17-36.86-55.52-.44-76.69l1018.39-591.82c36.46-21.19,95.77-21.19,132.43,0Z" transform="translate(1340 40)" style="fill:url(#linear-gradient-5)"/></g><path d="M3395.86,2397.6c-.09,1-.15,2-.33,2.93-.16.8-.39,1.59-.61,2.39s-.48,1.88-.82,2.83c-.25.75-.61,1.48-.94,2.23-.42,1-.85,2-1.38,2.94-.37.71-.82,1.4-1.25,2.09-.68,1.1-1.39,2.19-2.2,3.27s-1.57,2.06-2.46,3.07c-.22.25-.41.5-.63.74-1.2,1.31-2.53,2.59-3.92,3.86-.92.82-2,1.62-3,2.43-.84.68-1.64,1.36-2.54,2-1.1.79-2.31,1.56-3.5,2.32s-2.22,1.51-3.45,2.22L2350.48,3024.76c-2.8,1.63-5.78,3.08-8.83,4.47-.88.4-1.78.76-2.67,1.13-2.39,1-4.83,1.93-7.33,2.79-.92.31-1.81.64-2.73.93-1.56.49-3.16.92-4.75,1.36-1.25.34-2.47.7-3.75,1-1.65.4-3.34.74-5,1.09-1.23.24-2.44.52-3.68.74q-5.25.92-10.61,1.48c-1.1.11-2.21.18-3.3.27-2.14.18-4.26.33-6.41.42-1.31.07-2.63.09-3.95.12-1.75,0-3.5,0-5.24,0-1.4,0-2.81-.06-4.2-.12-1.62-.06-3.23-.15-4.83-.26-1.43-.09-2.85-.21-4.28-.35s-3.13-.33-4.69-.53c-1.41-.18-2.8-.37-4.2-.6-1.66-.25-3.33-.54-5-.86-1.29-.24-2.57-.5-3.85-.77-2-.44-3.88-.92-5.79-1.43-1.1-.29-2.19-.56-3.27-.87-3.43-1-6.79-2.13-10-3.4-1.67-.64-3.27-1.34-4.87-2.06-.75-.34-1.54-.64-2.28-1-2.37-1.13-4.68-2.31-6.9-3.6L574.17,2075.65C555.71,2065,546.5,2051,546.54,2037q-.06,24.24-.13,48.48c0,14,9.16,28,27.62,38.61l1643.88,949.1c2.22,1.28,4.52,2.47,6.9,3.6.71.33,1.44.62,2.15.93,1.49.67,2.94,1.34,4.47,1.95l.54.18q4.86,1.89,10,3.38c.29.08.56.2.84.28.8.23,1.64.39,2.44.6,1.91.5,3.82,1,5.76,1.41.53.12,1,.28,1.57.38.76.16,1.57.26,2.34.41,1.64.31,3.28.61,4.94.86.67.1,1.33.25,2,.35s1.46.15,2.2.25c1.56.19,3.12.36,4.68.52.75.07,1.49.19,2.22.24s1.39.07,2.07.12c1.6.11,3.2.19,4.8.26.79,0,1.57.1,2.36.12s1.26,0,1.89,0c1.7,0,3.41,0,5.11,0,.86,0,1.73,0,2.59,0,.52,0,1-.08,1.54-.11,2.1-.09,4.19-.24,6.28-.41.86-.08,1.72-.09,2.57-.18.26,0,.51-.08.77-.11,3.58-.37,7.13-.85,10.63-1.47.18,0,.36-.05.54-.08,1-.19,2-.45,3.07-.65,1.71-.35,3.42-.69,5.1-1.09,1.28-.31,2.51-.67,3.77-1,1.58-.43,3.16-.85,4.71-1.34.35-.11.72-.19,1.07-.31.58-.19,1.13-.45,1.71-.64,2.47-.86,4.9-1.77,7.26-2.75.92-.39,1.84-.76,2.73-1.17a97.93,97.93,0,0,0,8.8-4.46l1018.39-591.82,1.14-.67c.87-.53,1.61-1.08,2.43-1.63,1.14-.73,2.3-1.47,3.36-2.23s1.76-1.39,2.64-2.08,2-1.56,2.85-2.36c.18-.17.41-.32.59-.49,1.2-1.11,2.31-2.24,3.35-3.38.23-.25.42-.51.64-.75.62-.7,1.25-1.4,1.82-2.12.24-.31.4-.63.63-.94.83-1.1,1.55-2.21,2.23-3.32.29-.45.65-.88.91-1.33V2460h0v.16c.14-.24.22-.49.35-.73.51-1,.93-1.93,1.35-2.89.25-.58.58-1.14.79-1.71.07-.19.1-.38.17-.57.33-.92.55-1.87.8-2.8.17-.63.42-1.26.55-1.9,0-.17,0-.34.05-.51.18-1,.25-2,.34-2.92.06-.65.21-1.29.22-2,0-.27,0-.54,0-.82q.08-24.24.14-48.48C3396.09,2395.77,3395.94,2396.68,3395.86,2397.6Z" transform="translate(1340 40)" style="fill:url(#linear-gradient-6)"/><path d="M3368.43,2356.21c36.71,21.19,36.91,55.54.44,76.73L2350.48,3024.76c-36.44,21.18-95.73,21.18-132.44,0L574.17,2075.65c-36.67-21.17-36.86-55.52-.44-76.69l1018.39-591.82c36.46-21.19,95.77-21.19,132.43,0Z" transform="translate(1340 40)" style="fill:url(#linear-gradient-7)"/><path d="M3369.87,2480.75c.87-.53,1.61-1.08,2.43-1.63,1.14-.73,2.3-1.47,3.36-2.23s1.76-1.39,2.64-2.08,2-1.56,2.85-2.36c.18-.17.41-.32.59-.49,1.2-1.11,2.31-2.24,3.35-3.38.23-.25.42-.51.64-.75.62-.7,1.25-1.4,1.82-2.12.24-.31.4-.63.63-.94.83-1.1,1.55-2.21,2.23-3.32.29-.45.65-.88.91-1.33V2460h0v.16c.14-.24.22-.49.35-.73.51-1,.93-1.93,1.35-2.89.25-.58.58-1.14.79-1.71.07-.19.1-.38.17-.57.33-.92.55-1.87.8-2.8.17-.63.42-1.26.55-1.9,0-.17,0-.34.05-.51.18-1,.25-2,.34-2.92.06-.65.21-1.29.22-2,0-.27,0-.54,0-.82q.08-24.24.14-48.48c0,.93-.15,1.84-.23,2.76s-.15,2-.33,2.93c-.16.8-.39,1.59-.61,2.39s-.48,1.88-.82,2.83c-.25.75-.61,1.48-.94,2.23-.42,1-.85,2-1.38,2.94-.37.71-.82,1.4-1.25,2.09-.68,1.1-1.39,2.19-2.2,3.27s-1.57,2.06-2.46,3.07c-.22.25-.41.5-.63.74-1.2,1.31-2.53,2.59-3.92,3.86-.92.82-2,1.62-3,2.43-.84.68-1.64,1.36-2.54,2-1.1.79-2.31,1.56-3.5,2.32s-2.22,1.51-3.45,2.22L3210.3,2525.1v48.4l158.43-92.08Z" transform="translate(1340 40)" style="fill:url(#linear-gradient-8)"/><path d="M3369.87,2480.75c.87-.53,1.61-1.08,2.43-1.63,1.14-.73,2.3-1.47,3.36-2.23s1.76-1.39,2.64-2.08,2-1.56,2.85-2.36c.18-.17.41-.32.59-.49,1.2-1.11,2.31-2.24,3.35-3.38.23-.25.42-.51.64-.75.62-.7,1.25-1.4,1.82-2.12.24-.31.4-.63.63-.94.83-1.1,1.55-2.21,2.23-3.32.29-.45.65-.88.91-1.33V2460h0v.16c.14-.24.22-.49.35-.73.51-1,.93-1.93,1.35-2.89.25-.58.58-1.14.79-1.71.07-.19.1-.38.17-.57.33-.92.55-1.87.8-2.8.17-.63.42-1.26.55-1.9,0-.17,0-.34.05-.51.18-1,.25-2,.34-2.92.06-.65.21-1.29.22-2,0-.27,0-.54,0-.82q.08-24.24.14-48.48c0,.93-.15,1.84-.23,2.76s-.15,2-.33,2.93c-.16.8-.39,1.59-.61,2.39s-.48,1.88-.82,2.83c-.25.75-.61,1.48-.94,2.23-.42,1-.85,2-1.38,2.94-.37.71-.82,1.4-1.25,2.09-.68,1.1-1.39,2.19-2.2,3.27s-1.57,2.06-2.46,3.07c-.22.25-.41.5-.63.74-1.2,1.31-2.53,2.59-3.92,3.86-.92.82-2,1.62-3,2.43-.84.68-1.64,1.36-2.54,2-1.1.79-2.31,1.56-3.5,2.32s-2.22,1.51-3.45,2.22L3210.3,2525.1v48.4l158.43-92.08Z" transform="translate(1340 40)" style="opacity:0.5;mix-blend-mode:multiply;fill:url(#linear-gradient-9)"/><path d="M2350.48,3024.76c-2.8,1.63-5.78,3.08-8.83,4.47-.88.4-1.78.76-2.67,1.13-2.39,1-4.83,1.93-7.33,2.79-.92.31-1.81.64-2.73.93-1.56.49-3.16.92-4.75,1.36-1.25.34-2.47.7-3.75,1-1.65.4-3.34.74-5,1.09-1.23.24-2.44.52-3.68.74q-5.25.92-10.61,1.48c-1.1.11-2.21.18-3.3.27-2.14.18-4.26.33-6.41.42-1.31.07-2.63.09-3.95.12-1.75,0-3.5,0-5.24,0-1.4,0-2.81-.06-4.2-.12-1.62-.06-3.23-.15-4.83-.26-1.43-.09-2.85-.21-4.28-.35s-3.13-.33-4.69-.53c-1.41-.18-2.8-.37-4.2-.6-1.66-.25-3.33-.54-5-.86-1.29-.24-2.57-.5-3.85-.77-2-.44-3.88-.92-5.79-1.43-1.1-.29-2.19-.56-3.27-.87-3.43-1-6.79-2.13-10-3.4-1.67-.64-3.27-1.34-4.87-2.06-.75-.34-1.54-.64-2.28-1-2.37-1.13-4.68-2.31-6.9-3.6l-263.32-152v48.56l263.19,152c2.22,1.28,4.52,2.47,6.9,3.6.71.33,1.44.62,2.15.93,1.49.67,2.94,1.34,4.47,1.95l.54.18q4.86,1.89,10,3.38c.29.08.56.2.84.28.8.23,1.64.39,2.44.6,1.91.5,3.82,1,5.76,1.41.53.12,1,.28,1.57.38.76.16,1.57.26,2.34.41,1.64.31,3.28.61,4.94.86.67.1,1.33.25,2,.35s1.46.15,2.2.25c1.56.19,3.12.36,4.68.52.75.07,1.49.19,2.22.24s1.39.07,2.07.12c1.6.11,3.2.19,4.8.26.79,0,1.57.1,2.36.12s1.26,0,1.89,0c1.7,0,3.41,0,5.11,0,.86,0,1.73,0,2.59,0,.52,0,1-.08,1.54-.11,2.1-.09,4.19-.24,6.28-.41.86-.08,1.72-.09,2.57-.18.26,0,.51-.08.77-.11,3.58-.37,7.13-.85,10.63-1.47.18,0,.36-.05.54-.08,1-.19,2-.45,3.07-.65,1.71-.35,3.42-.69,5.1-1.09,1.28-.31,2.51-.67,3.77-1,1.58-.43,3.16-.85,4.71-1.34.35-.11.72-.19,1.07-.31.58-.19,1.13-.45,1.71-.64,2.47-.86,4.9-1.77,7.26-2.75.92-.39,1.84-.76,2.73-1.17a97.93,97.93,0,0,0,8.8-4.46l265.21-154.12v-48.4Z" transform="translate(1340 40)" style="fill:url(#linear-gradient-10)"/><path d="M2350.48,3024.76c-2.8,1.63-5.78,3.08-8.83,4.47-.88.4-1.78.76-2.67,1.13-2.39,1-4.83,1.93-7.33,2.79-.92.31-1.81.64-2.73.93-1.56.49-3.16.92-4.75,1.36-1.25.34-2.47.7-3.75,1-1.65.4-3.34.74-5,1.09-1.23.24-2.44.52-3.68.74q-5.25.92-10.61,1.48c-1.1.11-2.21.18-3.3.27-2.14.18-4.26.33-6.41.42-1.31.07-2.63.09-3.95.12-1.75,0-3.5,0-5.24,0-1.4,0-2.81-.06-4.2-.12-1.62-.06-3.23-.15-4.83-.26-1.43-.09-2.85-.21-4.28-.35s-3.13-.33-4.69-.53c-1.41-.18-2.8-.37-4.2-.6-1.66-.25-3.33-.54-5-.86-1.29-.24-2.57-.5-3.85-.77-2-.44-3.88-.92-5.79-1.43-1.1-.29-2.19-.56-3.27-.87-3.43-1-6.79-2.13-10-3.4-1.67-.64-3.27-1.34-4.87-2.06-.75-.34-1.54-.64-2.28-1-2.37-1.13-4.68-2.31-6.9-3.6l-263.32-152v48.56l263.19,152c2.22,1.28,4.52,2.47,6.9,3.6.71.33,1.44.62,2.15.93,1.49.67,2.94,1.34,4.47,1.95l.54.18q4.86,1.89,10,3.38c.29.08.56.2.84.28.8.23,1.64.39,2.44.6,1.91.5,3.82,1,5.76,1.41.53.12,1,.28,1.57.38.76.16,1.57.26,2.34.41,1.64.31,3.28.61,4.94.86.67.1,1.33.25,2,.35s1.46.15,2.2.25c1.56.19,3.12.36,4.68.52.75.07,1.49.19,2.22.24s1.39.07,2.07.12c1.6.11,3.2.19,4.8.26.79,0,1.57.1,2.36.12s1.26,0,1.89,0c1.7,0,3.41,0,5.11,0,.86,0,1.73,0,2.59,0,.52,0,1-.08,1.54-.11,2.1-.09,4.19-.24,6.28-.41.86-.08,1.72-.09,2.57-.18.26,0,.51-.08.77-.11,3.58-.37,7.13-.85,10.63-1.47.18,0,.36-.05.54-.08,1-.19,2-.45,3.07-.65,1.71-.35,3.42-.69,5.1-1.09,1.28-.31,2.51-.67,3.77-1,1.58-.43,3.16-.85,4.71-1.34.35-.11.72-.19,1.07-.31.58-.19,1.13-.45,1.71-.64,2.47-.86,4.9-1.77,7.26-2.75.92-.39,1.84-.76,2.73-1.17a97.93,97.93,0,0,0,8.8-4.46l265.21-154.12v-48.4Z" transform="translate(1340 40)" style="opacity:0.5;mix-blend-mode:lighten;fill:url(#linear-gradient-11)"/><path d="M574.17,2075.65C555.71,2065,546.5,2051,546.54,2037q-.06,24.24-.13,48.48c0,14,9.16,28,27.62,38.61l283.7,163.8v-48.57Z" transform="translate(1340 40)" style="fill:url(#linear-gradient-12)"/><path d="M574.17,2075.65C555.71,2065,546.5,2051,546.54,2037q-.06,24.24-.13,48.48c0,14,9.16,28,27.62,38.61l283.7,163.8v-48.57Z" transform="translate(1340 40)" style="opacity:0.5;mix-blend-mode:lighten;fill:url(#linear-gradient-13)"/><polyline points="2824.38 2655.17 2630.63 2543.32 2630.58 2565.21 2824.33 2677.06 2824.38 2655.17" style="fill:#231f20"/><polygon points="2633.06 2563.14 2633.11 2544.74 2630.63 2543.32 2630.58 2565.21 2824.33 2677.06 2824.33 2673.57 2633.06 2563.14" style="fill:#6d6e70"/><polyline points="4580.85 2561.69 4660.14 2515.82 4660.19 2537.71 4580.92 2583.58 4580.85 2561.69" style="fill:#231f20"/><polygon points="4657.71 2535.64 4657.66 2517.24 4660.14 2515.82 4660.19 2537.71 4580.92 2583.58 4580.9 2580.09 4657.71 2535.64" style="fill:#6d6e70"/><polyline points="4485.86 2617.04 4565.14 2571.16 4565.19 2593.05 4485.92 2638.93 4485.86 2617.04" style="fill:#231f20"/><polygon points="4562.72 2590.99 4562.66 2572.58 4565.14 2571.16 4565.19 2593.05 4485.92 2638.93 4485.91 2635.44 4562.72 2590.99" style="fill:#6d6e70"/><g style="mix-blend-mode:multiply"><polyline points="3265.64 1659.35 3160.15 1598.46 3055.36 1659.35 3160.85 1720.25 3265.64 1659.35" style="fill:#bbbdbf"/><polyline points="3392.22 1732.43 3286.73 1671.53 3181.94 1732.43 3287.41 1793.33 3392.22 1732.43" style="fill:#bbbdbf"/><polyline points="3518.78 1805.51 3413.3 1744.61 3308.52 1805.51 3413.99 1866.41 3518.78 1805.51" style="fill:#bbbdbf"/><polyline points="3645.36 1878.59 3539.88 1817.68 3435.09 1878.59 3540.57 1939.49 3645.36 1878.59" style="fill:#bbbdbf"/><polyline points="3771.94 1951.67 3666.46 1890.76 3561.67 1951.67 3667.15 2012.57 3771.94 1951.67" style="fill:#bbbdbf"/><polyline points="3898.51 2024.75 3793.04 1963.84 3688.24 2024.75 3793.73 2085.64 3898.51 2024.75" style="fill:#bbbdbf"/><polyline points="4025.09 2097.82 3919.61 2036.92 3814.82 2097.83 3920.3 2158.72 4025.09 2097.82" style="fill:#bbbdbf"/><polyline points="4151.67 2170.9 4046.18 2110 3941.39 2170.91 4046.87 2231.8 4151.67 2170.9" style="fill:#bbbdbf"/><polyline points="4278.24 2243.98 4172.76 2183.08 4067.97 2243.99 4173.44 2304.88 4278.24 2243.98" style="fill:#bbbdbf"/><polyline points="4404.81 2317.06 4299.34 2256.16 4194.55 2317.06 4300.02 2377.96 4404.81 2317.06" style="fill:#bbbdbf"/><polyline points="3271.11 1802.8 3165.64 1741.91 3060.83 1802.8 3166.32 1863.71 3271.11 1802.8" style="fill:#bbbdbf"/><polyline points="3397.69 1875.88 3292.22 1814.99 3187.41 1875.88 3292.9 1936.79 3397.69 1875.88" style="fill:#bbbdbf"/><polyline points="3524.27 1948.96 3418.78 1888.07 3313.99 1948.96 3419.46 2009.87 3524.27 1948.96" style="fill:#bbbdbf"/><polyline points="3650.84 2022.04 3545.36 1961.14 3440.57 2022.04 3546.04 2082.94 3650.84 2022.04" style="fill:#bbbdbf"/><polyline points="3777.41 2095.12 3671.93 2034.22 3567.14 2095.12 3672.62 2156.02 3777.41 2095.12" style="fill:#bbbdbf"/><polyline points="3903.99 2168.2 3798.51 2107.3 3693.72 2168.2 3799.2 2229.1 3903.99 2168.2" style="fill:#bbbdbf"/><polyline points="4030.56 2241.27 3925.09 2180.38 3820.29 2241.27 3925.78 2302.18 4030.56 2241.27" style="fill:#bbbdbf"/><polyline points="4157.14 2314.35 4051.67 2253.46 3946.86 2314.35 4052.35 2375.25 4157.14 2314.35" style="fill:#bbbdbf"/><polyline points="4283.72 2387.43 4178.23 2326.54 4073.44 2387.43 4178.92 2448.33 4283.72 2387.43" style="fill:#bbbdbf"/><polyline points="3150.01 1873.18 3044.53 1812.28 2939.74 1873.18 3045.21 1934.08 3150.01 1873.18" style="fill:#bbbdbf"/><polyline points="3276.59 1946.26 3171.11 1885.36 3066.32 1946.26 3171.79 2007.16 3276.59 1946.26" style="fill:#bbbdbf"/><polyline points="3403.16 2019.34 3297.69 1958.44 3192.9 2019.34 3298.37 2080.24 3403.16 2019.34" style="fill:#bbbdbf"/><polyline points="3529.74 2092.42 3424.26 2031.52 3319.46 2092.42 3424.95 2153.32 3529.74 2092.42" style="fill:#bbbdbf"/><polyline points="3656.32 2165.5 3550.83 2104.6 3446.04 2165.5 3551.53 2226.39 3656.32 2165.5" style="fill:#bbbdbf"/><polyline points="3782.89 2238.58 3677.41 2177.68 3572.62 2238.58 3678.09 2299.47 3782.89 2238.58" style="fill:#bbbdbf"/><polyline points="3909.46 2311.66 3803.99 2250.75 3699.2 2311.66 3804.67 2372.55 3909.46 2311.66" style="fill:#bbbdbf"/><polyline points="4036.04 2384.74 3930.56 2323.83 3825.77 2384.74 3931.24 2445.63 4036.04 2384.74" style="fill:#bbbdbf"/><polyline points="4162.62 2457.81 4057.14 2396.91 3952.35 2457.81 4057.82 2518.71 4162.62 2457.81" style="fill:#bbbdbf"/><polyline points="3155.49 2016.63 3050.01 1955.74 2945.21 2016.64 3050.69 2077.54 3155.49 2016.63" style="fill:#bbbdbf"/><polyline points="3282.07 2089.71 3176.58 2028.82 3071.79 2089.72 3177.27 2150.62 3282.07 2089.71" style="fill:#bbbdbf"/><polyline points="3408.63 2162.79 3303.16 2101.89 3198.37 2162.8 3303.84 2223.7 3408.63 2162.79" style="fill:#bbbdbf"/><polyline points="3535.21 2235.87 3429.74 2174.97 3324.95 2235.87 3430.42 2296.77 3535.21 2235.87" style="fill:#bbbdbf"/><polyline points="3661.79 2308.95 3556.31 2248.05 3451.51 2308.95 3557 2369.85 3661.79 2308.95" style="fill:#bbbdbf"/><polyline points="3788.37 2382.02 3682.89 2321.13 3578.09 2382.02 3683.58 2442.93 3788.37 2382.02" style="fill:#bbbdbf"/><polyline points="2781.23 1940.85 2675.76 1879.96 2570.96 1940.85 2676.44 2001.75 2781.23 1940.85" style="fill:#bbbdbf"/><polyline points="2907.81 2013.93 2802.33 1953.04 2697.54 2013.93 2803.02 2074.83 2907.81 2013.93" style="fill:#bbbdbf"/><polyline points="3793.84 2525.49 3688.37 2464.58 3583.56 2525.49 3689.05 2586.38 3793.84 2525.49" style="fill:#bbbdbf"/><polyline points="3920.42 2598.56 3814.94 2537.66 3710.14 2598.56 3815.63 2659.46 3920.42 2598.56" style="fill:#bbbdbf"/><polyline points="3667.26 2452.41 2928.91 2026.12 2824.11 2087.01 3562.47 2513.3 3667.26 2452.41" style="fill:#bbbdbf"/><polyline points="3028.91 1943.55 2796.86 1809.58 2692.06 1870.48 2924.12 2004.46 3028.91 1943.55" style="fill:#bbbdbf"/><polyline points="4041.52 2528.18 3809.46 2394.21 3704.67 2455.1 3936.72 2589.09 4041.52 2528.18" style="fill:#bbbdbf"/><polyline points="3144.53 1729.72 3039.06 1668.83 2813.16 1800.1 2918.64 1861 3144.53 1729.72" style="fill:#bbbdbf"/><polyline points="3380.02 2472.69 2894.81 2192.56 2547.82 2394.22 3033.03 2674.35 3380.02 2472.69" style="fill:#bbbdbf"/></g><polyline points="3265.64 1652.75 3160.15 1591.84 3055.36 1652.75 3160.85 1713.64 3265.64 1652.75" style="fill:url(#linear-gradient-14)"/><polyline points="3392.22 1725.83 3286.73 1664.92 3181.94 1725.83 3287.41 1786.72 3392.22 1725.83" style="fill:url(#linear-gradient-15)"/><polyline points="3518.78 1798.9 3413.3 1738 3308.52 1798.9 3413.99 1859.8 3518.78 1798.9" style="fill:url(#linear-gradient-16)"/><polyline points="3645.36 1871.98 3539.88 1811.08 3435.09 1871.98 3540.57 1932.88 3645.36 1871.98" style="fill:url(#linear-gradient-17)"/><polyline points="3771.94 1945.06 3666.46 1884.15 3561.67 1945.06 3667.15 2005.96 3771.94 1945.06" style="fill:url(#linear-gradient-18)"/><polyline points="3898.51 2018.14 3793.04 1957.23 3688.24 2018.14 3793.73 2079.03 3898.51 2018.14" style="fill:url(#linear-gradient-19)"/><polyline points="4025.09 2091.21 3919.61 2030.31 3814.82 2091.22 3920.3 2152.11 4025.09 2091.21" style="fill:url(#linear-gradient-20)"/><polyline points="4151.67 2164.29 4046.18 2103.39 3941.39 2164.3 4046.87 2225.19 4151.67 2164.29" style="fill:url(#linear-gradient-21)"/><polyline points="4278.24 2237.37 4172.76 2176.47 4067.97 2237.38 4173.44 2298.27 4278.24 2237.37" style="fill:url(#linear-gradient-22)"/><polyline points="4404.81 2310.45 4299.34 2249.55 4194.55 2310.45 4300.02 2371.35 4404.81 2310.45" style="fill:url(#linear-gradient-23)"/><polyline points="3271.11 1796.19 3165.64 1735.3 3060.83 1796.19 3166.32 1857.1 3271.11 1796.19" style="fill:url(#linear-gradient-24)"/><polyline points="3397.69 1869.27 3292.22 1808.38 3187.41 1869.27 3292.9 1930.18 3397.69 1869.27" style="fill:url(#linear-gradient-25)"/><polyline points="3524.27 1942.35 3418.78 1881.45 3313.99 1942.35 3419.46 2003.26 3524.27 1942.35" style="fill:url(#linear-gradient-26)"/><polyline points="3650.84 2015.43 3545.36 1954.54 3440.57 2015.43 3546.04 2076.33 3650.84 2015.43" style="fill:url(#linear-gradient-27)"/><polyline points="3777.41 2088.51 3671.93 2027.61 3567.14 2088.51 3672.62 2149.41 3777.41 2088.51" style="fill:url(#linear-gradient-28)"/><polyline points="3903.99 2161.59 3798.51 2100.69 3693.72 2161.59 3799.2 2222.49 3903.99 2161.59" style="fill:url(#linear-gradient-29)"/><polyline points="4030.56 2234.67 3925.09 2173.77 3820.29 2234.67 3925.78 2295.57 4030.56 2234.67" style="fill:url(#linear-gradient-30)"/><polyline points="4157.14 2307.74 4051.67 2246.85 3946.86 2307.74 4052.35 2368.65 4157.14 2307.74" style="fill:url(#linear-gradient-31)"/><polyline points="4283.72 2380.82 4178.23 2319.93 4073.44 2380.82 4178.92 2441.73 4283.72 2380.82" style="fill:url(#linear-gradient-32)"/><polyline points="3150.01 1866.58 3044.53 1805.67 2939.74 1866.58 3045.21 1927.47 3150.01 1866.58" style="fill:url(#linear-gradient-33)"/><polyline points="3276.59 1939.65 3171.11 1878.75 3066.32 1939.65 3171.79 2000.55 3276.59 1939.65" style="fill:url(#linear-gradient-34)"/><polyline points="3403.16 2012.73 3297.69 1951.83 3192.9 2012.73 3298.37 2073.63 3403.16 2012.73" style="fill:url(#linear-gradient-35)"/><polyline points="3529.74 2085.81 3424.26 2024.91 3319.46 2085.81 3424.95 2146.71 3529.74 2085.81" style="fill:url(#linear-gradient-36)"/><polyline points="3656.32 2158.89 3550.83 2097.99 3446.04 2158.89 3551.53 2219.79 3656.32 2158.89" style="fill:url(#linear-gradient-37)"/><polyline points="3782.89 2231.97 3677.41 2171.07 3572.62 2231.97 3678.09 2292.86 3782.89 2231.97" style="fill:url(#linear-gradient-38)"/><polyline points="3909.46 2305.05 3803.99 2244.14 3699.2 2305.05 3804.67 2365.94 3909.46 2305.05" style="fill:url(#linear-gradient-39)"/><polyline points="4036.04 2378.13 3930.56 2317.22 3825.77 2378.13 3931.24 2439.02 4036.04 2378.13" style="fill:url(#linear-gradient-40)"/><polyline points="4162.62 2451.2 4057.14 2390.3 3952.35 2451.2 4057.82 2512.1 4162.62 2451.2" style="fill:url(#linear-gradient-41)"/><polyline points="3155.49 2010.02 3050.01 1949.13 2945.21 2010.03 3050.69 2070.93 3155.49 2010.02" style="fill:url(#linear-gradient-42)"/><polyline points="3282.07 2083.1 3176.58 2022.21 3071.79 2083.11 3177.27 2144.01 3282.07 2083.1" style="fill:url(#linear-gradient-43)"/><polyline points="3408.63 2156.18 3303.16 2095.29 3198.37 2156.19 3303.84 2217.09 3408.63 2156.18" style="fill:url(#linear-gradient-44)"/><polyline points="3535.21 2229.26 3429.74 2168.36 3324.95 2229.26 3430.42 2290.17 3535.21 2229.26" style="fill:url(#linear-gradient-45)"/><polyline points="3661.79 2302.34 3556.31 2241.44 3451.51 2302.34 3557 2363.25 3661.79 2302.34" style="fill:url(#linear-gradient-46)"/><polyline points="3788.37 2375.41 3682.89 2314.52 3578.09 2375.41 3683.58 2436.32 3788.37 2375.41" style="fill:url(#linear-gradient-47)"/><polyline points="2781.23 1934.24 2675.76 1873.35 2570.96 1934.24 2676.44 1995.14 2781.23 1934.24" style="fill:url(#linear-gradient-48)"/><polyline points="2907.81 2007.33 2802.33 1946.43 2697.54 2007.33 2803.02 2068.22 2907.81 2007.33" style="fill:url(#linear-gradient-49)"/><polyline points="3793.84 2518.88 3688.37 2457.97 3583.56 2518.88 3689.05 2579.77 3793.84 2518.88" style="fill:url(#linear-gradient-50)"/><polyline points="3920.42 2591.95 3814.94 2531.05 3710.14 2591.95 3815.63 2652.85 3920.42 2591.95" style="fill:url(#linear-gradient-51)"/><polyline points="3667.26 2445.8 2928.91 2019.51 2824.11 2080.41 3562.47 2506.69 3667.26 2445.8" style="fill:url(#linear-gradient-52)"/><polyline points="3028.91 1936.94 2796.86 1802.97 2692.06 1863.87 2924.12 1997.85 3028.91 1936.94" style="fill:url(#linear-gradient-53)"/><polyline points="4041.52 2521.57 3809.46 2387.6 3704.67 2448.49 3936.72 2582.48 4041.52 2521.57" style="fill:url(#linear-gradient-54)"/><polyline points="3144.53 1723.12 3039.06 1662.22 2813.16 1793.5 2918.64 1854.39 3144.53 1723.12" style="fill:url(#linear-gradient-55)"/><polyline points="3380.02 2466.09 2894.81 2185.96 2547.82 2387.61 3033.03 2667.74 3380.02 2466.09" style="fill:url(#linear-gradient-56)"/><path d="M1685.78,74.56l27.94-16.25c12.08-7,28.82-6,47.29,4.64l-27.94,16.24C1714.6,68.52,1697.86,67.54,1685.78,74.56Z" transform="translate(1340 40)" style="fill:none"/><path d="M3376.9,1028.26c36.71,21.19,66.35,72.55,66.24,114.72l-3.34,1177.87c-.12,42.12-30,59.13-66.67,37.94L1729.3,1409.72c-36.71-21.19-66.36-72.55-66.24-114.68l3.34-1177.86c.12-42.18,30-59.18,66.67-38Z" transform="translate(1340 40)" style="fill:url(#linear-gradient-57)"/><path d="M3403,2334.87c-1.55,0-6-.46-13.31-4.69L1745.82,1381.11c-26.58-15.35-49.81-55.51-49.72-86l3.34-1177.87c0-9,2.21-13.21,3-14.14l.81,0c1.56,0,6,.46,13.31,4.7l1643.83,949.07c26.57,15.33,49.81,55.53,49.72,86l-3.35,1177.87c0,9-2.19,13.16-3,14.09Z" transform="translate(1340 40)" style="fill:#231f20"/><path d="M1762.34,1352.49c-16.19-9.34-33.25-38.78-33.2-57.26l3.23-1140.13,1611.49,930.39c16.19,9.34,33.25,38.8,33.2,57.31l-3.23,1140.09Z" transform="translate(1340 40)" style="fill:url(#linear-gradient-58)"/><path d="M1713.72,58.31l-27.94,16.25a31,31,0,0,1,5.38-2.49l27.94-16.24A32,32,0,0,0,1713.72,58.31Z" transform="translate(1340 40)" style="fill:#b8b8b8"/><path d="M3471.05,1123.74c0-1.07-.08-2.14-.16-3.21,0-.47-.08-.94-.11-1.41,0-.25,0-.5-.06-.76s0-.71-.09-1.07c-.1-1.08-.22-2.16-.36-3.25s-.3-2.22-.47-3.34-.37-2.24-.58-3.36-.45-2.31-.71-3.47c-.09-.39-.19-.79-.28-1.19s-.12-.5-.17-.75c-.12-.51-.23-1-.36-1.53-.28-1.18-.59-2.35-.93-3.53-.22-.83-.48-1.66-.72-2.48-.07-.21-.12-.41-.18-.61l-.12-.42c-.35-1.15-.72-2.3-1.1-3.43s-.77-2.27-1.19-3.4c-.07-.22-.16-.44-.24-.67s-.09-.24-.14-.36c-.27-.73-.54-1.48-.83-2.22-.42-1.07-.85-2.15-1.3-3.23-.32-.78-.66-1.56-1-2.33l-.15-.36c-.07-.16-.13-.33-.21-.48-.47-1.09-.95-2.16-1.46-3.23s-1.11-2.33-1.69-3.48c-.1-.2-.2-.38-.29-.57l-.27-.53c-.49-1-1-1.92-1.49-2.88-.63-1.17-1.3-2.32-2-3.48-.32-.55-.62-1.11-.94-1.67l-.39-.69c-.6-1-1.26-2-1.88-3-.85-1.39-1.69-2.78-2.59-4.14-.16-.24-.3-.49-.46-.72-1.35-2-2.76-4-4.21-6-1-1.32-1.95-2.61-2.95-3.88-.8-1-1.62-2-2.44-3l-.1-.13s0,0,0,0c-.84-1-1.7-2-2.57-3s-1.71-1.93-2.58-2.86c-.15-.16-.31-.32-.46-.49s-.25-.25-.38-.4l-1.88-2c-.92-.94-1.85-1.86-2.8-2.77l-.88-.82-.66-.61c-.46-.43-.91-.87-1.38-1.28-1-.88-2-1.75-3-2.59l-1.32-1.08-.65-.53c-.34-.26-.66-.54-1-.8-1-.76-1.94-1.5-2.92-2.23-.72-.53-1.45-1-2.19-1.55a3,3,0,0,0-.31-.22l-.39-.28q-1.41-1-2.82-1.86c-.93-.6-1.88-1.18-2.82-1.73l-.66-.38L1761,63c-.71-.41-1.41-.81-2.11-1.18-.92-.49-1.83-1-2.73-1.42s-1.79-.87-2.68-1.27-1.79-.77-2.68-1.12-1.79-.7-2.67-1-1.78-.6-2.67-.88-1.84-.53-2.74-.75-1.83-.43-2.72-.6-2-.36-2.92-.48-2-.24-2.95-.31-2.09-.1-3.13-.1h0c-1.17,0-2.31.06-3.44.17a33.45,33.45,0,0,0-3.82.55,33.9,33.9,0,0,0-4.65,1.28l-27.94,16.24a33.51,33.51,0,0,1,4.65-1.28,35.64,35.64,0,0,1,3.81-.56c1.14-.1,2.29-.15,3.45-.16s2.07,0,3.13.1,2,.17,3,.31,1.94.28,2.9.48,1.81.37,2.73.6,1.83.48,2.75.76,1.76.55,2.65.87,1.8.64,2.69,1h0c.88.35,1.76.73,2.65,1.12s1.79.82,2.7,1.28,1.8.91,2.72,1.4c.7.38,1.41.78,2.12,1.19L3376.9,1028.26q3.39,2,6.68,4.25l.32.21c2.06,1.44,4.09,3,6.09,4.59l.64.53c1.93,1.58,3.81,3.22,5.67,5l.66.61c1.88,1.77,3.73,3.63,5.54,5.54l.41.42a154.12,154.12,0,0,1,15.77,20.1c.89,1.35,1.74,2.75,2.6,4.14.76,1.23,1.54,2.44,2.27,3.69.32.55.61,1.11.94,1.67,1.19,2.09,2.35,4.21,3.43,6.35l.27.53q2,3.86,3.67,7.79c0,.09.09.2.13.29,1.11,2.56,2.15,5.15,3.12,7.74,0,.15.12.32.18.48q1.44,3.93,2.63,7.87c.07.21.12.42.18.62q1.11,3.72,2,7.43c.07.3.15.61.21.92.58,2.53,1.08,5.06,1.48,7.58a2.2,2.2,0,0,1,.07.37c.41,2.57.71,5.14.93,7.68l.06.75c.19,2.57.31,5.11.3,7.62l-3.34,1177.87c0,2.51-.13,4.92-.34,7.25,0,.23-.05.46-.08.7-.22,2.14-.51,4.2-.9,6.18-.05.24-.09.49-.14.73a56,56,0,0,1-1.44,5.54c-.1.34-.22.66-.33,1a48.83,48.83,0,0,1-1.87,4.8c-.07.13-.12.28-.18.41a38.12,38.12,0,0,1-2.68,4.84c-.14.23-.32.44-.46.66a38.56,38.56,0,0,1-2.52,3.32c-.33.4-.68.77-1,1.14a33.23,33.23,0,0,1-2.49,2.41c-.35.3-.7.63-1.07.92a29.71,29.71,0,0,1-3.85,2.67l28-16.23a34.87,34.87,0,0,0,3.85-2.68c.36-.29.7-.61,1.05-.92.87-.75,1.69-1.56,2.5-2.41.34-.38.69-.74,1-1.14a37.38,37.38,0,0,0,2.59-3.42c.12-.18.26-.35.38-.53l.1-.14a42,42,0,0,0,2.5-4.55.89.89,0,0,0,.08-.17c.07-.14.12-.3.19-.44.47-1,.92-2.07,1.33-3.15.2-.55.36-1.11.55-1.67l.32-1c.09-.29.19-.58.28-.87.32-1.1.62-2.24.89-3.39.09-.4.16-.82.25-1.23s.11-.56.17-.83.16-.79.23-1.19c.18-1,.35-2.09.47-3.17.08-.58.13-1.18.19-1.77,0-.23.05-.45.07-.68s0-.5.08-.74c.08-1,.14-2.08.19-3.14s.07-2.11.07-3.2c0-.06,0-.13,0-.19l3.33-1177.87Q3471.08,1125.26,3471.05,1123.74Z" transform="translate(1340 40)" style="fill:url(#linear-gradient-59)"/><path d="M3439.46,2328.1c0,.23-.05.46-.08.7-.22,2.14-.51,4.2-.9,6.18-.05.24-.09.49-.14.73a56,56,0,0,1-1.44,5.54c-.1.34-.22.66-.33,1a48.83,48.83,0,0,1-1.87,4.8c-.07.13-.12.28-.18.41a38.12,38.12,0,0,1-2.68,4.84c-.14.23-.32.44-.46.66a38.56,38.56,0,0,1-2.52,3.32c-.33.4-.68.77-1,1.14a33.23,33.23,0,0,1-2.49,2.41c-.35.3-.7.63-1.07.92a29.71,29.71,0,0,1-3.85,2.67l28-16.23a34.87,34.87,0,0,0,3.85-2.68c.36-.29.7-.61,1.05-.92.87-.75,1.69-1.56,2.5-2.41.34-.38.69-.74,1-1.14a37.38,37.38,0,0,0,2.59-3.42c.12-.18.26-.35.38-.53l.1-.14a42,42,0,0,0,2.5-4.55.89.89,0,0,0,.08-.17c.07-.14.12-.3.19-.44.47-1,.92-2.07,1.33-3.15.2-.55.36-1.11.55-1.67l.32-1c.09-.29.19-.58.28-.87.32-1.1.62-2.24.89-3.39.09-.4.16-.82.25-1.23s.11-.56.17-.83.16-.79.23-1.19c.18-1,.35-2.09.47-3.17.08-.58.13-1.18.19-1.77,0-.23.05-.45.07-.68s0-.5.08-.74c.08-1,.14-2.08.19-3.14s.07-2.11.07-3.2c0-.06,0-.13,0-.19l.71-251.87L3440.52,2069l-.72,251.87C3439.8,2323.36,3439.67,2325.77,3439.46,2328.1Z" transform="translate(1340 40)" style="opacity:0.5;mix-blend-mode:multiply;fill:url(#linear-gradient-60)"/><path d="M3471.08,1126.74q0-1.48,0-3c0-1.07-.08-2.14-.16-3.21,0-.47-.08-.94-.11-1.41,0-.25,0-.5-.06-.76s0-.71-.09-1.07c-.1-1.08-.22-2.16-.36-3.25s-.3-2.22-.47-3.34-.37-2.24-.58-3.36-.45-2.31-.71-3.47c-.09-.39-.19-.79-.28-1.19s-.12-.5-.17-.75c-.12-.51-.23-1-.36-1.53-.28-1.18-.59-2.35-.93-3.53-.22-.83-.48-1.66-.72-2.48-.07-.21-.12-.41-.18-.61l-.12-.42c-.35-1.15-.72-2.3-1.1-3.43s-.77-2.27-1.19-3.4c-.07-.22-.16-.44-.24-.67s-.09-.24-.14-.36c-.27-.73-.54-1.48-.83-2.22-.42-1.07-.85-2.15-1.3-3.23-.32-.78-.66-1.56-1-2.33l-.15-.36c-.07-.16-.13-.33-.21-.48-.47-1.09-.95-2.16-1.46-3.23s-1.11-2.33-1.69-3.48c-.1-.2-.2-.38-.29-.57l-.27-.53c-.49-1-1-1.92-1.49-2.88-.63-1.17-1.3-2.32-2-3.48-.32-.55-.62-1.11-.94-1.67l-.39-.69c-.6-1-1.26-2-1.88-3-.85-1.39-1.69-2.78-2.59-4.14-.16-.24-.3-.49-.46-.72-1.35-2-2.76-4-4.21-6-1-1.32-1.95-2.61-2.95-3.88-.8-1-1.62-2-2.44-3l-.1-.13s0,0,0,0c-.84-1-1.7-2-2.57-3s-1.71-1.93-2.58-2.86c-.15-.16-.31-.32-.46-.49s-.25-.25-.38-.4l-1.88-2c-.92-.94-1.85-1.86-2.8-2.77l-.88-.82-.66-.61c-.46-.43-.91-.87-1.38-1.28-1-.88-2-1.75-3-2.59l-1.32-1.08-.65-.53c-.34-.26-.66-.54-1-.8-1-.76-1.94-1.5-2.92-2.23-.72-.53-1.45-1-2.19-1.55a3,3,0,0,0-.31-.22l-.39-.28q-1.41-1-2.82-1.86c-.93-.6-1.88-1.18-2.82-1.73l-.66-.38-130.23-75.19-27.94,16.23,130.23,75.2q3.39,2,6.68,4.25l.32.21c2.06,1.44,4.09,3,6.09,4.59l.64.53c1.93,1.58,3.81,3.22,5.67,5l.66.61c1.88,1.77,3.73,3.63,5.54,5.54l.41.42a154.12,154.12,0,0,1,15.77,20.1c.89,1.35,1.74,2.75,2.6,4.14.76,1.23,1.54,2.44,2.27,3.69.32.55.61,1.11.94,1.67,1.19,2.09,2.35,4.21,3.43,6.35l.27.53q2,3.86,3.67,7.79c0,.09.09.2.13.29,1.11,2.56,2.15,5.15,3.12,7.74,0,.15.12.32.18.48q1.44,3.93,2.63,7.87c.07.21.12.42.18.62q1.11,3.72,2,7.43c.07.3.15.61.21.92.58,2.53,1.08,5.06,1.48,7.58a2.2,2.2,0,0,1,.07.37c.41,2.57.71,5.14.93,7.68l.06.75c.19,2.57.31,5.11.3,7.62l-.49,174.46,27.94-16.24Z" transform="translate(1340 40)" style="opacity:0.5;mix-blend-mode:lighten;fill:url(#linear-gradient-61)"/><path d="M1761,63c-.71-.41-1.41-.81-2.11-1.18-.92-.49-1.83-1-2.73-1.42s-1.79-.87-2.68-1.27-1.79-.77-2.68-1.12-1.79-.7-2.67-1-1.78-.6-2.67-.88-1.84-.53-2.74-.75-1.83-.43-2.72-.6-2-.36-2.92-.48-2-.24-2.95-.31-2.09-.1-3.13-.1h0c-1.17,0-2.31.06-3.44.17a33.45,33.45,0,0,0-3.82.55,33.9,33.9,0,0,0-4.65,1.28l-27.94,16.24a33.51,33.51,0,0,1,4.65-1.28,35.64,35.64,0,0,1,3.81-.56c1.14-.1,2.29-.15,3.45-.16s2.07,0,3.13.1,2,.17,3,.31,1.94.28,2.9.48,1.81.37,2.73.6,1.83.48,2.75.76,1.76.55,2.65.87,1.8.64,2.69,1h0c.88.35,1.76.73,2.65,1.12s1.79.82,2.7,1.28,1.8.91,2.72,1.4c.7.38,1.41.78,2.12,1.19l292.18,168.69,27.95-16.23Z" transform="translate(1340 40)" style="opacity:0.5;mix-blend-mode:lighten;fill:url(#linear-gradient-62)"/><path d="M1746.57,1381.86l1643.84,949.07c7.34,4.23,11.75,4.69,13.31,4.69l.81,0c.78-.92,3-5.13,3-14.1l3.35-1177.85c.07-30.49-23.15-70.68-49.72-86l-88.46-51.07c-296.78-2.41-942.46,30.32-1572.11,312.45C1708.14,1344.19,1726.38,1370.2,1746.57,1381.86Z" transform="translate(1340 40)" style="opacity:0.5;mix-blend-mode:screen;fill:url(#linear-gradient-63)"/><path d="M1651.08,2356.36a.36.36,0,0,0-.32,0c-.08,0-.08.13,0,.18a.34.34,0,0,0,.31,0c.09-.05.09-.13,0-.18m120.87,68c-65,38.84-171.83,39.92-238.67,2.41s-68.36-99.4-3.39-138.25,171.83-39.92,238.67-2.41S1836.92,2385.52,1772,2424.37Z" transform="translate(1340 40)" style="opacity:0.2;mix-blend-mode:multiply"/><g style="opacity:0.2;mix-blend-mode:overlay"><g style="mask:url(#mask-5)"><polyline points="2726.36 1927.54 2689.15 1949.02 2685.64 709.54 2722.84 688.06 2726.36 1927.54" style="fill:url(#linear-gradient-64)"/></g></g><g style="opacity:0.2;mix-blend-mode:overlay"><g style="mask:url(#mask-6)"><polyline points="3192.06 1826.05 3229.26 1847.53 3232.78 608.05 3195.57 586.57 3192.06 1826.05" style="fill:url(#linear-gradient-65)"/></g></g><path d="M1513.27,1713.68l-14.34,12.55c-9.08,7.89-22.07,19-37.76,32.1l-25.44,21.06c-9.13,7.37-18.66,15.19-28.67,23.15s-20.3,16.2-31,24.35-21.41,16.56-32.4,24.68l-16.39,12.23q-8.31,6-16.5,11.89c-10.82,7.94-21.86,15.41-32.42,22.71s-21.14,14-31,20.47l-7.31,4.75-7.3,4.42-13.84,8.36c-8.7,5.47-17.38,9.84-24.74,13.95l-10.4,5.67-9.23,4.39-17.47,8.23a17.93,17.93,0,0,1-18.17-30.72l1.24-.89,14.24-10.35,7.46-5.42,8.56-7c6.07-5.09,13.06-10.37,20.29-17.08,3.64-3.26,7.43-6.66,11.36-10.16l6-5.34,6-5.77c8.11-7.87,16.81-15.78,25.42-24.67s17.68-17.68,26.55-27.2q6.71-7,13.48-14.18l13.38-14.54c9-9.65,17.75-19.52,26.37-29.25s17-19.42,25.13-28.73,15.79-18.56,23.15-27.19l20.43-24.6c12.56-15.3,22.92-28.13,30-37.12l11-14.05.25-.31a58.12,58.12,0,0,1,91.41,71.79A62.21,62.21,0,0,1,1513.27,1713.68Z" transform="translate(1340 40)"/><path d="M2059.64,1744.35q.24-7.47.45-14.57c0-.24,0-.48,0-.71,0-.08,0-.16,0-.23a1.7,1.7,0,0,0,0-.22c0-.11,0-.23,0-.35.08-1.72.11-3.44.12-5.17h0v0c0,2.51-.12,5-.28,7.51,0,.19,0,.39,0,.59s0,.63-.07.94c0,.54-.1,1.08-.14,1.62-.15,1.64-.31,3.29-.52,4.93l-.09.76c-.13.93-.28,1.86-.43,2.79-.25,1.63-.52,3.25-.84,4.87-.21,1.1-.45,2.19-.69,3.29-.35,1.58-.73,3.16-1.14,4.73-.28,1.1-.58,2.2-.89,3.29-.46,1.59-1,3.17-1.48,4.76-.34,1-.68,2.12-1.06,3.17v0c-.59,1.67-1.24,3.33-1.9,5-.38,1-.74,1.92-1.14,2.87-.86,2-1.79,4.07-2.76,6.1-.14.3-.27.61-.42.91-.27.56-.55,1.11-.83,1.67-1,2.08-2.12,4.16-3.27,6.22-.1.17-.18.34-.28.51s-.26.47-.4.7c-1,1.76-2,3.51-3.11,5.25l-.7,1.15c-.15.23-.31.46-.45.7-1.11,1.74-2.25,3.47-3.44,5.2l-.47.69c-.34.48-.68,1-1,1.45q-1.64,2.31-3.36,4.59c-.48.65-1,1.28-1.45,1.93q-2.13,2.72-4.38,5.42c-.46.56-.93,1.11-1.4,1.65-1.43,1.68-2.9,3.36-4.42,5-.44.49-.89,1-1.35,1.48q-2.62,2.83-5.4,5.63l-1.39,1.37c-1.62,1.59-3.26,3.17-5,4.74-.27.26-.55.53-.83.78-.68.62-1.33,1.25-2,1.86-1.08,1-2.18,1.93-3.29,2.9l-1.79,1.57c-1.45,1.24-2.94,2.46-4.43,3.68l-.88.73c-1.81,1.47-3.66,2.92-5.53,4.36-.49.38-1,.74-1.48,1.11-1.41,1.06-2.82,2.13-4.25,3.18l-2.15,1.52c-1.26.9-2.51,1.81-3.8,2.7-.81.56-1.64,1.1-2.45,1.66l-3.71,2.49-2.65,1.71-3.72,2.37-2.82,1.73c-3.7,2.26-7.47,4.5-11.38,6.68-27.56,15.47-58.22,28-90.78,37.52-1.25.37-2.51.7-3.76,1.06-3.86,1.1-7.72,2.17-11.62,3.18-1.87.49-3.74.94-5.61,1.41-3.36.83-6.73,1.65-10.11,2.42-2,.47-4,.91-6.06,1.36q-5,1.08-10.12,2.09-3,.6-5.95,1.17-5.57,1-11.19,2c-1.64.28-3.28.57-4.93.84q-7.34,1.15-14.74,2.14c-1.42.2-2.85.37-4.28.55q-6.2.78-12.43,1.45l-2,.21c-1.55.16-3.12.3-4.68.44-3.67.36-7.36.69-11,1q-3.1.24-6.23.45-5.29.34-10.61.63c-2.08.1-4.16.21-6.24.29-3.73.15-7.48.26-11.22.35-1.83,0-3.65.11-5.49.14q-7.26.11-14.53,0l-4.48,0c-3.8,0-7.59-.16-11.39-.28-2.74-.08-5.49-.19-8.24-.31-3.11-.14-6.24-.3-9.35-.49-2.74-.16-5.48-.33-8.21-.53q-4.68-.33-9.34-.74-4.07-.36-8.13-.76c-3.11-.3-6.21-.65-9.31-1-2.69-.31-5.38-.62-8.06-1-3.09-.4-6.17-.83-9.25-1.27q-4-.57-8-1.18c-3.07-.49-6.13-1-9.19-1.54-2.54-.44-5.09-.88-7.63-1.35l-.82-.16c-2.84-.54-5.68-1.11-8.51-1.68-2.16-.44-4.33-.89-6.48-1.35l-1.81-.4-.83-.18q-3.82-.86-7.61-1.75c-1.91-.45-3.81-.9-5.71-1.37l-2.92-.72c-2.64-.67-5.26-1.37-7.88-2.08-2-.52-3.92-1-5.87-1.59l-1.83-.51c-2.87-.81-5.7-1.68-8.53-2.54-2.13-.65-4.28-1.29-6.4-2-.31-.11-.63-.2-.94-.3l-.21-.07c-2.82-.9-5.59-1.86-8.37-2.81-2-.67-4-1.32-5.9-2-1.21-.43-2.41-.88-3.62-1.32q-3.06-1.14-6.09-2.29c-1.55-.59-3.12-1.17-4.66-1.78l-4.35-1.75c-2.06-.84-4.1-1.7-6.13-2.56l-.17-.07c-1.15-.48-2.31-1-3.45-1.46s-2.24-1-3.36-1.48l-1.58-.7c-2.2-1-4.37-2-6.54-3l-.14-.07-2.28-1.06c-.77-.37-1.54-.73-2.3-1.11l-2.57-1.24c-2.72-1.35-5.4-2.74-8.07-4.14l-1-.54-1.28-.67-1.45-.76c-.63-.35-1.28-.68-1.91-1-4.16-2.27-8.28-4.59-12.3-7-70.69-42.27-105.81-96.86-105.66-151.31.34,42,1.78,75.76,3.58,102.39.13,2.15.27,4.26.4,6.33.59,8.86,1.48,18.94,2.56,29.21,2.1,21,4.17,34.42,5.29,41.7.4,2.56.82,5.24,1.26,7.95l.15,1c4,24.63,9.46,54.51,15.08,77.24.58,2.35,1.19,4.79,1.82,7.28,9.28,37.86,18.17,63.17,24,77.62,4.38,10.95,9.46,23.66,15.6,37.56,1,2.42,2,4.79,2.9,7.06l2.7,5.3c16.12,34.63,38.75,75,72.5,113.42a336.53,336.53,0,0,0,28.16,29.11c15.43,13.82,24.86,22.06,39.51,32.13a.63.63,0,0,1,.12.1l.2.12c5.51,3.78,11.75,7.83,19.34,12.53a272,272,0,0,0,50.91,24.34l.14.06c3.54,1.38,8.53,3,14,4.63h.06c4.19,1.25,8.64,2.47,12.89,3.54l.12,0h.05c4.49,1.13,8.75,2.08,12.24,2.7h0l.09,0h0c3.45.66,8,1.36,11.42,1.95l.56.07c3.67.56,7.29,1,10.61,1.3h.07c.84.08,1.75.16,2.7.23,2.72.25,5.73.53,8.16.61,3.22.1,7.51.31,10.74.34h0c3.21.08,7.51-.09,10.74-.13.51,0,8.18-.15,19.46-1.46l2.46-.28h.1l.25,0,.74-.1,3.56-.49c1.53-.22,3.07-.46,4.61-.71l2.07-.34.14,0,.5-.09,2.48-.45c.73-.13,1.46-.27,2.18-.42,2.38-.45,4.8-.95,7.27-1.52s5.34-1.26,8.14-2l.12,0c1.37-.36,2.69-.7,3.93-1.05l.3-.07.33-.1.5-.13c.78-.22,1.64-.48,2.49-.74l.73-.22.82-.24c2.82-.85,5.58-1.72,8.29-2.63l1.43-.45c4.93-1.56,11.38-4,16.13-6.05a292.83,292.83,0,0,0,32.3-15.65l.51-.27c6.59-3.53,15-8.93,21.25-13,1.64-1.08,3.34-2.24,5.08-3.45a319.24,319.24,0,0,0,29.83-23.15.34.34,0,0,1,.09-.08q6.7-5.89,12.76-11.75c3.79-3.59,7.62-7.32,10.93-10.72l.09-.09,1.49-1.54.15-.16s0,0,0,0c8.8-9.11,12.72-13.28,20.19-22.78l1.62-1.86c.49-.55,1-1.22,1.69-2l1.73-2.11.24-.31c.64-.79,1.32-1.65,2-2.56.15-.19.3-.37.45-.57.57-.73,1.16-1.49,1.77-2.29l1.4-1.84c.3-.38.59-.77.89-1.17a517.71,517.71,0,0,0,41-64.08q2-3.63,3.84-7.32l0,0,.12-.23a.64.64,0,0,1-.08.14c6.31-12.29,14.45-28.8,19.63-41.58.4-1,.8-2,1.21-3,9.49-22.36,15.92-40.79,19.64-52.28,0-.17.11-.34.16-.51.16-.48.3-.93.45-1.39q1.25-3.87,2.33-7.56c.41-1.39.7-2.39.85-2.92s.39-1.39.59-2.08c.35-1.13.7-2.24,1-3.29l-.8,2.45c.08-.28.16-.56.24-.86,3.49-11.31,6.18-20.76,8.69-30.81,2-7.58,3.92-15,5.3-21.63.07-.31.13-.62.2-.93,5.41-23.27,8.65-42.26,11.84-60.9a871.53,871.53,0,0,0,10.83-97.62c.39-4.36.76-8.59,1.14-12.65l.48-15.25c0,.15,0,.28,0,.42C2058.72,1773.91,2059.19,1758.64,2059.64,1744.35Z" transform="translate(1340 40)" style="fill:url(#linear-gradient-66)"/><path d="M2058.31,1787.43c1.3-24.06,1.67-44.88,1.94-61.08Z" transform="translate(1340 40)" style="fill:#f1f1f2"/><path d="M1426.54,1566.45c147.9-83,384.34-80.6,528.1,5.34s140.41,222.89-7.5,305.87-384.33,80.61-528.1-5.33S1278.64,1649.44,1426.54,1566.45Zm260,155.41c-.19.1-.2.28,0,.39a.73.73,0,0,0,.69,0c.19-.11.2-.29,0-.4a.76.76,0,0,0-.69,0" transform="translate(1340 40)" style="fill:url(#linear-gradient-67)"/><path d="M1753.22,2258V2012.34c-164,13-268.42-22.07-331.73-60.2-44-27.16-70-56.21-84.94-78.31-.16-.27-.24-.43-.24-.43v.07c-14.3-21.27-18.35-36-18.4-36.18.54,6.86,1.22,14.2,2,21.66,2.11,21,4.18,34.42,5.3,41.7.4,2.56.82,5.24,1.25,7.95.06.32.1.64.16,1,4,24.63,9.46,54.51,15.07,77.24.58,2.35,1.2,4.79,1.83,7.28,9.27,37.86,18.17,63.17,24,77.62,4.37,10.95,9.46,23.66,15.59,37.56,1,2.42,2,4.79,2.91,7.06l2.7,5.3a500.42,500.42,0,0,0,46.8,81C1582,2280.9,1753.22,2258,1753.22,2258Z" transform="translate(1340 40)"/><path d="M1685.77,1723.44a2.13,2.13,0,0,0,1.07.28h0a2.1,2.1,0,0,0,1-.25,1.61,1.61,0,0,0,.86-1.38l-.12-1-.69-.41a2.16,2.16,0,0,0-2.08,0,1.62,1.62,0,0,0-.85,1.39l.14,1Zm.9-1.27.5.89a.92.92,0,0,1-.69,0,1.19,1.19,0,0,1-.53-1Z" transform="translate(1340 40)"/><path d="M1337.69,1878.07c18.06,26.9,45.24,51.53,80.65,72.7,73.6,44,171.69,66.13,269.78,66.13,21.33,0,42.65-1.11,63.72-3.2v243c-109.49,11-225.87-6.54-313.64-52.36a1.38,1.38,0,0,0-1.28,2.44c71.24,37.2,161.2,55.85,251.15,55.85,21.34,0,42.68-1.07,63.77-3.17v80a1.38,1.38,0,0,0,2.76,0v-80.28c54.47-5.67,107.15-18.4,153.74-38.17v16.28a1.38,1.38,0,1,0,2.76,0v-17.49c7.29-3.15,14.46-6.42,21.42-9.92a1.38,1.38,0,1,0-1.24-2.46c-6.56,3.3-13.32,6.39-20.18,9.37v-73.37c50.75-31.32,91.38-102.9,91.21-161.71-.06-21.49-5.75-39-15.75-51,36.24-27.8,60.21-60.17,70.12-95.16a1.38,1.38,0,0,0-.95-1.71,1.39,1.39,0,0,0-1.71,1c-9.75,34.46-33.45,66.37-69.28,93.84-9.22-9.9-21.66-15.44-36.48-15.44-11.72,0-24.2,3.35-37.16,9.93v-26.23a396.23,396.23,0,0,0,36.72-18.05c72.61-40.74,113-95.57,113.85-154.38.79-57.77-37-112.43-106.32-153.88-71.47-42.73-167.27-66.25-269.77-66.25-97.5,0-189.74,21.62-259.71,60.89-72.62,40.74-113,95.57-113.86,154.37-.36,26.7,7.52,52.72,22.92,77.09v71.83a146.54,146.54,0,0,1-16.19-38.49,1.38,1.38,0,0,0-2.67.68,150.91,150.91,0,0,0,18.86,43.1Zm610.57,39.2c13.6,0,24.93,4.86,33.35,13.71a327.71,327.71,0,0,1-35.14,22.74c-11.28,6.32-23.13,12.09-35.37,17.43v-43.43C1924.15,1920.81,1936.63,1917.27,1948.26,1917.27Zm-103.73,77c16.48-27,38.49-50.42,62.66-64.38l1.15-.62v43.11A476,476,0,0,1,1844.53,1994.23Zm63.81-18.88v165c-.85.52-1.7,1.06-2.56,1.56-14.48,8.36-28.31,12.59-41.09,12.59-30.73,0-49.88-24.71-50-64.48-.08-29.85,10.58-63,27.78-92.38A480.7,480.7,0,0,0,1908.34,1975.35Zm0-50.72c-1,.57-2.1,1.11-3.17,1.72-25.77,14.89-49.12,40.28-66.18,69.4a583.89,583.89,0,0,1-84.39,15v-74.42c55.63-5.77,108-18.75,153.74-38.16Zm-481.12-357c69.57-39,161.32-60.53,258.36-60.53,102,0,197.31,23.38,268.35,65.85,68.48,40.94,105.76,94.73,105,151.48-.8,57.79-40.73,111.77-112.44,152-53.6,30.08-120.4,49.69-192.61,57.14a1.35,1.35,0,0,0-.64-.17,1.4,1.4,0,0,0-.84.31,641.51,641.51,0,0,1-64.28,3.26c-102,0-197.31-23.39-268.35-65.85-36.69-21.94-64.41-47.57-82.14-75.36a1.28,1.28,0,0,0-.38-.62c-15.1-23.9-22.82-49.39-22.46-75.51C1315.56,1661.88,1355.5,1607.9,1427.22,1567.65Zm-7.47,380.75c-36.59-21.88-64.29-47.45-82.06-75.38v-72.09c18,26.74,45.19,51.39,80.65,72.58,71.46,42.72,167.26,66.25,269.76,66.25,21.57,0,42.87-1.12,63.74-3.2V2011C1634.37,2022.74,1509,2001.74,1419.75,1948.4ZM1908.34,2218c-46.53,19.9-99.23,32.69-153.74,38.4v-243a590,590,0,0,0,82.53-14.45c-16.45,29.15-26.56,61.71-26.48,91.08.12,42.26,20.83,68.52,54,68.52,13.5,0,28-4.42,43.11-13.14l.54-.33Zm89.93-236.28c.16,56.74-38.48,125.63-87.17,156.93V1974.15a398.36,398.36,0,0,0,36.72-18,329,329,0,0,0,35.61-23.06C1992.88,1944.24,1998.21,1960.9,1998.27,1981.75Z" transform="translate(1340 40)" style="fill:url(#New_Gradient_Swatch_4)"/><path d="M2064.33,1407c0-.23,0-.48,0-.72,0-.47-.05-.94-.07-1.41s-.05-1.17-.08-1.76-.08-.88-.11-1.32-.08-1.07-.13-1.61c0-.33,0-.66-.08-1-.07-.75-.17-1.51-.25-2.27,0-.4-.08-.81-.14-1.21,0-.15,0-.31,0-.46-.18-1.35-.37-2.7-.58-4,0,0,0-.07,0-.11s-.06-.32-.08-.48c-.19-1.16-.39-2.32-.61-3.48,0-.2-.08-.39-.11-.58-.11-.56-.23-1.11-.34-1.67s-.26-1.3-.4-2c-.08-.38-.18-.76-.26-1.13-.13-.57-.26-1.14-.4-1.71s-.21-.92-.32-1.38-.3-1.11-.44-1.67l-.45-1.73c-.08-.29-.15-.59-.23-.88-.21-.75-.44-1.5-.66-2.25-.16-.54-.31-1.09-.48-1.63l-.11-.38c-.43-1.39-.87-2.78-1.34-4.16a.25.25,0,0,0,0-.07l-.09-.28c-.42-1.25-.86-2.51-1.31-3.76l-.24-.62c-.15-.42-.31-.84-.47-1.25-.26-.69-.51-1.38-.78-2.07-.16-.44-.35-.87-.52-1.3l-.6-1.5-.45-1.12-.94-2.19c-.18-.41-.35-.83-.53-1.25-.07-.13-.12-.26-.18-.4-.58-1.3-1.16-2.6-1.77-3.89l-.09-.19c-.15-.33-.32-.65-.48-1-.49-1-1-2.06-1.49-3.08l-.24-.46c-.41-.82-.83-1.63-1.25-2.44-.34-.64-.66-1.29-1-1.94-.07-.12-.14-.23-.2-.35-1.13-2.1-2.31-4.19-3.51-6.25-.09-.16-.17-.32-.27-.47s-.22-.35-.32-.52q-2.58-4.37-5.38-8.57c-.1-.14-.18-.3-.28-.44s-.34-.49-.51-.74c-1.48-2.19-3-4.36-4.56-6.48,0,0,0,0,0-.05l-.22-.27c-1.06-1.44-2.15-2.87-3.24-4.27a1.83,1.83,0,0,1-.13-.16c-.66-.85-1.34-1.67-2-2.49-.41-.5-.81-1-1.22-1.49q-1.47-1.79-3-3.51l-.18-.2-.87-1c-.69-.77-1.38-1.54-2.08-2.3-.13-.13-.25-.25-.37-.39l-1.52-1.59c-.47-.49-.93-1-1.41-1.47-.17-.18-.35-.34-.52-.52-.55-.56-1.12-1.11-1.68-1.66-.4-.39-.79-.79-1.2-1.18-.23-.23-.47-.44-.71-.66-.56-.54-1.14-1.07-1.71-1.59-.38-.35-.74-.71-1.12-1.05l-.9-.78c-.58-.52-1.16-1-1.75-1.53-.31-.27-.62-.55-.94-.81s-.67-.54-1-.82l-1.82-1.49-.77-.62-1.3-1-1.65-1.25c-.2-.15-.39-.31-.59-.45-.6-.44-1.21-.86-1.82-1.29l-1.37-1-.31-.22c-1.14-.78-2.28-1.54-3.43-2.27h0l-.42-.26c-1-.63-2-1.24-3-1.83l-.79-.46-327.8-189.25-2.56-1.44-1-.49c-.44-.24-.89-.47-1.33-.69l-1-.53-1.59-.75-1.21-.57-.46-.21c-1.08-.49-2.16-.94-3.23-1.37s-2.17-.85-3.25-1.23l-.42-.13c-.38-.14-.76-.25-1.14-.38-.56-.18-1.12-.38-1.66-.54-.29-.09-.56-.15-.84-.23l-1.38-.38c-.37-.1-.74-.22-1.12-.31s-.76-.17-1.14-.26l-1.43-.31c-.24,0-.49-.12-.73-.16-.43-.09-.85-.14-1.28-.21l-1.69-.29c-.19,0-.37-.06-.56-.09-.44-.06-.86-.08-1.3-.13-.6-.07-1.19-.14-1.79-.18l-.5-.05c-.38,0-.75,0-1.12,0-.71,0-1.42-.07-2.11-.07l-.55,0c-.29,0-.56,0-.84,0-.87,0-1.74.06-2.59.13-.25,0-.51,0-.75,0l-.55.08c-1.28.13-2.54.31-3.78.55l-.32,0-.08,0c-.26,0-.51.12-.77.18-.75.17-1.51.34-2.25.55-.37.1-.73.23-1.1.34s-1,.29-1.43.45l-.36.15c-.72.26-1.42.56-2.12.86-.34.15-.69.28-1,.44-1,.48-2,1-3,1.57l-272.24,158.21c1-.57,2-1.08,3-1.57.34-.16.7-.29,1-.44.7-.3,1.4-.6,2.12-.86s1.21-.42,1.82-.61c.35-.11.69-.23,1-.32.77-.22,1.54-.4,2.32-.57.25-.06.48-.13.73-.18l.39-.06c1.24-.24,2.5-.42,3.79-.55l1.31-.12c.83-.06,1.66-.1,2.51-.12l1.5,0c.67,0,1.35,0,2,.07l1.66.09,1.8.18c.61.07,1.23.14,1.85.23s1.09.17,1.63.27c.7.12,1.41.24,2.11.39l1.38.3c.75.18,1.5.36,2.25.56l1.42.39c.81.24,1.62.49,2.43.76l1.21.39c2.41.83,4.85,1.82,7.34,2.94l1.24.59,2.52,1.23,1.43.74c1.16.61,2.31,1.24,3.48,1.91l327.79,189.25c1.35.78,2.69,1.6,4,2.44l.14.09q1.9,1.2,3.78,2.51c.47.32.94.67,1.41,1,.79.56,1.59,1.13,2.37,1.71.54.4,1.07.82,1.6,1.23q1.11.84,2.19,1.71c.55.43,1.08.88,1.62,1.32l2.16,1.82,1.65,1.44c.68.6,1.35,1.21,2,1.83l1.69,1.57,2.06,2c.49.48,1,1,1.46,1.45l2.15,2.2c.46.5.94,1,1.41,1.49.77.83,1.53,1.67,2.29,2.51.34.39.69.77,1,1.15,2.23,2.55,4.42,5.17,6.53,7.87q1.47,1.88,2.9,3.81l.61.81c1.53,2.08,3,4.2,4.46,6.35.29.43.58.85.86,1.28,1.84,2.76,3.59,5.57,5.29,8.42.23.4.47.79.71,1.18,1.19,2,2.35,4.11,3.46,6.19.42.77.82,1.55,1.23,2.33l1.19,2.32c.61,1.2,1.19,2.41,1.77,3.62.15.33.32.65.47,1,.7,1.47,1.37,3,2,4.45.18.4.35.8.52,1.21.5,1.14,1,2.29,1.45,3.44.19.46.37.93.56,1.4.44,1.11.87,2.22,1.28,3.33.17.44.34.89.5,1.33q1.71,4.65,3.13,9.32c.14.48.27,1,.41,1.43.32,1.09.63,2.16.93,3.24.16.59.31,1.19.47,1.78.25,1,.5,2,.74,3,.14.59.28,1.18.41,1.76.24,1,.46,2.1.67,3.14.11.51.21,1,.31,1.51.27,1.42.52,2.83.75,4.24l.06.37c.25,1.55.46,3.1.66,4.64,0,.37.07.73.11,1.09.14,1.16.26,2.31.35,3.45,0,.5.08,1,.12,1.49.08,1,.14,2.08.19,3.12,0,.47,0,.94.07,1.42,0,1.45.09,2.91.08,4.35l-.54,192.08c0,1.51,0,3-.11,4.43,0,.39,0,.77-.07,1.15-.06,1-.13,2-.22,3,0,.54-.11,1.06-.16,1.59-.09.84-.2,1.69-.31,2.51-.08.59-.17,1.16-.26,1.74s-.23,1.46-.37,2.17-.26,1.33-.4,2-.27,1.23-.42,1.84c-.19.78-.39,1.54-.6,2.3-.15.54-.3,1.08-.47,1.61-.26.88-.56,1.74-.85,2.58-.17.46-.32.92-.49,1.38-.54,1.4-1.1,2.76-1.72,4.07a51,51,0,0,1-3.17,5.75,43.4,43.4,0,0,1-2.64,3.67c-.21.27-.43.54-.65.8a41.3,41.3,0,0,1-2.8,3.08c-.07.06-.13.14-.19.2a40.87,40.87,0,0,1-3.25,2.81l-.82.62a38.2,38.2,0,0,1-3.54,2.36l272.25-158.21a37.5,37.5,0,0,0,3.53-2.37l.83-.62a37.11,37.11,0,0,0,3.23-2.79l.23-.24c1-1,1.88-2,2.76-3l.68-.84c.92-1.16,1.79-2.36,2.61-3.63l.08-.11c.55-.87,1.08-1.76,1.59-2.68h0c.51-.92,1-1.86,1.45-2.83l.06-.14c.62-1.3,1.18-2.66,1.72-4.05.05-.13.11-.25.16-.39.13-.35.23-.72.35-1.08.29-.81.57-1.63.82-2.47.08-.24.17-.46.23-.69s.18-.68.27-1c.2-.72.39-1.45.57-2.18.08-.31.17-.6.24-.91s.13-.7.21-1c.13-.62.26-1.25.37-1.89.07-.34.15-.66.21-1s.12-.84.19-1.25.16-1.09.24-1.65c.05-.32.1-.63.14-1,.07-.52.11-1.06.17-1.59s.12-1.09.16-1.64c0-.22.05-.43.07-.65.06-.75.1-1.52.14-2.28,0-.41.06-.8.08-1.21,0-.11,0-.21,0-.32.06-1.27.08-2.57.09-3.89v-.23l.55-192.08C2064.38,1409.45,2064.36,1408.24,2064.33,1407Z" transform="translate(1340 40)" style="fill:url(#linear-gradient-68)"/><path d="M1711.8,1429.75c44.52,25.7,80.48,88,80.33,139.12l-.54,192.08c-.15,51.15-36.34,71.77-80.85,46.07l-327.8-189.25c-44.52-25.7-80.47-88-80.33-139.14l.55-192.07c.14-51.13,36.33-71.76,80.85-46.06Z" transform="translate(1340 40)" style="fill:url(#linear-gradient-69)"/><path d="M1725.57,1542.48l-361.42-208.67c-15.33-8.85-27.79-1.75-27.84,15.84l-.31,113c-.06,17.61,12.32,39.06,27.65,47.9l361.42,208.67c15.31,8.84,27.79,1.75,27.84-15.86l.31-113c0-17.59-12.34-39-27.65-47.88" transform="translate(1340 40)"/><polyline points="2827.22 1566.97 2805.27 1554.29 2805.25 1563.06 2827.2 1575.73 2827.22 1566.97" style="fill:url(#New_Gradient_Swatch_4-2)"/><polyline points="2827.19 1579.03 2805.24 1566.36 2805.22 1575.14 2827.16 1587.82 2827.19 1579.03" style="fill:url(#New_Gradient_Swatch_4-3)"/><polyline points="2827.16 1591.09 2805.2 1578.42 2805.18 1587.21 2827.13 1599.88 2827.16 1591.09" style="fill:url(#New_Gradient_Swatch_4-4)"/><polyline points="2827.12 1603.16 2805.17 1590.48 2805.14 1599.27 2827.09 1611.94 2827.12 1603.16" style="fill:url(#New_Gradient_Swatch_4-5)"/><polyline points="2855.83 1595.57 2833.88 1582.9 2833.86 1591.68 2855.81 1604.36 2855.83 1595.57" style="fill:url(#New_Gradient_Swatch_4-6)"/><polyline points="2855.8 1607.63 2833.84 1594.96 2833.82 1603.75 2855.77 1616.41 2855.8 1607.63" style="fill:url(#New_Gradient_Swatch_4-7)"/><polyline points="2855.76 1619.7 2833.82 1607.02 2833.79 1615.81 2855.74 1628.48 2855.76 1619.7" style="fill:url(#New_Gradient_Swatch_4-8)"/><polyline points="2884.44 1624.17 2862.49 1611.5 2862.47 1620.28 2884.41 1632.95 2884.44 1624.17" style="fill:url(#New_Gradient_Swatch_4-9)"/><polyline points="2884.4 1636.23 2862.46 1623.56 2862.43 1632.34 2884.38 1645.02 2884.4 1636.23" style="fill:url(#New_Gradient_Swatch_4-10)"/><polyline points="2913.11 1628.64 2891.17 1615.97 2891.14 1624.76 2913.09 1637.43 2913.11 1628.64" style="fill:url(#New_Gradient_Swatch_4-11)"/><polyline points="2913.08 1640.7 2891.14 1628.03 2891.11 1636.82 2913.06 1649.49 2913.08 1640.7" style="fill:url(#New_Gradient_Swatch_4-12)"/><polyline points="2913.05 1652.77 2891.1 1640.1 2891.08 1648.88 2913.02 1661.55 2913.05 1652.77" style="fill:url(#New_Gradient_Swatch_4-13)"/><polyline points="2941.8 1633.12 2919.85 1620.44 2919.82 1629.21 2941.77 1641.88 2941.8 1633.12" style="fill:url(#New_Gradient_Swatch_4-14)"/><polyline points="2941.76 1645.18 2919.81 1632.51 2919.79 1641.29 2941.74 1653.96 2941.76 1645.18" style="fill:url(#New_Gradient_Swatch_4-15)"/><polyline points="2941.73 1657.24 2919.78 1644.57 2919.75 1653.36 2941.7 1666.03 2941.73 1657.24" style="fill:url(#New_Gradient_Swatch_4-16)"/><polyline points="2941.7 1669.31 2919.74 1656.63 2919.72 1665.42 2941.67 1678.09 2941.7 1669.31" style="fill:url(#New_Gradient_Swatch_4-17)"/><path d="M1690.18,1600.26c3,25.21-5.75,47-19.49,48.58s-27.28-17.51-30.26-42.71,5.75-47,19.49-48.57S1687.21,1575.05,1690.18,1600.26Z" transform="translate(1340 40)" style="fill:url(#New_Gradient_Swatch_4-18)"/><path d="M1425.35,1446.35c3,25.21-5.75,47-19.49,48.58s-27.28-17.5-30.26-42.71,5.75-47,19.49-48.57S1422.38,1421.15,1425.35,1446.35Z" transform="translate(1340 40)" style="fill:url(#New_Gradient_Swatch_4-19)"/><path d="M1976.87,2027.28s.16.59.46,1.73l.71,2.66c.2.83.42,1.81.68,2.91,1,4.34,2.28,10.39,3.53,17.88s2.55,16.51,3.67,26.76,1.93,21.77,2.45,34.29c.35,12.52.56,26-.15,40.28-.18,7.12-.85,14.42-1.35,21.86-.31,3.72-.75,7.48-1.13,11.26s-.77,7.59-1.35,11.43-1.08,7.69-1.63,11.57-1.33,7.78-2,11.69c-1.28,7.83-3.09,15.69-4.81,23.58-.8,4-1.93,7.88-2.94,11.82s-2,7.88-3.13,11.81-2.39,7.81-3.59,11.72-2.39,7.82-3.82,11.66c-2.74,7.7-5.37,15.41-8.57,22.89q-2.31,5.63-4.59,11.22l-5,10.94c-1.72,3.61-3.29,7.25-5.1,10.77s-3.66,7-5.47,10.43c-3.5,7-7.48,13.56-11.33,20-2,3.22-3.72,6.51-5.8,9.58l-6.06,9.15-5.93,8.91c-2.1,2.83-4.16,5.64-6.2,8.4-7.92,11.19-16.41,20.94-23.92,30.1L1863,2457.17l-5.3,5.79-5.28,5.21-9.54,9.37c-1.47,1.45-2.89,2.83-4.24,4.15l-4,3.58-16,14.19a17.95,17.95,0,0,1-25.85-24.72l.65-.8,12.51-15.48,3.13-3.87,3.22-4.42c2.23-3.07,4.63-6.39,7.21-9.93,1.27-1.77,2.6-3.6,4-5.47s2.55-3.95,3.88-6l8.34-12.87c5.29-9.3,11.34-19.09,16.59-30l4.17-8.19q1.89-4.24,3.82-8.59t3.89-8.75c1.35-2.91,2.37-6,3.59-9.06,2.34-6.11,4.8-12.25,6.75-18.68q1.56-4.77,3.15-9.59c1-3.21,1.82-6.52,2.75-9.8s1.79-6.55,2.69-9.85q1.13-5,2.24-10c1.64-6.64,2.71-13.45,3.91-20.19.65-3.35,1.1-6.75,1.52-10.15s.89-6.76,1.33-10.13.61-6.78.92-10.14.68-6.7.77-10.06c.3-6.71.73-13.31.66-19.88,0-3.28.12-6.52,0-9.75s-.19-6.43-.28-9.6-.26-6.31-.47-9.42-.36-6.18-.61-9.22c-.65-6.08-1.06-12-1.91-17.73-1.34-11.49-3.37-22.23-5.3-32-2.09-9.79-4.25-18.66-6.45-26.36s-4.27-14.27-6.14-19.46-3.38-9.1-4.39-11.47c-.25-.58-.47-1.09-.67-1.53s-.24-.4-.32-.57l-.11-.17-.16-.38-.14-.31a58,58,0,1,1,109.25-38.28Z" transform="translate(1340 40)"/><g id="Camada_1-2" data-name="Camada 1-2"><path d="M1479.56,2021.75a4.69,4.69,0,0,1,1.29-2.84,3.56,3.56,0,0,1,3.19-.72l13.54,2a2.56,2.56,0,0,1,1.13.46,4.43,4.43,0,0,1,1.06,1,4.88,4.88,0,0,1,.7,1.43,3.9,3.9,0,0,1,.13,1.73l-11.09,79.85a3.83,3.83,0,0,1-1.58,2.86,4.48,4.48,0,0,1-3.17.59l-12.68-1.85a3.83,3.83,0,0,1-2.85-1.47,4.56,4.56,0,0,1-.46-3.15Z" transform="translate(1340 40)" style="fill:url(#Gradiente_sem_nome_3)"/><path d="M1574,2117.08a4.48,4.48,0,0,1-.6,1.66,2.66,2.66,0,0,1-1.29,1.14,2.88,2.88,0,0,1-1.53.53,8.79,8.79,0,0,1-1.45,0l-10.77-1.57a5.18,5.18,0,0,1-1.81-.57,2.8,2.8,0,0,1-1-1,4.35,4.35,0,0,1-.55-1.4l-.33-1.72-.35-2.48a34.84,34.84,0,0,1-3.79,2.31,26.63,26.63,0,0,1-9.64,2.86,21.38,21.38,0,0,1-5.48-.13,37.23,37.23,0,0,1-9.34-2.59,36,36,0,0,1-14.43-11.12,34.76,34.76,0,0,1-4.54-7.82,33.47,33.47,0,0,1-2.41-8.86,35.25,35.25,0,0,1,.07-9.57,34.76,34.76,0,0,1,14-23.45,36.56,36.56,0,0,1,26.83-6.54,25.66,25.66,0,0,1,6.28,1.67,24.74,24.74,0,0,1,5.11,2.83,21.52,21.52,0,0,1,4,3.77,22.84,22.84,0,0,1,2.93,4.41l2.34-4.67c.5-.84.92-1.52,1.25-2a3.81,3.81,0,0,1,1-1.12,1.91,1.91,0,0,1,1.1-.39,7.8,7.8,0,0,1,1.74.11l8.22,1.18a8.46,8.46,0,0,1,1.42.37,2.77,2.77,0,0,1,1.32,1,3.49,3.49,0,0,1,.9,1.51,4.38,4.38,0,0,1,.07,1.73Zm-49.57-37.52a18.81,18.81,0,0,0,.21,6.73,15.65,15.65,0,0,0,2.4,5.75,15.41,15.41,0,0,0,4.51,4.26,16.19,16.19,0,0,0,6.29,2.23,17.83,17.83,0,0,0,13-3,16.33,16.33,0,0,0,4.44-4.75,17.1,17.1,0,0,0,2-13.08,17.29,17.29,0,0,0-2.84-6,17.57,17.57,0,0,0-5-4.52,17.26,17.26,0,0,0-6.66-2.36,15.32,15.32,0,0,0-12.31,3.42,16.82,16.82,0,0,0-4,5A18.85,18.85,0,0,0,1524.38,2079.56Z" transform="translate(1340 40)" style="fill:url(#Gradiente_sem_nome_3-2)"/><path d="M1576.21,2120.18c-4.37,30.39-33.36,51.29-64.73,47s-53.65-32.19-49.91-62.57l.06-.45,1.85-13.09a2.15,2.15,0,0,0-.59-1.86,2.82,2.82,0,0,0-1.63-.92l-14.87-2.17a2.48,2.48,0,0,0-2,.38,2.42,2.42,0,0,0-.84,1.65l-1.71,13.12,0,.15c-5.09,40.78,24.79,78.27,66.76,84.27s81.24-21.77,87.45-62.58Z" transform="translate(1340 40)" style="fill:url(#Gradiente_sem_nome_3-3)"/></g><path d="M1754.11,2258V2012.34c-133.34,10.54-227.26-10.63-291.75-39.41,2.9,73.25,16.67,182.32,67.63,266.75C1647.16,2272.28,1754.11,2258,1754.11,2258Z" transform="translate(1340 40)" style="opacity:0.5;mix-blend-mode:lighten;fill:url(#New_Gradient_Swatch_copy_8)"/><polygon points="3064.63 2658.74 3027.07 2636.91 3027.03 2623 3064.6 2644.83 3064.63 2658.74" style="fill:url(#linear-gradient-70)"/><path d="M1809.26,2541.14c0-.1,0-.2,0-.3a22.63,22.63,0,0,0,.17-2.7l-.22-79.89c0-4.84-1.73-8.25-4.5-9.85l-37.56-21.84c2.76,1.61,4.47,5,4.49,9.86l.23,79.89a22,22,0,0,1-.18,2.66c0,.24,0,.48-.08.73s-.13.75-.2,1.12-.11.62-.18.93-.11.45-.17.68q-.15.62-.33,1.23c0,.17-.1.35-.16.53-.13.43-.28.87-.43,1.3l-.18.49c-.22.57-.44,1.13-.68,1.69l-.09.18q-.33.78-.72,1.53l-.19.39c-.25.49-.52,1-.8,1.47l-.12.22c-.32.54-.65,1.08-1,1.61-.09.12-.17.25-.26.38-.26.39-.52.77-.79,1.15-.13.19-.27.36-.4.54l-.75,1c-.18.22-.36.45-.55.67s-.41.48-.62.71-.65.7-1,1l-.55.55c-.69.67-1.41,1.3-2.14,1.88l-.41.31a23.7,23.7,0,0,1-2.38,1.61L1687,2583l37.57,21.83,69.53-40.14a22.84,22.84,0,0,0,2.39-1.62l.38-.28q1.13-.9,2.19-1.92c.05-.06.11-.1.16-.15l.3-.33c.37-.36.73-.75,1.08-1.14.1-.12.21-.21.3-.32l.25-.3c.21-.24.41-.49.61-.74l.39-.48c.11-.14.21-.29.32-.44l.39-.52.32-.44c.17-.24.33-.48.49-.73s.18-.26.26-.4l.14-.19c.28-.44.54-.87.8-1.31l.06-.1a1.62,1.62,0,0,1,.1-.18c.18-.33.38-.67.56-1,.08-.14.14-.28.21-.42s.17-.33.26-.5.13-.26.2-.39c.18-.38.35-.75.52-1.14l0-.11,0-.09c.19-.45.38-.91.56-1.38,0-.07,0-.15.09-.23s.13-.37.19-.56.17-.44.24-.66.1-.33.15-.49l.21-.68.12-.4c.06-.22.11-.44.16-.67s.15-.56.21-.84a1.83,1.83,0,0,0,.06-.25c0-.17.06-.34.09-.52.08-.42.16-.85.22-1.27C1809.21,2541.37,1809.24,2541.26,1809.26,2541.14Z" transform="translate(1340 40)" style="fill:url(#linear-gradient-71)"/><path d="M1793.76,2435.55c15.15-8.75,27.52-1.7,27.57,15.71l.23,79.9c0,17.4-12.25,38.69-27.4,47.44l-69.53,40.14,0-13.91,69.53-40.14c8.47-4.89,15.35-16.79,15.32-26.55l-.22-79.89c0-9.74-7-13.69-15.43-8.79l-69.53,40.14,0-13.91Z" transform="translate(1340 40)" style="fill:url(#linear-gradient-72)"/><polygon points="3064.27 2529.6 3026.7 2507.76 3026.66 2493.86 3064.23 2515.69 3064.27 2529.6" style="fill:url(#linear-gradient-73)"/><path d="M1796.88,2434c.48-.21.95-.38,1.42-.56.65-.25,1.29-.47,1.91-.66.4-.12.81-.24,1.21-.34l1.13-.24c.5-.09,1-.17,1.47-.22l.82-.09c.61,0,1.22,0,1.8,0,.12,0,.24,0,.36,0a13.57,13.57,0,0,1,2,.25c.17,0,.33.08.5.12a14.79,14.79,0,0,1,1.52.43l.44.16a15,15,0,0,1,1.81.86l-37.57-21.83-.14-.09a14.78,14.78,0,0,0-1.39-.67l-.26-.1-.48-.16a6.13,6.13,0,0,0-.72-.25,6.63,6.63,0,0,0-.77-.18l-.51-.12-.26-.06a15.23,15.23,0,0,0-1.67-.2H1769c-.43,0-.86,0-1.3,0-.14,0-.29,0-.43,0s-.58.06-.87.09l-.75.07-.64.14c-.39.07-.78.15-1.17.25l-.6.13c-.2.05-.41.15-.61.2-.63.2-1.28.42-1.94.68-.23.09-.45.13-.68.23l-.66.3-.67.31c-.83.39-1.65.81-2.5,1.3l-69.53,40.14,37.57,21.83,69.53-40.14c.86-.5,1.7-.92,2.54-1.32Z" transform="translate(1340 40)" style="fill:url(#linear-gradient-74)"/><polygon points="2415.17 2117.32 2377.61 2095.49 2377.57 2081.58 2415.13 2103.41 2415.17 2117.32" style="fill:url(#linear-gradient-75)"/><path d="M1159.8,1999.72c0-.1,0-.2,0-.31a22.46,22.46,0,0,0,.17-2.69l-.23-79.9c0-4.83-1.73-8.24-4.49-9.85l-37.57-21.83c2.77,1.61,4.48,5,4.5,9.85l.22,79.9a24.21,24.21,0,0,1-.17,2.66c0,.24,0,.48-.08.72s-.13.75-.2,1.12-.11.62-.18.94-.12.45-.17.68c-.1.4-.21.82-.33,1.22,0,.18-.11.36-.16.54-.13.43-.28.86-.44,1.3,0,.16-.11.33-.17.49-.22.57-.44,1.13-.69,1.69a1.42,1.42,0,0,1-.08.18c-.23.51-.47,1-.72,1.53l-.19.38c-.26.5-.52,1-.8,1.48,0,.07-.08.15-.13.22-.31.54-.64,1.08-1,1.6l-.26.39c-.26.39-.52.77-.8,1.15l-.4.54c-.24.32-.49.63-.74,1s-.36.45-.55.66l-.63.72c-.32.36-.64.7-1,1-.17.18-.36.37-.54.54a26.92,26.92,0,0,1-2.15,1.89l-.4.31a22.73,22.73,0,0,1-2.39,1.61l-69.52,40.14,37.56,21.83,69.53-40.14a23,23,0,0,0,2.4-1.62l.38-.29a26,26,0,0,0,2.18-1.92l.17-.14c.1-.1.2-.22.3-.33q.56-.56,1.08-1.14c.09-.12.2-.21.3-.33l.24-.29.62-.75.39-.48.32-.43.39-.52.31-.44c.18-.24.33-.49.5-.73s.18-.26.26-.4a1.43,1.43,0,0,0,.14-.2c.27-.43.54-.86.8-1.3a.33.33,0,0,1,.06-.1,1.51,1.51,0,0,1,.09-.18l.57-1,.21-.42c.09-.17.17-.34.25-.5s.14-.26.2-.39c.18-.38.36-.75.52-1.14l.06-.11a.36.36,0,0,1,0-.09c.19-.45.38-.92.56-1.38l.08-.23c.07-.19.14-.37.2-.56l.24-.66.15-.5c.07-.22.14-.45.2-.67s.09-.26.13-.4.11-.45.16-.67.15-.56.2-.84a1.82,1.82,0,0,0,.07-.25c0-.17,0-.35.08-.52.09-.42.17-.85.23-1.28C1159.75,2000,1159.78,1999.83,1159.8,1999.72Z" transform="translate(1340 40)" style="fill:url(#linear-gradient-76)"/><path d="M1144.3,1894.13c15.15-8.75,27.52-1.7,27.57,15.71l.22,79.89c.05,17.41-12.24,38.7-27.39,47.45l-69.53,40.14,0-13.91,69.53-40.14c8.47-4.89,15.36-16.79,15.33-26.55l-.23-79.9c0-9.73-7-13.68-15.43-8.78l-69.53,40.14,0-13.91Z" transform="translate(1340 40)" style="fill:url(#linear-gradient-77)"/><polygon points="2414.81 1988.17 2377.24 1966.34 2377.2 1952.43 2414.77 1974.27 2414.81 1988.17" style="fill:url(#linear-gradient-78)"/><path d="M1147.42,1892.54c.48-.21.95-.39,1.42-.56.65-.25,1.28-.47,1.91-.66.4-.13.81-.24,1.21-.34l1.13-.24c.49-.1,1-.17,1.46-.22l.83-.09q.91-.06,1.8,0h.35a14.81,14.81,0,0,1,2,.26c.18,0,.34.08.51.12a13.18,13.18,0,0,1,1.52.43l.44.16a12.47,12.47,0,0,1,1.81.86l-37.57-21.83-.15-.09a14.7,14.7,0,0,0-1.38-.68l-.27-.09-.47-.17c-.24-.08-.47-.18-.72-.25s-.52-.12-.77-.18l-.52-.11a2,2,0,0,0-.26-.06,12.76,12.76,0,0,0-1.66-.2h-.53c-.42,0-.85,0-1.29,0-.14,0-.29,0-.43,0l-.87.08c-.25,0-.49,0-.75.08s-.43.1-.64.14c-.39.07-.78.15-1.18.25-.2,0-.39.07-.59.13s-.41.14-.61.2c-.63.2-1.29.42-1.94.68-.23.08-.45.13-.68.23l-.66.3-.67.31c-.83.39-1.66.81-2.5,1.3l-69.53,40.14,37.57,21.83,69.53-40.14c.85-.5,1.7-.92,2.54-1.32Z" transform="translate(1340 40)" style="fill:url(#linear-gradient-79)"/><path d="M1870.85,1405c-14.6-16.56-51.7-40.29-53.39-41.37l-361.25-204-5.11,3a2.67,2.67,0,0,0,1,1l362.53,204.74c.37.25,38,24.32,52.09,40.3,21.47,24.33,47,62.41,47,105.65a2.76,2.76,0,0,0,5.52,0C1919.28,1469.32,1893,1430,1870.85,1405Z" transform="translate(1340 40)" style="fill:url(#New_Gradient_Swatch_4-20)"/><path d="M1891.55,1396.39c-14.61-16.55-51.7-40.29-53.4-41.37L1473.92,1149.3l-5.12,3a2.63,2.63,0,0,0,1,1l365.51,206.44c.38.24,38,24.32,52.1,40.29,21.46,24.33,47,62.41,47,105.66a2.76,2.76,0,0,0,5.52,0C1940,1460.73,1913.64,1421.43,1891.55,1396.39Z" transform="translate(1340 40)" style="fill:url(#New_Gradient_Swatch_4-21)"/><path d="M1884.12,1616.7c.13-1.82.3-3.64.53-5.48.07-.54.15-1.07.23-1.61.11-.81.23-1.62.36-2.42s.23-1.34.36-2,.27-1.44.41-2.16c.11-.55.24-1.1.36-1.66.46-2.08,1-4.16,1.53-6.24.11-.41.23-.81.34-1.21q.73-2.6,1.59-5.19c.08-.25.15-.49.23-.73.57-1.72,1.2-3.44,1.85-5.14.2-.53.4-1.06.61-1.58.52-1.36,1.07-2.7,1.65-4l.45-1.08q1.05-2.4,2.18-4.77l.73-1.47c.56-1.16,1.15-2.32,1.75-3.46.27-.53.55-1.07.83-1.59q1.22-2.28,2.51-4.51l.73-1.23c.77-1.28,1.54-2.56,2.34-3.82l.75-1.18c1-1.61,2.1-3.21,3.2-4.78l.64-.9c1.13-1.59,2.27-3.15,3.45-4.67.17-.23.34-.46.52-.68,1.51-1.95,3.08-3.86,4.68-5.71l.66-.77c.92-1,1.84-2.07,2.78-3.08l.51-.55c1-1.1,2.08-2.16,3.13-3.21l.72-.7c1.46-1.42,2.94-2.81,4.45-4.14l.29-.26c1.55-1.36,3.13-2.66,4.73-3.92l.85-.66q2.33-1.8,4.73-3.44l.84-.56c1.67-1.11,3.35-2.18,5.05-3.16,1.35-.79,2.7-1.49,4-2.17l1.19-.58c1-.49,2-1,3-1.39l1.06-.46c.93-.37,1.86-.72,2.78-1l.76-.29c1.16-.39,2.32-.75,3.46-1.06.7-.19,1.41-.36,2.1-.52l.8-.2c1-.21,2-.4,3-.55,1.43-.21,2.82-.34,4.2-.41l.89,0c1.24,0,2.46,0,3.66,0,.25,0,.49,0,.75.06,1,.08,1.88.19,2.8.34l.88.14c1.09.2,2.16.43,3.2.73a1,1,0,0,0,.18.06c1,.29,1.93.64,2.87,1l.77.32c.83.37,1.64.76,2.42,1.19.25.13.5.25.74.39L1973.46,1497a2.91,2.91,0,0,0-.35-.2l-.4-.2c-.75-.41-1.52-.78-2.3-1.13-.17-.07-.33-.17-.5-.25s-.31-.09-.45-.15c-.9-.36-1.81-.69-2.75-1l-.19-.07h0a31.68,31.68,0,0,0-3.13-.73l-.43-.1-.58-.07c-.91-.14-1.84-.25-2.78-.32-.17,0-.33,0-.51-.06h-.17c-1.2-.07-2.43-.08-3.68,0h-.38a4.2,4.2,0,0,0-.51,0c-1.38.08-2.76.2-4.17.42h-.1c-1,.15-1.94.34-2.92.55a3.58,3.58,0,0,0-.35.09c-.79.17-1.57.35-2.36.56l-.24.08c-1.11.31-2.24.66-3.38,1l-.85.32c-.86.31-1.72.63-2.59,1l-.47.18c-.28.12-.57.27-.86.39-.94.41-1.89.85-2.85,1.31l-1.2.58c-1.33.68-2.68,1.39-4,2.18-1.7,1-3.36,2-5,3.14l-.89.6c-1.57,1.06-3.12,2.2-4.65,3.37l-1,.79c-1.54,1.21-3.07,2.46-4.57,3.78l-.54.48q-2.17,1.94-4.27,4l-.44.41-.25.26c-2.22,2.2-4.38,4.51-6.49,6.9l-.25.29c-.11.12-.2.25-.31.38-1.65,1.9-3.25,3.85-4.82,5.86l-.07.09-.18.25c-1.26,1.62-2.47,3.28-3.67,5-.13.19-.28.37-.41.56s-.13.19-.19.28q-1.67,2.39-3.25,4.85c-.08.14-.18.27-.27.41l-.36.6c-.9,1.43-1.8,2.88-2.65,4.34-.1.16-.2.31-.29.47l-.11.19q-1.41,2.43-2.74,4.92l-.16.29c-.11.2-.2.41-.31.62q-1.07,2-2,4c-.14.26-.28.52-.41.79l-.22.49q-1.17,2.45-2.25,4.92l-.06.14c-.07.15-.12.3-.19.45-.66,1.56-1.3,3.11-1.91,4.68-.08.21-.17.41-.25.62s-.12.33-.18.49q-2.13,5.61-3.74,11.26c-.08.27-.17.54-.25.81s-.07.3-.11.46c-.58,2.15-1.11,4.3-1.57,6.44,0,.15-.08.3-.11.44s-.08.43-.12.64c-.2,1-.38,1.93-.56,2.9-.09.49-.17,1-.25,1.45-.16.91-.29,1.82-.42,2.72,0,.39-.13.78-.18,1.17,0,.11,0,.21,0,.32-.23,1.82-.41,3.64-.53,5.44,0,.42-.05.84-.08,1.25-.11,1.85-.18,3.69-.17,5.51,0,20.18,7.18,34.38,18.67,41q9.85,5.74,19.73,11.47c-11.48-6.66-18.61-20.87-18.67-41,0-1.83.07-3.68.18-5.54C1884.06,1617.49,1884.08,1617.1,1884.12,1616.7Z" transform="translate(1340 40)" style="fill:url(#New_Gradient_Swatch_4-22)"/><path d="M1947.67,1512.92c35.34-20.4,64.09-4,64.21,36.6s-28.46,90.1-63.8,110.5-64.1,4-64.22-36.59S1912.32,1533.33,1947.67,1512.92Z" transform="translate(1340 40)" style="fill:url(#linear-gradient-80)"/><g style="opacity:0.2;mix-blend-mode:overlay"><g style="mask:url(#mask-7)"><polyline points="3408.72 2411.89 3371.51 2433.38 3368 1193.9 3405.2 1172.42 3408.72 2411.89" style="fill:url(#linear-gradient-81)"/></g></g><g style="opacity:0.2;mix-blend-mode:overlay"><g style="mask:url(#mask-8)"><polyline points="2497.66 2262.22 2534.86 2283.71 2538.37 1044.23 2501.17 1022.75 2497.66 2262.22" style="fill:url(#linear-gradient-82)"/></g></g><g style="mix-blend-mode:screen"><path d="M1183,2381.46c-144.72-81.2-225.31-190.75-226.92-308.46-1.59-115.68,73.68-224.92,211.95-307.57l7.52,12.56c-133.6,79.87-206.35,184.57-204.83,294.8,1.54,112.27,79.48,217.36,219.45,295.91,289.23,162.3,753.23,157.62,1034.32-10.43,133.6-79.87,206.35-184.57,204.83-294.8-1.54-112.27-79.47-217.36-219.44-295.91-80.87-45.37-175.9-78.48-282.48-98.39l2.69-14.39c108.15,20.2,204.69,53.85,287,100,144.71,81.21,225.3,190.76,226.91,308.48,1.59,115.67-73.68,224.9-211.95,307.56s-323.43,129.27-521.45,131.27c-4.43,0-8.84.07-13.27.07C1504.2,2502.16,1322,2459.47,1183,2381.46Z" transform="translate(1340 40)" style="fill:url(#linear-gradient-83)"/></g><g style="mix-blend-mode:screen"><path d="M1702.74,2254.35c-4.42,0-8.83,0-13.26-.06-198-2-383.21-48.62-521.45-131.27s-213.55-191.89-212-307.57c1.61-117.71,82.2-227.26,226.92-308.47,82.26-46.17,178.8-79.81,287-100l2.69,14.39c-106.58,19.91-201.62,53-282.48,98.39-140,78.55-217.91,183.63-219.45,295.9-1.51,110.24,71.23,214.93,204.83,294.8,281.1,168.05,745.1,172.74,1034.33,10.43,140-78.54,217.91-183.63,219.45-295.9,1.51-110.23-71.23-214.93-204.83-294.8l7.52-12.57c138.27,82.66,213.54,191.89,211.95,307.57-1.62,117.72-82.21,227.26-226.93,308.47C2078,2211.66,1895.83,2254.35,1702.74,2254.35Z" transform="translate(1340 40)" style="fill:url(#linear-gradient-84)"/></g><path d="M1167.67,1807.18a36,36,0,1,0-36-36A36,36,0,0,0,1167.67,1807.18Z" transform="translate(1340 40)" style="fill:url(#radial-gradient)"/><path d="M2111.51,1241.52a44,44,0,1,0-44-44A44,44,0,0,0,2111.51,1241.52Z" transform="translate(1340 40)" style="fill:url(#radial-gradient-2)"/><path d="M1935.08,2266.3a44,44,0,1,0-44-44A44,44,0,0,0,1935.08,2266.3Z" transform="translate(1340 40)" style="fill:url(#radial-gradient-3)"/><path d="M1489.39,922.16a36,36,0,1,0-36-36A36,36,0,0,0,1489.39,922.16Z" transform="translate(1340 40)" style="fill:url(#radial-gradient-4)"/><path d="M2231.09,1562.61a36,36,0,1,0-36-36A36,36,0,0,0,2231.09,1562.61Z" transform="translate(1340 40)" style="fill:none"/><path d="M1656.72,2533.62a36,36,0,1,0-36-36A36,36,0,0,0,1656.72,2533.62Z" transform="translate(1340 40)" style="fill:none"/><g style="mix-blend-mode:overlay"><path d="M1317.82,1048.41a7.65,7.65,0,1,1-7.64-7.65A7.64,7.64,0,0,1,1317.82,1048.41Z" transform="translate(1340 40)" style="fill:#fff"/><path d="M1325.27,1173.71a7.79,7.79,0,1,1-7.79-7.78A7.79,7.79,0,0,1,1325.27,1173.71Z" transform="translate(1340 40)" style="fill:#fff"/><path d="M1400.15,1097.91a5.34,5.34,0,1,1-5.34-5.33A5.35,5.35,0,0,1,1400.15,1097.91Z" transform="translate(1340 40)" style="fill:#fff"/><path d="M1419.65,1183.37a6.45,6.45,0,1,1-6.45-6.45A6.45,6.45,0,0,1,1419.65,1183.37Z" transform="translate(1340 40)" style="fill:#fff"/><path d="M1424.69,1320a7.28,7.28,0,1,1-7.28-7.28A7.28,7.28,0,0,1,1424.69,1320Z" transform="translate(1340 40)" style="fill:#fff"/><path d="M1421.5,1366a7.38,7.38,0,1,1-7.38-7.37A7.39,7.39,0,0,1,1421.5,1366Z" transform="translate(1340 40)" style="fill:#fff"/><path d="M1235.64,1345.14a11.45,11.45,0,1,1-11.45-11.45A11.45,11.45,0,0,1,1235.64,1345.14Z" transform="translate(1340 40)" style="fill:#fff"/><path d="M1244.5,1445.14a10.73,10.73,0,1,1-10.72-10.73A10.72,10.72,0,0,1,1244.5,1445.14Z" transform="translate(1340 40)" style="fill:#fff"/><path d="M1251.85,1539.92a11.09,11.09,0,1,1-11.08-11.09A11.09,11.09,0,0,1,1251.85,1539.92Z" transform="translate(1340 40)" style="fill:#fff"/><path d="M1262.56,1608.16a9.73,9.73,0,1,1-9.73-9.73A9.73,9.73,0,0,1,1262.56,1608.16Z" transform="translate(1340 40)" style="fill:#fff"/><path d="M1485.35,1367.38a8.17,8.17,0,1,1-8.16-8.16A8.16,8.16,0,0,1,1485.35,1367.38Z" transform="translate(1340 40)" style="fill:#fff"/><path d="M1486.4,1479.64a8.16,8.16,0,1,1-8.16-8.15A8.17,8.17,0,0,1,1486.4,1479.64Z" transform="translate(1340 40)" style="fill:#fff"/><path d="M1486.38,1558a8.48,8.48,0,1,1-8.47-8.48A8.48,8.48,0,0,1,1486.38,1558Z" transform="translate(1340 40)" style="fill:#fff"/><path d="M1489.17,1581.53a8.52,8.52,0,1,1-8.52-8.52A8.52,8.52,0,0,1,1489.17,1581.53Z" transform="translate(1340 40)" style="fill:#fff"/><path d="M1388.8,1605.76a7.12,7.12,0,1,1-7.12-7.12A7.12,7.12,0,0,1,1388.8,1605.76Z" transform="translate(1340 40)" style="fill:#fff"/><path d="M1391.84,1717.76a6,6,0,1,1-6-6A6,6,0,0,1,1391.84,1717.76Z" transform="translate(1340 40)" style="fill:#fff"/><path d="M1394.19,1790.74a5.79,5.79,0,1,1-5.79-5.78A5.79,5.79,0,0,1,1394.19,1790.74Z" transform="translate(1340 40)" style="fill:#fff"/><path d="M1388.16,1811.83a5.85,5.85,0,1,1-5.85-5.85A5.85,5.85,0,0,1,1388.16,1811.83Z" transform="translate(1340 40)" style="fill:#fff"/><path d="M1236.64,1771.29a8.58,8.58,0,1,1-8.57-8.58A8.58,8.58,0,0,1,1236.64,1771.29Z" transform="translate(1340 40)" style="fill:#fff"/><path d="M1248.64,1878.84a8.86,8.86,0,1,1-8.86-8.86A8.85,8.85,0,0,1,1248.64,1878.84Z" transform="translate(1340 40)" style="fill:#fff"/><path d="M1255,1938.54a8.77,8.77,0,1,1-8.78-8.76A8.77,8.77,0,0,1,1255,1938.54Z" transform="translate(1340 40)" style="fill:#fff"/><path d="M1444.84,1921.88a6.62,6.62,0,1,1-6.61-6.61A6.61,6.61,0,0,1,1444.84,1921.88Z" transform="translate(1340 40)" style="fill:#fff"/><path d="M1480.49,2042.79a5.34,5.34,0,1,1-5.34-5.34A5.34,5.34,0,0,1,1480.49,2042.79Z" transform="translate(1340 40)" style="fill:#fff"/><path d="M1475.52,2104.48a4.46,4.46,0,1,1-4.46-4.45A4.45,4.45,0,0,1,1475.52,2104.48Z" transform="translate(1340 40)" style="fill:#fff"/><path d="M1469.23,2126.12a4.25,4.25,0,1,1-4.25-4.24A4.25,4.25,0,0,1,1469.23,2126.12Z" transform="translate(1340 40)" style="fill:#fff"/><path d="M1405.6,1972.83a5.3,5.3,0,1,1-5.29-5.3A5.29,5.29,0,0,1,1405.6,1972.83Z" transform="translate(1340 40)" style="fill:#fff"/><path d="M1398.36,2112.77a3.53,3.53,0,1,1-3.53-3.53A3.53,3.53,0,0,1,1398.36,2112.77Z" transform="translate(1340 40)" style="fill:#fff"/><path d="M1400,2159.53a3.67,3.67,0,1,1-3.66-3.66A3.66,3.66,0,0,1,1400,2159.53Z" transform="translate(1340 40)" style="fill:#fff"/><circle cx="2737.41" cy="2229.98" r="4.04" style="fill:#fff"/><path d="M1273.25,2169.55a6.86,6.86,0,1,1-6.85-6.85A6.86,6.86,0,0,1,1273.25,2169.55Z" transform="translate(1340 40)" style="fill:#fff"/><path d="M1262.89,2241.3a9,9,0,1,1-9-9A9,9,0,0,1,1262.89,2241.3Z" transform="translate(1340 40)" style="fill:#fff"/><path d="M1256.65,2291.63a11.15,11.15,0,1,1-11.14-11.14A11.15,11.15,0,0,1,1256.65,2291.63Z" transform="translate(1340 40)" style="fill:#fff"/><path d="M1449.44,2311a8.32,8.32,0,1,1-8.32-8.32A8.31,8.31,0,0,1,1449.44,2311Z" transform="translate(1340 40)" style="fill:#fff"/><path d="M1471.52,2383.11a10.89,10.89,0,1,1-10.89-10.89A10.88,10.88,0,0,1,1471.52,2383.11Z" transform="translate(1340 40)" style="fill:#fff"/><path d="M1476.79,2411.7a12,12,0,1,1-12-12A12,12,0,0,1,1476.79,2411.7Z" transform="translate(1340 40)" style="fill:#fff"/><path d="M1530,1104.46a7.75,7.75,0,1,1-7.74-7.75A7.74,7.74,0,0,1,1530,1104.46Z" transform="translate(1340 40)" style="fill:#fff"/><circle cx="1530.52" cy="1143.61" r="8.25" transform="translate(1689.06 2685.1) rotate(-88.57)" style="fill:#fff"/><path d="M1543.83,1197.52a8.95,8.95,0,1,1-8.95-9A9,9,0,0,1,1543.83,1197.52Z" transform="translate(1340 40)" style="fill:#fff"/></g><g style="mix-blend-mode:overlay"><path d="M2081.21,1048.41a7.64,7.64,0,1,0,7.64-7.65A7.64,7.64,0,0,0,2081.21,1048.41Z" transform="translate(1340 40)" style="fill:#fff"/><path d="M2073.75,1173.71a7.79,7.79,0,1,0,7.79-7.78A7.79,7.79,0,0,0,2073.75,1173.71Z" transform="translate(1340 40)" style="fill:#fff"/><path d="M1998.88,1097.91a5.34,5.34,0,1,0,5.34-5.33A5.35,5.35,0,0,0,1998.88,1097.91Z" transform="translate(1340 40)" style="fill:#fff"/><path d="M1979.38,1183.37a6.45,6.45,0,1,0,6.45-6.45A6.45,6.45,0,0,0,1979.38,1183.37Z" transform="translate(1340 40)" style="fill:#fff"/><path d="M1974.34,1320a7.28,7.28,0,1,0,7.28-7.28A7.28,7.28,0,0,0,1974.34,1320Z" transform="translate(1340 40)" style="fill:#fff"/><path d="M1977.53,1366a7.38,7.38,0,1,0,7.38-7.37A7.39,7.39,0,0,0,1977.53,1366Z" transform="translate(1340 40)" style="fill:#fff"/><path d="M2163.38,1345.14a11.46,11.46,0,1,0,11.45-11.45A11.45,11.45,0,0,0,2163.38,1345.14Z" transform="translate(1340 40)" style="fill:#fff"/><path d="M2154.53,1445.14a10.72,10.72,0,1,0,10.72-10.73A10.72,10.72,0,0,0,2154.53,1445.14Z" transform="translate(1340 40)" style="fill:#fff"/><path d="M2147.17,1539.92a11.09,11.09,0,1,0,11.09-11.09A11.1,11.1,0,0,0,2147.17,1539.92Z" transform="translate(1340 40)" style="fill:#fff"/><path d="M2136.47,1608.16a9.73,9.73,0,1,0,9.73-9.73A9.73,9.73,0,0,0,2136.47,1608.16Z" transform="translate(1340 40)" style="fill:#fff"/><path d="M1913.68,1367.38a8.16,8.16,0,1,0,8.16-8.16A8.16,8.16,0,0,0,1913.68,1367.38Z" transform="translate(1340 40)" style="fill:#fff"/><path d="M1912.63,1479.64a8.16,8.16,0,1,0,8.16-8.15A8.17,8.17,0,0,0,1912.63,1479.64Z" transform="translate(1340 40)" style="fill:#fff"/><path d="M1912.64,1558a8.48,8.48,0,1,0,8.48-8.48A8.48,8.48,0,0,0,1912.64,1558Z" transform="translate(1340 40)" style="fill:#fff"/><path d="M1909.86,1581.53a8.52,8.52,0,1,0,8.52-8.52A8.52,8.52,0,0,0,1909.86,1581.53Z" transform="translate(1340 40)" style="fill:#fff"/><path d="M2010.23,1605.76a7.12,7.12,0,1,0,7.12-7.12A7.12,7.12,0,0,0,2010.23,1605.76Z" transform="translate(1340 40)" style="fill:#fff"/><path d="M2007.19,1717.76a6,6,0,1,0,6-6A6,6,0,0,0,2007.19,1717.76Z" transform="translate(1340 40)" style="fill:#fff"/><path d="M2004.84,1790.74a5.79,5.79,0,1,0,5.78-5.78A5.78,5.78,0,0,0,2004.84,1790.74Z" transform="translate(1340 40)" style="fill:#fff"/><path d="M2010.87,1811.83a5.85,5.85,0,1,0,5.85-5.85A5.85,5.85,0,0,0,2010.87,1811.83Z" transform="translate(1340 40)" style="fill:#fff"/><path d="M2162.38,1771.29a8.58,8.58,0,1,0,8.58-8.58A8.58,8.58,0,0,0,2162.38,1771.29Z" transform="translate(1340 40)" style="fill:#fff"/><path d="M2150.38,1878.84a8.87,8.87,0,1,0,8.87-8.86A8.86,8.86,0,0,0,2150.38,1878.84Z" transform="translate(1340 40)" style="fill:#fff"/><path d="M2144.05,1938.54a8.77,8.77,0,1,0,8.78-8.76A8.77,8.77,0,0,0,2144.05,1938.54Z" transform="translate(1340 40)" style="fill:#fff"/><path d="M1954.19,1921.88a6.61,6.61,0,1,0,6.61-6.61A6.61,6.61,0,0,0,1954.19,1921.88Z" transform="translate(1340 40)" style="fill:#fff"/><path d="M1918.54,2042.79a5.34,5.34,0,1,0,5.34-5.34A5.34,5.34,0,0,0,1918.54,2042.79Z" transform="translate(1340 40)" style="fill:#fff"/><path d="M1923.51,2104.48A4.46,4.46,0,1,0,1928,2100,4.45,4.45,0,0,0,1923.51,2104.48Z" transform="translate(1340 40)" style="fill:#fff"/><path d="M1929.8,2126.12a4.25,4.25,0,1,0,4.25-4.24A4.25,4.25,0,0,0,1929.8,2126.12Z" transform="translate(1340 40)" style="fill:#fff"/><path d="M1993.43,1972.83a5.3,5.3,0,1,0,5.29-5.3A5.29,5.29,0,0,0,1993.43,1972.83Z" transform="translate(1340 40)" style="fill:#fff"/><path d="M2000.67,2112.77a3.53,3.53,0,1,0,3.53-3.53A3.53,3.53,0,0,0,2000.67,2112.77Z" transform="translate(1340 40)" style="fill:#fff"/><path d="M1999.05,2159.53a3.67,3.67,0,1,0,3.66-3.66A3.66,3.66,0,0,0,1999.05,2159.53Z" transform="translate(1340 40)" style="fill:#fff"/><path d="M1997.58,2190a4,4,0,1,0,4-4A4,4,0,0,0,1997.58,2190Z" transform="translate(1340 40)" style="fill:#fff"/><path d="M2125.78,2169.55a6.86,6.86,0,1,0,6.85-6.85A6.85,6.85,0,0,0,2125.78,2169.55Z" transform="translate(1340 40)" style="fill:#fff"/><path d="M2136.13,2241.3a9,9,0,1,0,9-9A9,9,0,0,0,2136.13,2241.3Z" transform="translate(1340 40)" style="fill:#fff"/><path d="M2142.38,2291.63a11.15,11.15,0,1,0,11.14-11.14A11.15,11.15,0,0,0,2142.38,2291.63Z" transform="translate(1340 40)" style="fill:#fff"/><path d="M1949.58,2311a8.33,8.33,0,1,0,8.33-8.32A8.32,8.32,0,0,0,1949.58,2311Z" transform="translate(1340 40)" style="fill:#fff"/><path d="M1927.51,2383.11a10.89,10.89,0,1,0,10.89-10.89A10.88,10.88,0,0,0,1927.51,2383.11Z" transform="translate(1340 40)" style="fill:#fff"/><path d="M1922.24,2411.7a12,12,0,1,0,12-12A12,12,0,0,0,1922.24,2411.7Z" transform="translate(1340 40)" style="fill:#fff"/><path d="M1869.06,1104.46a7.75,7.75,0,1,0,7.75-7.75A7.75,7.75,0,0,0,1869.06,1104.46Z" transform="translate(1340 40)" style="fill:#fff"/><path d="M1860.26,1143.61a8.25,8.25,0,1,0,8.25-8.25A8.25,8.25,0,0,0,1860.26,1143.61Z" transform="translate(1340 40)" style="fill:#fff"/><path d="M1855.2,1197.52a9,9,0,1,0,9-9A9,9,0,0,0,1855.2,1197.52Z" transform="translate(1340 40)" style="fill:#fff"/></g></g></g></svg>