<svg width="30" height="36" viewBox="0 0 30 36" fill="none" xmlns="http://www.w3.org/2000/svg">
<path d="M0.0105568 7.52602C0.0931239 0.975698 5.96227 -0.203177 8.88652 0.0261763V7.76684C8.88652 14.1314 12.086 13.2025 15.4919 13.2025C21.7945 12.8172 23.3301 13.8644 25.2222 14.9653C31.0685 18.3667 30.1819 27.4109 29.3907 31.2297C27.987 34.6699 23.1179 35.4841 20.8587 35.4612V27.4109C20.8587 25.2518 21.2315 24.2541 19.8898 22.878C18.5481 21.5018 14.1445 21.9956 13.4621 22.0441C9.32808 22.3374 5.30294 21.5912 3.72608 20.0143C1.21467 17.5029 -0.092652 15.7139 0.0105568 7.52602Z" fill="url(#paint0_linear)" fill-opacity="0.5"/>
<path d="M9.05225 23.3252C2.99733 22.8023 0.634996 19.1395 0.210693 17.3735V35.3318C7.16009 35.7102 8.4674 32.2355 8.70822 31.3755C9.15546 30.6186 9.05225 28.2792 9.05225 23.3252Z" fill="url(#paint1_linear)" fill-opacity="0.5"/>
<path d="M20.3003 5.91732C20.8507 1.211 26.424 0.126159 29.1419 0.17203V17.8895C27.1878 13.6511 22.4333 12.2933 20.3003 12.1443V5.91732Z" fill="url(#paint2_linear)" fill-opacity="0.5"/>
<path d="M0.00421608 8.31631C-0.00149225 8.20166 -0.00131728 8.08933 0.0042145 7.97992L0.00421608 8.31631C0.105011 10.3407 2.04014 13.0889 8.70823 13.2451C9.49682 13.2451 14.1227 13.058 17.6567 13.058C18.933 13.058 19.5913 13.058 20.5772 13.2451C24.6694 13.5417 31.1252 16.7818 29.8316 27.9008C29.2124 26.5591 29.5057 23.4561 19.2699 22.3963C18.3755 22.0867 15.7222 22.247 12.527 22.1899C6.04961 22.247 4.11508 21.2798 1.93874 18.378C1.74988 18.1262 0.246037 15.718 0.00422701 10.6399L0.00421608 8.31631Z" fill="url(#paint3_linear)"/>
<defs>
<linearGradient id="paint0_linear" x1="9.16156" y1="6.48275" x2="26.0111" y2="25.6012" gradientUnits="userSpaceOnUse">
<stop stop-color="#FC6E40"/>
<stop offset="1" stop-color="#EE4137"/>
</linearGradient>
<linearGradient id="paint1_linear" x1="2.91617" y1="20.6617" x2="10.8417" y2="25.9001" gradientUnits="userSpaceOnUse">
<stop stop-color="#FC6E40"/>
<stop offset="1" stop-color="#EE4137"/>
</linearGradient>
<linearGradient id="paint2_linear" x1="23.0026" y1="3.40985" x2="30.8519" y2="8.67024" gradientUnits="userSpaceOnUse">
<stop stop-color="#FC6E40"/>
<stop offset="1" stop-color="#EE4137"/>
</linearGradient>
<linearGradient id="paint3_linear" x1="-0.901464" y1="10.3966" x2="28.2958" y2="28.8178" gradientUnits="userSpaceOnUse">
<stop stop-opacity="0.15"/>
<stop offset="1" stop-opacity="0.08"/>
</linearGradient>
</defs>
</svg>
