<svg xmlns="http://www.w3.org/2000/svg" width="1920" height="134.24" viewBox="0 0 1920 134.24">
  <path id="wave1" d="M1920,159.267a319.5,319.5,0,0,0-34.016-16.133c-45.227-18.211-103.525-26.305-155.151-16.078-79.572,15.86-124.088,69.071-199.941,90.619-66.72,18.922-145.909,10.063-214.488-6.18-133.385-31.61-260.535-68.415-408.194-60.7C827.271,155,749.067,172.01,677.753,195.635c-73.556,24.391-160.675,58.353-245.387,31.883-72.079-22.586-109.6-72.243-176.315-99.533-49.876-20.4-113.642-27.727-172.323-19.852A307.35,307.35,0,0,0,0,131.431V239.276H1920Z" transform="translate(0 -105.036)" fill="#fff"/>
</svg>
