<?xml version="1.0" standalone="no"?>
<!DOCTYPE svg PUBLIC "-//W3C//DTD SVG 20010904//EN"
 "http://www.w3.org/TR/2001/REC-SVG-20010904/DTD/svg10.dtd">
<svg version="1.0" xmlns="http://www.w3.org/2000/svg"
 width="300.000000pt" height="150.000000pt" viewBox="0 0 300.000000 150.000000"
 preserveAspectRatio="xMidYMid meet">

<g transform="translate(0.000000,150.000000) scale(0.100000,-0.100000)"
fill="#000000" stroke="none">
<path d="M117 1143 c-4 -3 -7 -164 -7 -358 0 -260 3 -354 12 -363 16 -16 2779
-18 2809 -2 18 10 19 25 19 358 0 257 -3 351 -12 360 -9 9 -337 12 -1413 12
-771 0 -1405 -3 -1408 -7z m291 -35 c16 -16 15 -48 -2 -48 -8 0 -16 7 -20 15
-16 42 -55 -11 -41 -56 7 -20 30 -26 40 -9 9 15 35 12 35 -4 0 -16 -37 -46
-57 -46 -7 0 -22 9 -33 20 -25 25 -27 95 -3 122 18 20 63 24 81 6z m124 -58
c22 -81 22 -80 -2 -80 -11 0 -20 7 -20 15 0 8 -9 15 -20 15 -11 0 -23 -7 -26
-15 -9 -22 -37 -19 -30 3 33 116 40 133 60 130 14 -2 24 -19 38 -68z m112 64
c9 -3 16 -13 16 -21 0 -11 -7 -13 -30 -8 -40 9 -38 -8 3 -26 44 -19 49 -60 11
-85 -23 -16 -29 -16 -52 -3 -32 17 -43 44 -16 37 11 -3 25 -7 33 -9 28 -8 21
19 -8 29 -34 12 -47 42 -31 72 11 20 43 26 74 14z m133 -69 c19 -70 19 -75 2
-75 -9 0 -19 7 -23 15 -3 8 -15 15 -26 15 -11 0 -20 -7 -20 -15 0 -8 -8 -15
-19 -15 -17 0 -17 3 3 75 17 63 24 75 42 75 18 0 24 -12 41 -75z m121 63 c21
-21 13 -29 -23 -22 -44 8 -46 -8 -2 -27 44 -19 49 -60 11 -85 -23 -16 -29 -16
-52 -3 -14 8 -27 20 -30 27 -4 14 34 17 43 2 6 -10 35 -3 35 9 0 4 -15 14 -32
22 -56 24 -47 89 11 89 15 0 32 -5 39 -12z m-93 -172 c40 -17 55 -42 55 -91 0
-25 -8 -43 -24 -60 l-24 -24 23 -15 c47 -31 51 -135 7 -178 -31 -31 -84 -38
-314 -38 l-218 0 0 210 0 210 230 0 c176 0 239 -3 265 -14z m491 -182 c52
-108 94 -202 94 -210 0 -11 -17 -14 -75 -14 -71 0 -76 2 -87 25 -11 24 -15 25
-98 25 -82 0 -89 -1 -104 -25 -15 -23 -23 -25 -86 -25 -51 0 -70 4 -70 13 0
12 156 368 173 395 5 8 34 12 83 12 l75 0 95 -196z m264 71 l0 -125 130 0 129
0 3 123 3 122 73 3 72 3 0 -211 0 -211 -72 3 -73 3 -3 43 -3 43 -127 -3 -127
-3 -3 -43 -3 -43 -72 3 -72 3 -3 195 c-1 107 0 200 2 207 4 9 28 13 76 13 l70
0 0 -125z m615 -85 l0 -205 -72 -3 -73 -3 0 211 0 211 73 -3 72 -3 0 -205z
m362 198 c26 -42 190 -398 185 -402 -3 -3 -38 -6 -77 -6 -66 0 -73 2 -85 25
-13 24 -18 25 -102 25 -85 0 -89 -1 -100 -25 -10 -23 -16 -25 -85 -25 -54 0
-73 3 -73 13 0 12 143 336 171 388 8 16 22 19 84 19 48 0 77 -4 82 -12z"/>
<path d="M480 1046 c0 -9 5 -16 10 -16 6 0 10 4 10 9 0 6 -4 13 -10 16 -5 3
-10 -1 -10 -9z"/>
<path d="M726 1051 c-4 -7 -5 -15 -2 -18 9 -9 19 4 14 18 -4 11 -6 11 -12 0z"/>
<path d="M460 830 l0 -30 119 0 c97 0 121 3 132 16 26 31 -13 44 -138 44
l-113 0 0 -30z"/>
<path d="M460 665 l0 -45 119 0 c95 0 123 3 135 16 20 20 20 38 0 58 -12 13
-40 16 -135 16 l-119 0 0 -45z"/>
<path d="M1102 715 c-12 -25 -22 -48 -22 -50 0 -3 20 -5 45 -5 25 0 45 3 45 8
-1 4 -11 26 -23 50 l-23 43 -22 -46z"/>
<path d="M2432 715 c-12 -25 -22 -48 -22 -50 0 -3 20 -5 45 -5 25 0 45 3 45 8
-1 4 -11 26 -23 50 l-23 43 -22 -46z"/>
</g>
</svg>
