<svg xmlns="http://www.w3.org/2000/svg" xmlns:xlink="http://www.w3.org/1999/xlink" width="53" height="52.988" viewBox="0 0 53 52.988">
  <defs>
    <linearGradient id="linear-gradient" x1="0.5" x2="0.5" y2="1" gradientUnits="objectBoundingBox">
      <stop offset="0" stop-color="#8089ff"/>
      <stop offset="1" stop-color="#54ceff"/>
    </linearGradient>
  </defs>
  <g id="Grupo_235" data-name="Grupo 235" transform="translate(-17.318 -42.778)">
    <path id="Caminho_213" data-name="Caminho 213" d="M84.318,54.961a1.32,1.32,0,0,0-.058-.288l-.025-.046a.318.318,0,0,0-.083-.12L79.1,47.9V45.783a4.008,4.008,0,0,0-4.015-4.005H40.554a4.008,4.008,0,0,0-4.015,4.005V47.9l-5.055,6.6a.318.318,0,0,0-.083.12c-.012.024-.022.024-.022.046a1.17,1.17,0,0,0-.061.288v.022a4.967,4.967,0,0,0,5.09,4.816h.132V81.107a4.028,4.028,0,0,0,4.015,4.03H52.617L51.96,89.88a20.7,20.7,0,0,0-7.472,3.432.832.832,0,0,0-.288.908.819.819,0,0,0,.764.547H70.672a.807.807,0,0,0,.764-.547.828.828,0,0,0-.288-.908,20.6,20.6,0,0,0-7.472-3.432l-.656-4.743H75.083a4.028,4.028,0,0,0,4.015-4.03V59.8h.132a4.967,4.967,0,0,0,5.089-4.816ZM70.779,48.19l2.9,5.982H67.025L65.549,48.19Zm-6.888,0,1.476,5.982H58.624V48.19Zm-6.879,5.982H50.281l1.477-5.982h5.255Zm-8.389,0H41.973l2.9-5.982H50.1Zm-.285,1.621a3.57,3.57,0,0,1-6.734,0Zm8.57,0a3.579,3.579,0,0,1-6.747,0Zm8.567,0a3.577,3.577,0,0,1-6.744,0Zm8.569,0a3.57,3.57,0,0,1-6.734,0Zm1.418-1.621L72.568,48.19H77.3l4.588,5.982Zm-34.908-10.8H75.083A2.412,2.412,0,0,1,77.5,45.783v.811H38.147v-.811A2.4,2.4,0,0,1,40.554,43.374ZM38.338,48.19H43.08l-2.895,5.982H33.749Zm-5.3,7.6h6.735a3.57,3.57,0,0,1-6.735,0ZM47.73,93.17a22.307,22.307,0,0,1,20.189,0Zm14.277-3.625a24.776,24.776,0,0,0-8.377,0l.608-4.408H61.4Zm13.076-6.028H40.554a2.4,2.4,0,0,1-2.407-2.409H77.5A2.412,2.412,0,0,1,75.083,83.517ZM51.067,78.3a1.2,1.2,0,0,1,2.407,0,1.2,1.2,0,1,1-2.407,0Zm10.608,0a1.2,1.2,0,0,1,2.406,0,1.2,1.2,0,1,1-2.406,0ZM64.9,68.308H50.4L49.768,65.9H65.417Zm-.335,1.62-.5,2.409H51.46l-.632-2.409ZM77.5,79.511H65.4a2.731,2.731,0,0,0-.537-3.171l.644-3.051h0l1.67-8.033h0l.083-.357a2.9,2.9,0,0,1,2.824-2.311.8.8,0,1,0,0-1.6A4.5,4.5,0,0,0,65.773,64.3H48.731a.834.834,0,0,0-.644.31.792.792,0,0,0-.129.691l2.109,8.033a.79.79,0,0,0,.773.6H63.735l-.344,1.621a1.821,1.821,0,0,0-.513-.07A2.833,2.833,0,0,0,60.064,78.3a2.742,2.742,0,0,0,.288,1.216H54.8a2.73,2.73,0,0,0,.285-1.216,2.812,2.812,0,0,0-5.623,0,2.772,2.772,0,0,0,.285,1.216h-11.6V59.488a5.027,5.027,0,0,0,2.539-1.93,5.217,5.217,0,0,0,8.569,0,5.218,5.218,0,0,0,8.57,0,5.215,5.215,0,0,0,8.567,0,5.222,5.222,0,0,0,8.557.024A4.961,4.961,0,0,0,77.5,59.488ZM79.23,58.178a3.418,3.418,0,0,1-3.361-2.384H82.6A3.424,3.424,0,0,1,79.23,58.178Z" transform="translate(-14 1)" fill="url(#linear-gradient)"/>
  </g>
</svg>
