<svg xmlns="http://www.w3.org/2000/svg" xmlns:xlink="http://www.w3.org/1999/xlink" width="52" height="52.411" viewBox="0 0 52 52.411">
  <defs>
    <linearGradient id="linear-gradient" x1="0.5" x2="0.5" y2="1" gradientUnits="objectBoundingBox">
      <stop offset="0" stop-color="#8089ff"/>
      <stop offset="1" stop-color="#54ceff"/>
    </linearGradient>
  </defs>
  <g id="Grupo_411" data-name="Grupo 411" transform="translate(-22.363 -69.713)">
    <g id="Grupo_163" data-name="Grupo 163">
      <path id="Caminho_149" data-name="Caminho 149" d="M74.363,116.585a.809.809,0,0,0-.046-.236.182.182,0,0,1-.024-.07.126.126,0,0,1-.012-.049l-3.914-7.05V83.151a3.363,3.363,0,0,0-3.36-3.348H56.516a9.271,9.271,0,0,0,.176-1.767,8.334,8.334,0,0,0-16.668,0A9.353,9.353,0,0,0,40.2,79.8H29.732a3.366,3.366,0,0,0-3.371,3.348V109.18l-3.9,7.05a.125.125,0,0,0-.012.049.169.169,0,0,0-.022.07.565.565,0,0,0-.06.236v2.357a3.174,3.174,0,0,0,3.172,3.182H71.193a3.166,3.166,0,0,0,3.17-3.182v-2.357Zm-26-45.293a6.768,6.768,0,0,1,6.755,6.744c0,4.666-5.012,11.175-6.755,13.3-1.745-2.123-6.743-8.632-6.743-13.3A6.765,6.765,0,0,1,48.358,71.292Zm6.673,15.4h3.914l4.421,5.068H57.245l-.21-.471Zm-1.6.329.072.166,2.016,4.573H50.055A50.74,50.74,0,0,0,53.426,87.017Zm2.429,6.342a3.356,3.356,0,0,1-6.613,0Zm-14.641-1.6L43.3,87.017a52.878,52.878,0,0,0,3.361,4.739Zm6.273,1.6a3.357,3.357,0,0,1-6.616,0Zm-8.018-1.6H33.375l4.408-5.068H41.7Zm-3.359,1.6h3.006a3.357,3.357,0,0,1-6.615,0Zm-.449,4.363h.155a4.942,4.942,0,0,0,4.172-2.356,4.895,4.895,0,0,0,8.37,0,4.962,4.962,0,0,0,4.184,2.356,4.9,4.9,0,0,0,4.187-2.381,4.944,4.944,0,0,0,4.2,2.381h.13v6.342H35.661Zm25.264-1.579a3.454,3.454,0,0,1-3.313-2.784h6.613A3.45,3.45,0,0,1,60.925,96.143ZM27.952,83.151a1.778,1.778,0,0,1,1.78-1.769H40.6a23.294,23.294,0,0,0,1.6,3.725H37.419a.811.811,0,0,0-.6.261l-5.79,6.673a.654.654,0,0,0-.13.21l-.01.024a1.035,1.035,0,0,0-.048.237c0,.024-.012.024-.012.046a5.163,5.163,0,0,0,3.242,4.833v7.475a.794.794,0,0,0,.8.8H61.857a.793.793,0,0,0,.789-.8V97.391A5.13,5.13,0,0,0,65.9,92.558a.088.088,0,0,0-.009-.046.911.911,0,0,0-.037-.237s-.012-.024-.024-.024a.6.6,0,0,0-.118-.21l-5.8-6.673a.813.813,0,0,0-.6-.261h-4.8a21.386,21.386,0,0,0,1.6-3.725H67.007a1.785,1.785,0,0,1,1.781,1.769v25.465H27.952Zm-.331,27.043H69.107l3.124,5.636H24.509Zm45.163,8.748a1.6,1.6,0,0,1-1.591,1.6H25.535a1.585,1.585,0,0,1-1.581-1.6v-1.533h48.83Z" fill="url(#linear-gradient)"/>
    </g>
    <g id="Grupo_164" data-name="Grupo 164">
      <path id="Caminho_150" data-name="Caminho 150" d="M52.636,78.106a4.273,4.273,0,1,0-4.278,4.29A4.278,4.278,0,0,0,52.636,78.106Zm-6.955,0a2.682,2.682,0,1,1,2.677,2.687A2.7,2.7,0,0,1,45.681,78.106Z" fill="url(#linear-gradient)"/>
    </g>
  </g>
</svg>
