<svg xmlns="http://www.w3.org/2000/svg" xmlns:xlink="http://www.w3.org/1999/xlink" width="52" height="49.689" viewBox="0 0 52 49.689">
  <defs>
    <linearGradient id="linear-gradient" x1="0.5" x2="0.5" y2="1" gradientUnits="objectBoundingBox">
      <stop offset="0" stop-color="#8089ff"/>
      <stop offset="1" stop-color="#54ceff"/>
    </linearGradient>
  </defs>
  <g id="Grupo_408" data-name="Grupo 408" transform="translate(-6.097 -66.366)">
    <g id="Grupo_118" data-name="Grupo 118">
      <path id="Caminho_111" data-name="Caminho 111" d="M58.1,79.762A13.636,13.636,0,0,0,31.7,75.178l-4.572-2.035a.631.631,0,0,0-.642,0L6.564,82.03c-.009,0-.033.023-.033.023a.108.108,0,0,1-.072.022.208.208,0,0,0-.033.048c-.036.024-.06.048-.082.048a.659.659,0,0,0-.084.115c-.021.024-.033.024-.045.072a.235.235,0,0,0-.058.115.162.162,0,0,0-.024.071.641.641,0,0,0-.036.211v23.619a.827.827,0,0,0,.467.725l19.926,8.887c.012.021.022,0,.034.021a1.141,1.141,0,0,0,.283.048h.009a.973.973,0,0,0,.271-.048c.024-.021.033,0,.045-.021L47.058,107.1a.827.827,0,0,0,.467-.725V93.3A13.768,13.768,0,0,0,58.1,79.762ZM26.807,74.709,31.225,76.7A13.826,13.826,0,0,0,30.9,78.4c-.048.4-.072.795-.084,1.193L16.294,86.1,8.823,82.755Zm-.786,39.359L7.676,105.859V83.969l11.47,5.122,6.875,3.063Zm.786-23.293-8.583-3.834L30.887,81.28a13.5,13.5,0,0,0,2.349,6.478.551.551,0,0,0,.07.117Zm19.14,15.084L27.6,114.068V92.154l5.845-2.6-.422,4.234a.77.77,0,0,0,.293.678.78.78,0,0,0,.491.187.876.876,0,0,0,.246-.046l5.086-1.638a1.619,1.619,0,0,1,1.052,0,13.614,13.614,0,0,0,5.649.608h.1Zm-.271-13.844a12.046,12.046,0,0,1-4.992-.539,3.32,3.32,0,0,0-2.021,0l-3.954,1.265.364-3.695a3.243,3.243,0,0,0-.539-2.177,12.06,12.06,0,1,1,11.142,5.146Z" fill="url(#linear-gradient)"/>
    </g>
    <g id="Grupo_119" data-name="Grupo 119">
      <path id="Caminho_112" data-name="Caminho 112" d="M50.308,73.33,37.492,86.146a.785.785,0,0,0,0,1.121.734.734,0,0,0,.55.234.753.753,0,0,0,.561-.234L51.419,74.453a.805.805,0,0,0,0-1.123A.791.791,0,0,0,50.308,73.33Z" fill="url(#linear-gradient)"/>
    </g>
    <g id="Grupo_120" data-name="Grupo 120">
      <path id="Caminho_113" data-name="Caminho 113" d="M46.191,82.053a3.192,3.192,0,0,0,0,4.512,3.194,3.194,0,0,0,5.451-2.244,3.194,3.194,0,0,0-5.451-2.268Zm3.4,3.391a1.626,1.626,0,0,1-2.292,0,1.533,1.533,0,0,1-.466-1.123,1.589,1.589,0,0,1,.466-1.147,1.64,1.64,0,0,1,2.292,0,1.59,1.59,0,0,1,.467,1.147A1.534,1.534,0,0,1,49.594,85.444Z" fill="url(#linear-gradient)"/>
    </g>
    <g id="Grupo_121" data-name="Grupo 121">
      <path id="Caminho_114" data-name="Caminho 114" d="M40.451,79.5a3.134,3.134,0,0,0,2.256-.934,3.18,3.18,0,0,0,0-4.514,3.214,3.214,0,0,0-2.256-.912,3.258,3.258,0,0,0-2.258.912A3.191,3.191,0,0,0,40.451,79.5Zm-1.135-4.325a1.584,1.584,0,0,1,1.135-.469A1.615,1.615,0,0,1,41.6,77.47a1.653,1.653,0,0,1-2.28,0A1.622,1.622,0,0,1,39.316,75.178Z" fill="url(#linear-gradient)"/>
    </g>
  </g>
</svg>
