<svg xmlns="http://www.w3.org/2000/svg" xmlns:xlink="http://www.w3.org/1999/xlink" width="51.113" height="49.515" viewBox="0 0 51.113 49.515">
  <defs>
    <linearGradient id="linear-gradient" x1="0.5" x2="0.5" y2="1" gradientUnits="objectBoundingBox">
      <stop offset="0" stop-color="#8089ff"/>
      <stop offset="1" stop-color="#54ceff"/>
    </linearGradient>
  </defs>
  <g id="Grupo_301" data-name="Grupo 301" transform="translate(-30.848 -53.349)">
    <g id="Grupo_299" data-name="Grupo 299" transform="translate(48.665 68.062)">
      <path id="Caminho_264" data-name="Caminho 264" d="M63,73.5a7.747,7.747,0,0,0-1.048,15.423h.1a.773.773,0,0,0,.1-1.539,6.2,6.2,0,1,1,6.977-6.989.775.775,0,0,0,.873.667.788.788,0,0,0,.655-.873A7.757,7.757,0,0,0,63,73.5Z" transform="translate(-55.249 -73.498)" fill="url(#linear-gradient)"/>
    </g>
    <g id="Grupo_300" data-name="Grupo 300" transform="translate(30.848 53.349)">
      <path id="Caminho_265" data-name="Caminho 265" d="M81.834,64.8c0-.023-.012-.023-.012-.023a1.047,1.047,0,0,0-.113-.137c-.012-.024-.035-.024-.047-.047a.361.361,0,0,1-.056-.047c-.024,0-.047-.021-.071-.021-.009-.024-.021-.024-.033-.024L56.72,53.418a.761.761,0,0,0-.631,0L31.309,64.5c-.012,0-.023.024-.047.024-.012.021-.036.021-.057.021a.2.2,0,0,0-.035.047c-.035.023-.056.047-.08.047a.56.56,0,0,0-.08.112c-.012.024-.036.024-.047.047a.569.569,0,0,0-.056.137.166.166,0,0,0-.023.07.491.491,0,0,0-.036.184V91.024a.761.761,0,0,0,.461.713l24.78,11.08h.045a.957.957,0,0,0,.266.047h.012a1.1,1.1,0,0,0,.275-.047h.033L81.5,91.737a.744.744,0,0,0,.459-.713V65.188A.673.673,0,0,0,81.834,64.8ZM56.4,54.981l9.8,4.367-3.771,1.7a.759.759,0,0,0-.391,1.012.813.813,0,0,0,.713.459.784.784,0,0,0,.311-.068L68.1,60.2l11.184,4.988L67.56,70.427a12.381,12.381,0,0,0-22.311,0l-11.722-5.24Zm1.252,22.068,14.839,5.1L66.02,85.027a.68.68,0,0,0-.391.391L62.744,91.9Zm9.23,1.54L56.664,75.071a.776.776,0,0,0-.989.989l3.5,10.207a10.105,10.105,0,0,1-2.768.391,10.851,10.851,0,1,1,10.837-10.85A11.178,11.178,0,0,1,66.882,78.589ZM44.791,96.059V84.266a.776.776,0,1,0-1.552,0v11.1L32.4,90.521V66.4l11.609,5.173.654.3A12.364,12.364,0,0,0,55.63,88.153V100.91ZM80.41,90.521,57.181,100.91V88.153a11.334,11.334,0,0,0,2.5-.415l2.229,6.507a.738.738,0,0,0,.7.527h.035a.777.777,0,0,0,.713-.436l3.549-8.024,8.013-3.562a.733.733,0,0,0,.447-.737.743.743,0,0,0-.518-.689l-6.515-2.253a11.982,11.982,0,0,0-.2-7.193L80.41,66.4Z" transform="translate(-30.848 -53.349)" fill="url(#linear-gradient)"/>
    </g>
  </g>
</svg>
