<svg xmlns="http://www.w3.org/2000/svg" xmlns:xlink="http://www.w3.org/1999/xlink" width="52" height="52.009" viewBox="0 0 52 52.009">
  <defs>
    <linearGradient id="linear-gradient" x1="0.5" x2="0.5" y2="1" gradientUnits="objectBoundingBox">
      <stop offset="0" stop-color="#8089ff"/>
      <stop offset="1" stop-color="#54ceff"/>
    </linearGradient>
  </defs>
  <g id="Grupo_413" data-name="Grupo 413" transform="translate(-50.818 -36.639)">
    <g id="Grupo_192" data-name="Grupo 192">
      <path id="Caminho_176" data-name="Caminho 176" d="M102.035,78.337a.767.767,0,0,0-.8.771v5.613a2.37,2.37,0,0,1-2.361,2.361H88.13a.783.783,0,1,0,0,1.566H98.878a3.946,3.946,0,0,0,3.94-3.927V79.108A.764.764,0,0,0,102.035,78.337Z" fill="url(#linear-gradient)"/>
    </g>
    <g id="Grupo_193" data-name="Grupo 193">
      <path id="Caminho_177" data-name="Caminho 177" d="M98.878,36.639H54.759a3.953,3.953,0,0,0-3.941,3.951V87.853a.786.786,0,0,0,.783.8H81.827a.786.786,0,0,0,.786-.8V79.388L85.3,77.424c.106.046.221.094.338.139l.632,3.93a.745.745,0,0,0,.642.656,13.3,13.3,0,0,0,4.445,0A.748.748,0,0,0,92,81.493l.63-3.93c.117-.045.222-.093.328-.139l3.228,2.337a.751.751,0,0,0,.922,0,13.469,13.469,0,0,0,3.135-3.132.774.774,0,0,0,0-.912l-2.34-3.229c.048-.117.093-.232.141-.325l3.93-.632a.8.8,0,0,0,.654-.657,13.283,13.283,0,0,0,0-4.442.771.771,0,0,0-.654-.632l-3.93-.63c-.048-.117-.093-.235-.141-.352l2.34-3.2a.776.776,0,0,0,0-.913,13.419,13.419,0,0,0-3.135-3.156.828.828,0,0,0-.922,0l-3.228,2.34c-.106-.048-.223-.094-.328-.141L92,55.814a.8.8,0,0,0-.644-.654,14.1,14.1,0,0,0-4.445,0,.793.793,0,0,0-.642.654l-.632,3.93c-.1.047-.223.093-.338.141l-2.689-1.942V52.329a.718.718,0,0,0-.048-.186l-.024-.094a1.208,1.208,0,0,0-.151-.211l-7.074-7.086a.553.553,0,0,0-.235-.139c-.024-.024-.045-.024-.069-.048-.072,0-.141-.023-.2-.023-.024,0-.036-.022-.06-.022H52.4V40.59a2.355,2.355,0,0,1,2.363-2.361H98.878a2.355,2.355,0,0,1,2.361,2.361v3.93H81.827a.8.8,0,0,0-.8.795.814.814,0,0,0,.8.8h19.412V58.2a.79.79,0,1,0,1.579,0V40.59A3.951,3.951,0,0,0,98.878,36.639ZM52.4,87.082V46.11H73.97v6.267a.787.787,0,0,0,.783.8h6.279v4.467A14.144,14.144,0,0,0,78.017,60.7a.8.8,0,0,0,.012.913l2.326,3.2c-.046.117-.094.235-.139.352L76.3,65.8a.773.773,0,0,0-.656.632,13.283,13.283,0,0,0,0,4.442.773.773,0,0,0,.656.657l3.918.632c.045.093.093.208.139.325l-2.326,3.229a.794.794,0,0,0-.012.912,13.522,13.522,0,0,0,3.015,3.039v7.414ZM85.57,61.5a10.888,10.888,0,0,1,1.03-.42.793.793,0,0,0,.525-.632l.608-3.812a14.006,14.006,0,0,1,2.807,0l.608,3.812a.779.779,0,0,0,.527.632c.337.118.677.257,1.027.42a.748.748,0,0,0,.819-.07l3.123-2.268a12.181,12.181,0,0,1,1.976,1.988l-2.268,3.135a.812.812,0,0,0-.058.816,7.887,7.887,0,0,1,.431,1.03.767.767,0,0,0,.621.515l3.812.608a11.841,11.841,0,0,1,.081,1.4,11.631,11.631,0,0,1-.081,1.4l-3.812.608a.787.787,0,0,0-.621.537,7.485,7.485,0,0,1-.431,1,.818.818,0,0,0,.058.819l2.268,3.135a12.382,12.382,0,0,1-1.976,1.988l-3.123-2.271a.859.859,0,0,0-.819-.069,8.981,8.981,0,0,1-1.027.422.809.809,0,0,0-.527.629l-.608,3.813a14.156,14.156,0,0,1-2.807,0l-.608-3.813a.825.825,0,0,0-.525-.629,6.955,6.955,0,0,1-1.03-.422.8.8,0,0,0-.819.069L81.629,78.15a13.112,13.112,0,0,1-1.988-1.988l2.27-3.135a.791.791,0,0,0,.07-.819,6.471,6.471,0,0,1-.434-1,.782.782,0,0,0-.62-.537l-3.81-.608a12.2,12.2,0,0,1,0-2.807l3.81-.608a.762.762,0,0,0,.62-.515,6.83,6.83,0,0,1,.434-1.03.786.786,0,0,0-.07-.816l-2.27-3.135a12.887,12.887,0,0,1,1.988-1.988l3.122,2.268A.745.745,0,0,0,85.57,61.5Zm-5.646-9.915H75.548V47.209Z" fill="url(#linear-gradient)"/>
    </g>
    <g id="Grupo_194" data-name="Grupo 194">
      <path id="Caminho_178" data-name="Caminho 178" d="M98.445,41.924a.763.763,0,0,0,.234-.539.807.807,0,0,0-.222-.56.826.826,0,0,0-1.123,0,.76.76,0,0,0,0,1.1.746.746,0,0,0,.56.232A.706.706,0,0,0,98.445,41.924Z" fill="url(#linear-gradient)"/>
    </g>
    <g id="Grupo_195" data-name="Grupo 195">
      <path id="Caminho_179" data-name="Caminho 179" d="M94.352,41.385a.8.8,0,0,0-.795-.795.785.785,0,0,0-.783.795.8.8,0,0,0,.783.8A.81.81,0,0,0,94.352,41.385Z" fill="url(#linear-gradient)"/>
    </g>
    <g id="Grupo_196" data-name="Grupo 196">
      <path id="Caminho_180" data-name="Caminho 180" d="M89.792,41.924a.8.8,0,0,0,.221-.539.914.914,0,0,0-.221-.584.881.881,0,0,0-1.123,0,.917.917,0,0,0-.234.584.807.807,0,0,0,.234.539.733.733,0,0,0,.549.232A.773.773,0,0,0,89.792,41.924Z" fill="url(#linear-gradient)"/>
    </g>
    <g id="Grupo_197" data-name="Grupo 197">
      <path id="Caminho_181" data-name="Caminho 181" d="M89.136,73.377a4.723,4.723,0,1,0-4.722-4.723A4.719,4.719,0,0,0,89.136,73.377Zm0-7.881a3.157,3.157,0,1,1-3.156,3.158A3.165,3.165,0,0,1,89.136,65.5Z" fill="url(#linear-gradient)"/>
    </g>
    <g id="Grupo_198" data-name="Grupo 198">
      <path id="Caminho_182" data-name="Caminho 182" d="M56.97,53.172h12.1a.786.786,0,0,0,.783-.8.8.8,0,0,0-.783-.795H56.97a.8.8,0,0,0-.786.795A.788.788,0,0,0,56.97,53.172Z" fill="url(#linear-gradient)"/>
    </g>
    <g id="Grupo_199" data-name="Grupo 199">
      <path id="Caminho_183" data-name="Caminho 183" d="M74.59,58.271H56.97a.8.8,0,0,0-.786.8.788.788,0,0,0,.786.795H74.59a.786.786,0,0,0,.784-.795A.8.8,0,0,0,74.59,58.271Z" fill="url(#linear-gradient)"/>
    </g>
    <g id="Grupo_200" data-name="Grupo 200">
      <path id="Caminho_184" data-name="Caminho 184" d="M56.97,66.549H71.434a.8.8,0,0,0,.783-.8.786.786,0,0,0-.783-.795H56.97a.787.787,0,0,0-.786.795A.8.8,0,0,0,56.97,66.549Z" fill="url(#linear-gradient)"/>
    </g>
    <g id="Grupo_201" data-name="Grupo 201">
      <path id="Caminho_185" data-name="Caminho 185" d="M56.97,73.214H71.434a.783.783,0,1,0,0-1.566H56.97a.783.783,0,1,0,0,1.566Z" fill="url(#linear-gradient)"/>
    </g>
    <g id="Grupo_202" data-name="Grupo 202">
      <path id="Caminho_186" data-name="Caminho 186" d="M74.59,78.337H56.97a.766.766,0,0,0-.786.771.787.787,0,0,0,.786.795H74.59a.785.785,0,0,0,.784-.795A.764.764,0,0,0,74.59,78.337Z" fill="url(#linear-gradient)"/>
    </g>
  </g>
</svg>
