<svg width="494" height="512" viewBox="0 0 494 512" fill="none" xmlns="http://www.w3.org/2000/svg">
<path d="M493.021 443.474L463.049 447.37L461.251 432.684C460.353 424.291 452.86 418.597 444.467 419.497L236.467 446.171L232.57 416.498L326.081 374.535L440.571 389.824C465.147 386.826 487.926 404.209 490.923 428.787L493.021 443.474Z" fill="#D0D2D3"/>
<path d="M440.571 389.826L333.034 375.466L336.572 403.161L339.513 432.957L444.467 419.498C452.86 418.598 460.353 424.292 461.251 432.685L463.05 447.371L493.021 443.475L490.923 428.789C487.927 404.211 465.147 386.828 440.571 389.826V389.826Z" fill="#A4B1D1" fill-opacity="0.6"/>
<path d="M440.571 389.826L232.57 416.5L211.59 252.858L319.263 209.252L419.891 226.483L440.571 389.826Z" fill="#FFDC73"/>
<path d="M430.232 308.153L419.891 226.483L369.578 217.866L319.262 209.252L312.17 212.125L336.572 403.161L440.571 389.826L430.232 308.153Z" fill="#FFB95A"/>
<path d="M0.979492 19.0098L4.78484 48.7473L123.69 33.5418L135.099 126.809L120.236 128.703C95.6357 131.864 78.2064 154.43 81.3524 179.015L115.568 446.576L145.305 442.77L124.396 279.26L154.119 275.455L169.335 394.374L199.073 390.568L149.621 0L0.979492 19.0098ZM120.592 249.523L111.089 175.211C110.035 167.016 115.845 159.494 124.025 158.44L138.903 156.543L150.312 245.719L120.592 249.523Z" fill="#D0D2D3"/>
<path d="M283.101 338.838L269.154 230.646L358.556 218.953L369.37 305.135L283.101 338.838Z" fill="#8089FF"/>
<path d="M115.567 446.577C110.329 405.492 139.302 368.006 180.398 362.736C221.766 357.584 258.974 386.642 264.223 427.552C269.462 468.649 240.503 506.123 199.407 511.393C158.215 516.612 120.828 487.61 115.567 446.577V446.577Z" fill="#665151"/>
<path d="M173.188 424.118L202.914 420.313L206.721 450.052L176.996 453.858L173.188 424.118Z" fill="#FFF7E6"/>
<path d="M326.205 321.999L369.371 305.135L358.557 218.953L313.79 224.808L326.205 321.999Z" fill="#2E43B5"/>
<path d="M419.891 226.483L211.591 252.857L187.015 59.8426L246.358 52.3498L303.453 113.64L335.672 40.66L395.016 33.1672L419.891 226.483Z" fill="#FFB95A"/>
<path d="M315.689 239.677L419.891 226.483L395.016 33.1672L335.671 40.66L303.453 113.64L298.976 108.833L315.689 239.677Z" fill="#FF9833"/>
<path d="M346.461 126.678L260.444 160.545L246.358 52.3498L335.672 40.66L346.461 126.678Z" fill="#8089FF"/>
<path d="M303.452 143.611L346.461 126.678L341.066 83.6688L335.671 40.66L291.014 46.5054L303.419 143.624L303.452 143.611Z" fill="#2B396C"/>
</svg>
