<svg width="512" height="471" viewBox="0 0 512 471" fill="none" xmlns="http://www.w3.org/2000/svg">
<path d="M496.499 403.017H146.596C138.035 403.017 131.094 396.077 131.094 387.516V336.323L162.097 168.798L131.094 43.2223V15.5015C131.094 6.94054 138.035 0 146.596 0H496.498C505.059 0 511.999 6.94054 511.999 15.5015V387.516C512 396.077 505.06 403.017 496.499 403.017V403.017Z" fill="#A67E4F"/>
<path d="M496.499 0H465.496C474.057 0 480.997 6.94054 480.997 15.5015V387.516C480.997 396.077 474.057 403.017 465.496 403.017H496.499C505.06 403.017 512 396.077 512 387.516V15.5015C512 6.94054 505.06 0 496.499 0V0Z" fill="#E59A69"/>
<path d="M447.97 298.365H131.094V43.2234H447.969C456.53 43.2234 463.47 50.1639 463.47 58.7249V282.864C463.471 291.424 456.531 298.365 447.97 298.365V298.365Z" fill="#FDFCFC"/>
<path d="M447.97 43.2223H416.967C425.528 43.2223 432.468 50.1628 432.468 58.7238V282.863C432.468 291.424 425.528 298.365 416.967 298.365H447.97C456.531 298.365 463.471 291.424 463.471 282.863V58.7238C463.471 50.1628 456.531 43.2223 447.97 43.2223V43.2223Z" fill="#F1F1F1"/>
<path d="M131.094 217.054V298.365H447.969C456.53 298.365 463.47 291.424 463.47 282.863V217.054H131.094Z" fill="#BAD4FF"/>
<path d="M432.468 217.054V282.863C432.468 291.424 425.528 298.365 416.967 298.365H447.97C456.531 298.365 463.471 291.424 463.471 282.863V217.054H432.468Z" fill="#AFC6EC"/>
<path d="M306.5 256.801C310.57 256.801 313.869 253.502 313.869 249.432C313.869 245.362 310.57 242.062 306.5 242.062C302.43 242.062 299.13 245.362 299.13 249.432C299.13 253.502 302.43 256.801 306.5 256.801Z" fill="#6FA5FF"/>
<path d="M345.977 256.801C350.047 256.801 353.346 253.502 353.346 249.432C353.346 245.362 350.047 242.062 345.977 242.062C341.907 242.062 338.607 245.362 338.607 249.432C338.607 253.502 341.907 256.801 345.977 256.801Z" fill="#6FA5FF"/>
<path d="M384.958 256.801C389.028 256.801 392.327 253.502 392.327 249.432C392.327 245.362 389.028 242.062 384.958 242.062C380.888 242.062 377.589 245.362 377.589 249.432C377.589 253.502 380.888 256.801 384.958 256.801Z" fill="#6FA5FF"/>
<path d="M307.975 232.354C303.694 232.354 300.225 228.884 300.225 224.603V149.646C300.225 145.366 303.694 141.896 307.975 141.896C312.257 141.896 315.726 145.366 315.726 149.646V224.603C315.726 228.884 312.257 232.354 307.975 232.354V232.354Z" fill="#6FA5FF"/>
<path d="M190.718 241.261C186.438 241.261 182.967 237.791 182.967 233.51V149.647C182.967 145.367 186.438 141.896 190.718 141.896C195 141.896 198.469 145.367 198.469 149.647V233.51C198.469 237.791 195 241.261 190.718 241.261Z" fill="#6FA5FF"/>
<path d="M228.329 239.308C224.047 239.308 220.578 235.838 220.578 231.557V149.646C220.578 145.366 224.047 141.896 228.329 141.896C232.61 141.896 236.08 145.366 236.08 149.646V231.557C236.08 235.838 232.61 239.308 228.329 239.308Z" fill="#6FA5FF"/>
<path d="M258.01 241.261C253.729 241.261 250.259 237.791 250.259 233.51V149.647C250.259 145.367 253.729 141.896 258.01 141.896C262.292 141.896 265.761 145.367 265.761 149.647V233.51C265.761 237.791 262.291 241.261 258.01 241.261Z" fill="#6FA5FF"/>
<path d="M345.977 232.354C341.695 232.354 338.226 228.884 338.226 224.603V149.646C338.226 145.366 341.695 141.896 345.977 141.896C350.258 141.896 353.728 145.366 353.728 149.646V224.603C353.728 228.884 350.257 232.354 345.977 232.354V232.354Z" fill="#6FA5FF"/>
<path d="M384.958 232.354C380.677 232.354 377.207 228.884 377.207 224.603V149.646C377.207 145.366 380.677 141.896 384.958 141.896C389.24 141.896 392.709 145.366 392.709 149.646V224.603C392.709 228.884 389.24 232.354 384.958 232.354V232.354Z" fill="#6FA5FF"/>
<path d="M420.405 257.182C416.123 257.182 412.654 253.712 412.654 249.431V149.646C412.654 145.366 416.123 141.896 420.405 141.896C424.686 141.896 428.156 145.366 428.156 149.646V249.431C428.156 253.712 424.686 257.182 420.405 257.182Z" fill="#6FA5FF"/>
<path d="M216.961 88.9662H179.963C175.682 88.9662 172.212 85.496 172.212 81.2155C172.212 76.935 175.682 73.4647 179.963 73.4647H216.961C221.243 73.4647 224.712 76.935 224.712 81.2155C224.712 85.496 221.243 88.9662 216.961 88.9662Z" fill="#6FA5FF"/>
<path d="M332.622 118.268H179.963C175.682 118.268 172.212 114.798 172.212 110.517C172.212 106.237 175.682 102.767 179.963 102.767H332.622C336.903 102.767 340.373 106.237 340.373 110.517C340.373 114.798 336.902 118.268 332.622 118.268Z" fill="#6FA5FF"/>
<path d="M125.87 371.133H74.7212V301.511H144.343V352.66C144.343 362.862 136.072 371.133 125.87 371.133Z" fill="#738C96"/>
<path d="M120.505 303.654H54.8472L5.37573 450.933C2.09148 460.71 9.36581 470.826 19.6784 470.826H100.428C106.347 470.826 111.146 466.028 111.146 460.108V442.879C111.146 436.959 106.347 432.161 100.428 432.161H92.2461C84.9201 432.161 79.753 424.976 82.0864 418.03L120.505 303.654Z" fill="#E1EBF0"/>
<path d="M100.428 432.161H92.2464C84.9203 432.161 79.7532 424.976 82.0867 418.03L120.506 303.654H89.5026L51.0837 418.03C48.7512 424.975 53.9174 432.161 61.2444 432.161H69.4261C75.3456 432.161 80.1438 436.959 80.1438 442.879V460.108C80.1438 466.028 75.3456 470.826 69.4261 470.826H100.429C106.349 470.826 111.147 466.028 111.147 460.108V442.879C111.146 436.959 106.348 432.161 100.428 432.161V432.161Z" fill="#B4D2D7"/>
<path d="M216.859 336.323H33.9235C15.1884 336.323 0 321.134 0 302.398V250.908C0 232.173 15.1884 216.985 33.9235 216.985H265.769C271.751 216.985 275.769 223.121 273.376 228.604L224.466 331.341C223.146 334.366 220.16 336.323 216.859 336.323Z" fill="#E1EBF0"/>
<path d="M267.836 216.985H236.833C242.814 216.985 246.832 223.121 244.44 228.604L195.529 331.341C194.21 334.366 191.223 336.323 187.922 336.323H218.925C222.226 336.323 225.213 334.367 226.532 331.341L275.443 228.604C277.835 223.121 273.818 216.985 267.836 216.985V216.985Z" fill="#B4D2D7"/>
<path d="M57.3729 254.248C58.4477 254.76 59.5824 255.003 60.6995 255.003C63.5962 255.003 66.3741 253.371 67.7021 250.582L83.0217 218.402C83.2418 217.939 83.4102 217.464 83.5332 216.985H66.5291L53.7063 243.919C51.8657 247.784 53.5079 252.409 57.3729 254.248V254.248Z" fill="#9BB9C3"/>
<path d="M82.2756 243.919C80.4351 247.784 82.0772 252.409 85.9422 254.249C87.017 254.761 88.1517 255.004 89.2689 255.004C92.1656 255.004 94.9434 253.372 96.2714 250.583L111.591 218.403C111.812 217.94 111.98 217.465 112.103 216.986H95.0974L82.2756 243.919Z" fill="#9BB9C3"/>
<path d="M114.509 254.248C115.584 254.76 116.719 255.003 117.836 255.003C120.732 255.003 123.51 253.371 124.838 250.582L140.158 218.402C140.378 217.939 140.546 217.464 140.669 216.985H123.665L110.843 243.919C109.002 247.784 110.644 252.409 114.509 254.248V254.248Z" fill="#9BB9C3"/>
<path d="M152.234 216.985L139.411 243.918C137.57 247.783 139.212 252.408 143.077 254.248C144.152 254.761 145.287 255.003 146.404 255.003C149.301 255.003 152.079 253.371 153.407 250.582L168.727 218.402C168.947 217.938 169.116 217.463 169.239 216.985H152.234Z" fill="#9BB9C3"/>
</svg>
