<svg width="336" height="336" viewBox="0 0 336 336" fill="none" xmlns="http://www.w3.org/2000/svg">
<path d="M168 328C256.366 328 328 256.366 328 168C328 79.6344 256.366 8 168 8C79.6344 8 8 79.6344 8 168C8 256.366 79.6344 328 168 328Z" fill="#2862BE"/>
<path d="M296 120C296 96.696 290.6 74.696 281.224 54.96C252.264 25.952 212.232 8 168 8C79.632 8 8 79.632 8 168C8 176.032 8.784 183.872 9.928 191.584C35.528 239.432 85.944 272 144 272C227.944 272 296 203.944 296 120V120Z" fill="#3279EA"/>
<path d="M168 0C75.36 0 0 75.36 0 168C0 260.632 75.36 336 168 336C260.64 336 336 260.632 336 168C336 75.36 260.64 0 168 0ZM319.592 160H239.832C238.648 98.856 224.168 47.144 202.704 20.152C267.304 35.32 316.016 91.72 319.592 160ZM168 320C142.312 320 113.872 261.232 112.168 176H223.84C222.128 261.232 193.688 320 168 320ZM112.168 160C113.872 74.776 142.312 16 168 16C193.688 16 222.128 74.776 223.832 160H112.168ZM133.296 20.152C111.84 47.144 97.352 98.848 96.168 160H16.408C19.984 91.72 68.696 35.32 133.296 20.152ZM16.408 176H96.168C97.352 237.144 111.832 288.856 133.296 315.848C68.696 300.68 19.984 244.28 16.408 176ZM202.704 315.848C224.16 288.856 238.648 237.144 239.832 176H319.592C316.016 244.28 267.304 300.68 202.704 315.848Z" fill="#2458AD"/>
</svg>
