<svg width="524" height="488" viewBox="0 0 524 488" fill="none" xmlns="http://www.w3.org/2000/svg">
<path d="M248 248C314.274 248 368 194.274 368 128C368 61.7258 314.274 8 248 8C181.726 8 128 61.7258 128 128C128 194.274 181.726 248 248 248Z" fill="#6BC13B"/>
<path d="M248 8V128H368C368 61.728 314.272 8 248 8Z" fill="#D23F34"/>
<path d="M248 128L332.856 212.856C354.568 191.136 368 161.136 368 128H248Z" fill="#2862BE"/>
<path d="M248 128V248C281.136 248 311.136 234.568 332.856 212.856L248 128Z" fill="#5ED3F2"/>
<path d="M248 128V8C214.864 8 184.864 21.432 163.144 43.144L248 128Z" fill="#F6B940"/>
<path d="M112 208H0V192H108.688L170.344 130.344L181.656 141.656L117.656 205.656C116.16 207.16 114.12 208 112 208Z" fill="#61668C"/>
<path d="M0 160H112V176H0V160Z" fill="#61668C"/>
<path d="M293.656 85.656L282.344 74.344L354.344 2.344C355.84 0.84 357.88 0 360 0H496V16H363.312L293.656 85.656Z" fill="#61668C"/>
<path d="M360 32H496V48H360V32Z" fill="#61668C"/>
<path d="M136 392H168V488H136V392Z" fill="#B6BCD6"/>
<path d="M200 360H232V488H200V360Z" fill="#7B8AC0"/>
<path d="M264 312H296V488H264V312Z" fill="#47599B"/>
<path d="M328 280H360V488H328V280Z" fill="#2B396C"/>
<path d="M500 328V240H524L484 200L444 240H468V328" fill="#6FA5FF"/>
<path d="M492 344H508V360H492V344Z" fill="#6FA5FF"/>
<path d="M492 376H508V392H492V376Z" fill="#6FA5FF"/>
</svg>
