<svg width="896" height="450" viewBox="0 0 896 450" fill="none" xmlns="http://www.w3.org/2000/svg">
<path d="M9.69775 351.982H183.932V448.965H9.69775V351.982Z" fill="#5771E5"/>
<path d="M193.964 348.638H-0.000488281L20.0649 318.54H173.899L174.568 319.544L184.266 334.091L193.964 348.638Z" fill="#1547C6"/>
<path d="M20.0649 268.377H173.899V318.54H20.0649V268.377Z" fill="#5771E5"/>
<path d="M183.932 255L180.588 268.377H13.3765L10.0322 255H183.932Z" fill="#89A8F5"/>
<path d="M150.49 305.163C150.49 303.39 151.194 301.688 152.449 300.434C153.703 299.18 155.404 298.475 157.178 298.475V288.442C155.404 288.442 153.703 287.738 152.449 286.483C151.194 285.229 150.49 283.528 150.49 281.754H43.4746C43.4746 283.528 42.7699 285.229 41.5156 286.483C40.2613 287.738 38.56 288.442 36.7861 288.442V298.475C38.56 298.475 40.2613 299.18 41.5156 300.434C42.7699 301.688 43.4746 303.39 43.4746 305.163H150.49Z" fill="#6E8BEB"/>
<path d="M9.69776 368.704C12.2699 368.704 14.7367 367.682 16.5555 365.863C18.3742 364.044 19.396 361.578 19.396 359.006V348.638H-0.000488281V359.006C-0.000488281 361.578 1.02129 364.044 2.84006 365.863C4.65884 367.682 7.12562 368.704 9.69776 368.704V368.704Z" fill="#2E43B5"/>
<path d="M29.0942 368.704C31.6664 368.704 34.1332 367.682 35.9519 365.863C37.7707 364.044 38.7925 361.578 38.7925 359.006V348.638H19.396V359.006C19.396 361.578 20.4178 364.044 22.2365 365.863C24.0553 367.682 26.5221 368.704 29.0942 368.704V368.704Z" fill="#2B396C"/>
<path d="M48.4907 368.704C51.0629 368.704 53.5296 367.682 55.3484 365.863C57.1672 364.044 58.189 361.578 58.189 359.006V348.638H38.7925V359.006C38.7925 361.578 39.8143 364.044 41.633 365.863C43.4518 367.682 45.9186 368.704 48.4907 368.704V368.704Z" fill="#2E43B5"/>
<path d="M87.2837 368.704C89.8558 368.704 92.3226 367.682 94.1414 365.863C95.9602 364.044 96.9819 361.578 96.9819 359.006V348.638H77.5854V359.006C77.5854 361.578 78.6072 364.044 80.426 365.863C82.2448 367.682 84.7116 368.704 87.2837 368.704V368.704Z" fill="#2E43B5"/>
<path d="M126.077 368.704C128.649 368.704 131.116 367.682 132.935 365.863C134.753 364.044 135.775 361.578 135.775 359.006V348.638H116.379V359.006C116.379 361.578 117.4 364.044 119.219 365.863C121.038 367.682 123.505 368.704 126.077 368.704V368.704Z" fill="#2E43B5"/>
<path d="M164.87 368.704C167.442 368.704 169.909 367.682 171.728 365.863C173.546 364.044 174.568 361.578 174.568 359.006V348.638H155.172V359.006C155.172 361.578 156.193 364.044 158.012 365.863C159.831 367.682 162.298 368.704 164.87 368.704V368.704Z" fill="#2E43B5"/>
<path d="M-0.000488281 348.638L20.0649 318.54Z" fill="#1547C6"/>
<path d="M58.8578 318.54L38.7925 348.638H19.396L39.4613 318.54H58.8578Z" fill="#2B396C"/>
<path d="M67.8872 368.704C70.4593 368.704 72.9261 367.682 74.7449 365.863C76.5637 364.044 77.5855 361.578 77.5855 359.006V348.638H58.189V359.006C58.189 361.578 59.2107 364.044 61.0295 365.863C62.8483 367.682 65.3151 368.704 67.8872 368.704V368.704Z" fill="#2B396C"/>
<path d="M97.6508 318.54L77.5855 348.638H58.189L78.2543 318.54H97.6508Z" fill="#2B396C"/>
<path d="M106.68 368.704C109.252 368.704 111.719 367.682 113.538 365.863C115.357 364.044 116.378 361.578 116.378 359.006V348.638H96.9819V359.006C96.9819 361.578 98.0037 364.044 99.8225 365.863C101.641 367.682 104.108 368.704 106.68 368.704V368.704Z" fill="#2B396C"/>
<path d="M136.444 318.54L116.378 348.638H96.9819L117.047 318.54H136.444Z" fill="#2B396C"/>
<path d="M145.473 368.704C148.046 368.704 150.512 367.682 152.331 365.863C154.15 364.044 155.172 361.578 155.172 359.006V348.638H135.775V359.006C135.775 361.578 136.797 364.044 138.616 365.863C140.434 367.682 142.901 368.704 145.473 368.704V368.704Z" fill="#2B396C"/>
<path d="M174.568 319.544L155.172 348.638H135.775L155.84 318.54H173.899L174.568 319.544Z" fill="#2B396C"/>
<path d="M184.266 368.704C186.838 368.704 189.305 367.682 191.124 365.863C192.943 364.044 193.964 361.578 193.964 359.006V348.638H174.568V359.006C174.568 361.578 175.59 364.044 177.408 365.863C179.227 367.682 181.694 368.704 184.266 368.704V368.704Z" fill="#2B396C"/>
<path d="M193.964 348.638H174.568L184.266 334.091L193.964 348.638Z" fill="#2B396C"/>
<path d="M23.4089 382.081H66.8838V422.211H23.4089V382.081Z" fill="#96CFFA"/>
<path d="M80.2607 382.081H113.703V448.965H80.2607V382.081Z" fill="#89A8F5"/>
<path d="M90.2937 418.867C92.1407 418.867 93.6379 417.37 93.6379 415.523C93.6379 413.676 92.1407 412.178 90.2937 412.178C88.4467 412.178 86.9495 413.676 86.9495 415.523C86.9495 417.37 88.4467 418.867 90.2937 418.867Z" fill="#6E8BEB"/>
<path d="M66.884 382.081V390.153L42.4962 414.545L37.7642 409.813L65.5003 382.081H66.884Z" fill="#7AB8F5"/>
<path d="M35.8076 404.512L23.4089 416.906V407.446L31.0756 399.78L35.8076 404.512Z" fill="#7AB8F5"/>
<path d="M34.3972 396.432L41.0845 389.745L45.8133 394.474L39.1259 401.161L34.3972 396.432Z" fill="#7AB8F5"/>
<path d="M127.08 382.081H170.555V422.211H127.08V382.081Z" fill="#96CFFA"/>
<path d="M170.555 382.081V390.153L146.167 414.545L141.435 409.813L169.171 382.081H170.555Z" fill="#7AB8F5"/>
<path d="M139.479 404.512L127.08 416.906V407.446L134.747 399.78L139.479 404.512Z" fill="#7AB8F5"/>
<path d="M138.061 396.447L144.748 389.759L149.477 394.488L142.79 401.175L138.061 396.447Z" fill="#7AB8F5"/>
<path d="M247.912 352.122H422.146V449.105H247.912V352.122Z" fill="#5771E5"/>
<path d="M432.178 348.778H238.213L258.279 318.68H412.113L412.782 319.683L422.48 334.231L432.178 348.778Z" fill="#1547C6"/>
<path d="M258.279 268.517H412.113V318.68H258.279V268.517Z" fill="#5771E5"/>
<path d="M422.146 255.14L418.801 268.517H251.59L248.246 255.14H422.146Z" fill="#89A8F5"/>
<path d="M388.704 305.303C388.704 303.529 389.408 301.828 390.663 300.574C391.917 299.32 393.618 298.615 395.392 298.615V288.582C393.618 288.582 391.917 287.878 390.663 286.623C389.408 285.369 388.704 283.668 388.704 281.894H281.688C281.688 283.668 280.984 285.369 279.729 286.623C278.475 287.878 276.774 288.582 275 288.582V298.615C276.774 298.615 278.475 299.32 279.729 300.574C280.984 301.828 281.688 303.529 281.688 305.303H388.704Z" fill="#6E8BEB"/>
<path d="M247.912 368.844C250.484 368.844 252.951 367.822 254.769 366.003C256.588 364.184 257.61 361.718 257.61 359.145V348.778H238.213V359.145C238.213 361.718 239.235 364.184 241.054 366.003C242.873 367.822 245.339 368.844 247.912 368.844V368.844Z" fill="#2E43B5"/>
<path d="M267.308 368.844C269.88 368.844 272.347 367.822 274.166 366.003C275.985 364.184 277.006 361.718 277.006 359.145V348.778H257.61V359.145C257.61 361.718 258.632 364.184 260.45 366.003C262.269 367.822 264.736 368.844 267.308 368.844V368.844Z" fill="#2B396C"/>
<path d="M286.705 368.844C289.277 368.844 291.744 367.822 293.562 366.003C295.381 364.184 296.403 361.718 296.403 359.145V348.778H277.006V359.145C277.006 361.718 278.028 364.184 279.847 366.003C281.666 367.822 284.132 368.844 286.705 368.844V368.844Z" fill="#2E43B5"/>
<path d="M325.498 368.844C328.07 368.844 330.536 367.822 332.355 366.003C334.174 364.184 335.196 361.718 335.196 359.145V348.778H315.799V359.145C315.799 361.718 316.821 364.184 318.64 366.003C320.459 367.822 322.925 368.844 325.498 368.844V368.844Z" fill="#2E43B5"/>
<path d="M364.291 368.844C366.863 368.844 369.329 367.822 371.148 366.003C372.967 364.184 373.989 361.718 373.989 359.145V348.778H354.592V359.145C354.592 361.718 355.614 364.184 357.433 366.003C359.252 367.822 361.718 368.844 364.291 368.844V368.844Z" fill="#2E43B5"/>
<path d="M403.083 368.844C405.656 368.844 408.122 367.822 409.941 366.003C411.76 364.184 412.782 361.718 412.782 359.145V348.778H393.385V359.145C393.385 361.718 394.407 364.184 396.226 366.003C398.045 367.822 400.511 368.844 403.083 368.844V368.844Z" fill="#2E43B5"/>
<path d="M238.213 348.778L258.279 318.68Z" fill="#1547C6"/>
<path d="M297.072 318.68L277.006 348.778H257.61L277.675 318.68H297.072Z" fill="#2B396C"/>
<path d="M306.101 368.844C308.673 368.844 311.14 367.822 312.959 366.003C314.778 364.184 315.799 361.718 315.799 359.145V348.778H296.403V359.145C296.403 361.718 297.425 364.184 299.243 366.003C301.062 367.822 303.529 368.844 306.101 368.844V368.844Z" fill="#2B396C"/>
<path d="M335.865 318.68L315.799 348.778H296.403L316.468 318.68H335.865Z" fill="#2B396C"/>
<path d="M344.894 368.844C347.466 368.844 349.933 367.822 351.752 366.003C353.571 364.184 354.592 361.718 354.592 359.145V348.778H335.196V359.145C335.196 361.718 336.218 364.184 338.036 366.003C339.855 367.822 342.322 368.844 344.894 368.844V368.844Z" fill="#2B396C"/>
<path d="M374.658 318.68L354.592 348.778H335.196L355.261 318.68H374.658Z" fill="#2B396C"/>
<path d="M383.687 368.844C386.259 368.844 388.726 367.822 390.545 366.003C392.364 364.184 393.386 361.718 393.386 359.145V348.778H373.989V359.145C373.989 361.718 375.011 364.184 376.83 366.003C378.648 367.822 381.115 368.844 383.687 368.844V368.844Z" fill="#2B396C"/>
<path d="M412.782 319.683L393.386 348.778H373.989L394.054 318.68H412.113L412.782 319.683Z" fill="#2B396C"/>
<path d="M422.48 368.844C425.052 368.844 427.519 367.822 429.338 366.003C431.156 364.184 432.178 361.718 432.178 359.145V348.778H412.782V359.145C412.782 361.718 413.804 364.184 415.622 366.003C417.441 367.822 419.908 368.844 422.48 368.844V368.844Z" fill="#2B396C"/>
<path d="M432.178 348.778H412.782L422.48 334.231L432.178 348.778Z" fill="#2B396C"/>
<path d="M261.623 382.22H305.098V422.351H261.623V382.22Z" fill="#96CFFA"/>
<path d="M318.475 382.22H351.917V449.105H318.475V382.22Z" fill="#89A8F5"/>
<path d="M328.507 419.007C330.354 419.007 331.852 417.51 331.852 415.663C331.852 413.816 330.354 412.318 328.507 412.318C326.66 412.318 325.163 413.816 325.163 415.663C325.163 417.51 326.66 419.007 328.507 419.007Z" fill="#6E8BEB"/>
<path d="M305.098 382.22V390.293L280.71 414.685L275.978 409.952L303.714 382.22H305.098Z" fill="#7AB8F5"/>
<path d="M274.022 404.652L261.623 417.046V407.586L269.289 399.92L274.022 404.652Z" fill="#7AB8F5"/>
<path d="M272.611 396.572L279.298 389.885L284.027 394.614L277.34 401.301L272.611 396.572Z" fill="#7AB8F5"/>
<path d="M365.294 382.22H408.769V422.351H365.294V382.22Z" fill="#96CFFA"/>
<path d="M408.769 382.22V390.293L384.381 414.685L379.649 409.952L407.385 382.22H408.769Z" fill="#7AB8F5"/>
<path d="M377.693 404.652L365.294 417.046V407.586L372.961 399.92L377.693 404.652Z" fill="#7AB8F5"/>
<path d="M376.275 396.586L382.962 389.899L387.691 394.628L381.003 401.315L376.275 396.586Z" fill="#7AB8F5"/>
<path d="M485.698 348.982H659.932V445.965H485.698V348.982Z" fill="#5771E5"/>
<path d="M669.964 345.638H476L496.065 315.54H649.899L650.568 316.544L660.266 331.091L669.964 345.638Z" fill="#1547C6"/>
<path d="M496.065 265.377H649.899V315.54H496.065V265.377Z" fill="#5771E5"/>
<path d="M659.932 252L656.588 265.377H489.376L486.032 252H659.932Z" fill="#89A8F5"/>
<path d="M626.49 302.163C626.49 300.39 627.194 298.688 628.449 297.434C629.703 296.18 631.404 295.475 633.178 295.475V285.442C631.404 285.442 629.703 284.738 628.449 283.483C627.194 282.229 626.49 280.528 626.49 278.754H519.475C519.475 280.528 518.77 282.229 517.516 283.483C516.261 284.738 514.56 285.442 512.786 285.442V295.475C514.56 295.475 516.261 296.18 517.516 297.434C518.77 298.688 519.475 300.39 519.475 302.163H626.49Z" fill="#6E8BEB"/>
<path d="M485.698 365.704C488.27 365.704 490.737 364.682 492.555 362.863C494.374 361.044 495.396 358.578 495.396 356.006V345.638H476V356.006C476 358.578 477.021 361.044 478.84 362.863C480.659 364.682 483.126 365.704 485.698 365.704V365.704Z" fill="#2E43B5"/>
<path d="M505.094 365.704C507.666 365.704 510.133 364.682 511.952 362.863C513.771 361.044 514.792 358.578 514.792 356.006V345.638H495.396V356.006C495.396 358.578 496.418 361.044 498.237 362.863C500.055 364.682 502.522 365.704 505.094 365.704V365.704Z" fill="#2B396C"/>
<path d="M524.491 365.704C527.063 365.704 529.53 364.682 531.348 362.863C533.167 361.044 534.189 358.578 534.189 356.006V345.638H514.792V356.006C514.792 358.578 515.814 361.044 517.633 362.863C519.452 364.682 521.919 365.704 524.491 365.704V365.704Z" fill="#2E43B5"/>
<path d="M563.284 365.704C565.856 365.704 568.323 364.682 570.141 362.863C571.96 361.044 572.982 358.578 572.982 356.006V345.638H553.585V356.006C553.585 358.578 554.607 361.044 556.426 362.863C558.245 364.682 560.712 365.704 563.284 365.704V365.704Z" fill="#2E43B5"/>
<path d="M602.077 365.704C604.649 365.704 607.116 364.682 608.935 362.863C610.753 361.044 611.775 358.578 611.775 356.006V345.638H592.379V356.006C592.379 358.578 593.4 361.044 595.219 362.863C597.038 364.682 599.505 365.704 602.077 365.704V365.704Z" fill="#2E43B5"/>
<path d="M640.87 365.704C643.442 365.704 645.909 364.682 647.728 362.863C649.546 361.044 650.568 358.578 650.568 356.006V345.638H631.172V356.006C631.172 358.578 632.193 361.044 634.012 362.863C635.831 364.682 638.298 365.704 640.87 365.704V365.704Z" fill="#2E43B5"/>
<path d="M476 345.638L496.065 315.54Z" fill="#1547C6"/>
<path d="M534.858 315.54L514.792 345.638H495.396L515.461 315.54H534.858Z" fill="#2B396C"/>
<path d="M543.887 365.704C546.459 365.704 548.926 364.682 550.745 362.863C552.564 361.044 553.585 358.578 553.585 356.006V345.638H534.189V356.006C534.189 358.578 535.211 361.044 537.03 362.863C538.848 364.682 541.315 365.704 543.887 365.704V365.704Z" fill="#2B396C"/>
<path d="M573.651 315.54L553.585 345.638H534.189L554.254 315.54H573.651Z" fill="#2B396C"/>
<path d="M582.68 365.704C585.252 365.704 587.719 364.682 589.538 362.863C591.357 361.044 592.378 358.578 592.378 356.006V345.638H572.982V356.006C572.982 358.578 574.004 361.044 575.822 362.863C577.641 364.682 580.108 365.704 582.68 365.704V365.704Z" fill="#2B396C"/>
<path d="M612.444 315.54L592.378 345.638H572.982L593.047 315.54H612.444Z" fill="#2B396C"/>
<path d="M621.473 365.704C624.045 365.704 626.512 364.682 628.331 362.863C630.15 361.044 631.171 358.578 631.171 356.006V345.638H611.775V356.006C611.775 358.578 612.797 361.044 614.615 362.863C616.434 364.682 618.901 365.704 621.473 365.704V365.704Z" fill="#2B396C"/>
<path d="M650.568 316.544L631.171 345.638H611.775L631.84 315.54H649.899L650.568 316.544Z" fill="#2B396C"/>
<path d="M660.266 365.704C662.838 365.704 665.305 364.682 667.124 362.863C668.943 361.044 669.964 358.578 669.964 356.006V345.638H650.568V356.006C650.568 358.578 651.59 361.044 653.408 362.863C655.227 364.682 657.694 365.704 660.266 365.704V365.704Z" fill="#2B396C"/>
<path d="M669.964 345.638H650.568L660.266 331.091L669.964 345.638Z" fill="#2B396C"/>
<path d="M499.409 379.081H542.884V419.211H499.409V379.081Z" fill="#96CFFA"/>
<path d="M556.261 379.081H589.703V445.965H556.261V379.081Z" fill="#89A8F5"/>
<path d="M566.293 415.867C568.14 415.867 569.638 414.37 569.638 412.523C569.638 410.676 568.14 409.178 566.293 409.178C564.446 409.178 562.949 410.676 562.949 412.523C562.949 414.37 564.446 415.867 566.293 415.867Z" fill="#6E8BEB"/>
<path d="M542.884 379.081V387.153L518.496 411.545L513.764 406.813L541.5 379.081H542.884Z" fill="#7AB8F5"/>
<path d="M511.808 401.512L499.409 413.906V404.446L507.076 396.78L511.808 401.512Z" fill="#7AB8F5"/>
<path d="M510.397 393.432L517.085 386.745L521.814 391.474L515.126 398.161L510.397 393.432Z" fill="#7AB8F5"/>
<path d="M603.08 379.081H646.555V419.211H603.08V379.081Z" fill="#96CFFA"/>
<path d="M646.555 379.081V387.153L622.167 411.545L617.435 406.813L645.171 379.081H646.555Z" fill="#7AB8F5"/>
<path d="M615.479 401.512L603.08 413.906V404.446L610.747 396.78L615.479 401.512Z" fill="#7AB8F5"/>
<path d="M614.061 393.447L620.748 386.759L625.477 391.488L618.79 398.175L614.061 393.447Z" fill="#7AB8F5"/>
<path d="M711.698 351.982H885.932V448.965H711.698V351.982Z" fill="#5771E5"/>
<path d="M895.964 348.638H702L722.065 318.54H875.899L876.568 319.544L886.266 334.091L895.964 348.638Z" fill="#1547C6"/>
<path d="M722.065 268.377H875.899V318.54H722.065V268.377Z" fill="#5771E5"/>
<path d="M885.932 255L882.588 268.377H715.376L712.032 255H885.932Z" fill="#89A8F5"/>
<path d="M852.49 305.163C852.49 303.39 853.194 301.688 854.449 300.434C855.703 299.18 857.404 298.475 859.178 298.475V288.442C857.404 288.442 855.703 287.738 854.449 286.483C853.194 285.229 852.49 283.528 852.49 281.754H745.474C745.474 283.528 744.77 285.229 743.515 286.483C742.261 287.738 740.56 288.442 738.786 288.442V298.475C740.56 298.475 742.261 299.18 743.515 300.434C744.77 301.688 745.474 303.39 745.474 305.163H852.49Z" fill="#6E8BEB"/>
<path d="M711.698 368.704C714.27 368.704 716.737 367.682 718.555 365.863C720.374 364.044 721.396 361.578 721.396 359.006V348.638H702V359.006C702 361.578 703.021 364.044 704.84 365.863C706.659 367.682 709.126 368.704 711.698 368.704V368.704Z" fill="#2E43B5"/>
<path d="M731.094 368.704C733.666 368.704 736.133 367.682 737.952 365.863C739.771 364.044 740.792 361.578 740.792 359.006V348.638H721.396V359.006C721.396 361.578 722.418 364.044 724.237 365.863C726.055 367.682 728.522 368.704 731.094 368.704V368.704Z" fill="#2B396C"/>
<path d="M750.491 368.704C753.063 368.704 755.53 367.682 757.349 365.863C759.167 364.044 760.189 361.578 760.189 359.006V348.638H740.793V359.006C740.793 361.578 741.814 364.044 743.633 365.863C745.452 367.682 747.919 368.704 750.491 368.704V368.704Z" fill="#2E43B5"/>
<path d="M789.284 368.704C791.856 368.704 794.323 367.682 796.141 365.863C797.96 364.044 798.982 361.578 798.982 359.006V348.638H779.585V359.006C779.585 361.578 780.607 364.044 782.426 365.863C784.245 367.682 786.712 368.704 789.284 368.704V368.704Z" fill="#2E43B5"/>
<path d="M828.077 368.704C830.649 368.704 833.116 367.682 834.934 365.863C836.753 364.044 837.775 361.578 837.775 359.006V348.638H818.379V359.006C818.379 361.578 819.4 364.044 821.219 365.863C823.038 367.682 825.505 368.704 828.077 368.704V368.704Z" fill="#2E43B5"/>
<path d="M866.87 368.704C869.442 368.704 871.909 367.682 873.728 365.863C875.546 364.044 876.568 361.578 876.568 359.006V348.638H857.172V359.006C857.172 361.578 858.193 364.044 860.012 365.863C861.831 367.682 864.298 368.704 866.87 368.704V368.704Z" fill="#2E43B5"/>
<path d="M702 348.638L722.065 318.54Z" fill="#1547C6"/>
<path d="M760.858 318.54L740.792 348.638H721.396L741.461 318.54H760.858Z" fill="#2B396C"/>
<path d="M769.887 368.704C772.459 368.704 774.926 367.682 776.745 365.863C778.564 364.044 779.585 361.578 779.585 359.006V348.638H760.189V359.006C760.189 361.578 761.211 364.044 763.03 365.863C764.848 367.682 767.315 368.704 769.887 368.704V368.704Z" fill="#2B396C"/>
<path d="M799.651 318.54L779.585 348.638H760.189L780.254 318.54H799.651Z" fill="#2B396C"/>
<path d="M808.68 368.704C811.252 368.704 813.719 367.682 815.538 365.863C817.357 364.044 818.379 361.578 818.379 359.006V348.638H798.982V359.006C798.982 361.578 800.004 364.044 801.823 365.863C803.641 367.682 806.108 368.704 808.68 368.704V368.704Z" fill="#2B396C"/>
<path d="M838.444 318.54L818.379 348.638H798.982L819.047 318.54H838.444Z" fill="#2B396C"/>
<path d="M847.473 368.704C850.046 368.704 852.512 367.682 854.331 365.863C856.15 364.044 857.172 361.578 857.172 359.006V348.638H837.775V359.006C837.775 361.578 838.797 364.044 840.616 365.863C842.434 367.682 844.901 368.704 847.473 368.704V368.704Z" fill="#2B396C"/>
<path d="M876.568 319.544L857.172 348.638H837.775L857.84 318.54H875.899L876.568 319.544Z" fill="#2B396C"/>
<path d="M886.266 368.704C888.838 368.704 891.305 367.682 893.124 365.863C894.943 364.044 895.964 361.578 895.964 359.006V348.638H876.568V359.006C876.568 361.578 877.59 364.044 879.409 365.863C881.227 367.682 883.694 368.704 886.266 368.704V368.704Z" fill="#2B396C"/>
<path d="M895.964 348.638H876.568L886.266 334.091L895.964 348.638Z" fill="#2B396C"/>
<path d="M725.409 382.081H768.884V422.211H725.409V382.081Z" fill="#96CFFA"/>
<path d="M782.261 382.081H815.703V448.965H782.261V382.081Z" fill="#89A8F5"/>
<path d="M792.294 418.867C794.141 418.867 795.638 417.37 795.638 415.523C795.638 413.676 794.141 412.178 792.294 412.178C790.447 412.178 788.949 413.676 788.949 415.523C788.949 417.37 790.447 418.867 792.294 418.867Z" fill="#6E8BEB"/>
<path d="M768.884 382.081V390.153L744.496 414.545L739.764 409.813L767.5 382.081H768.884Z" fill="#7AB8F5"/>
<path d="M737.808 404.512L725.409 416.906V407.446L733.076 399.78L737.808 404.512Z" fill="#7AB8F5"/>
<path d="M736.397 396.432L743.085 389.745L747.813 394.474L741.126 401.161L736.397 396.432Z" fill="#7AB8F5"/>
<path d="M829.08 382.081H872.555V422.211H829.08V382.081Z" fill="#96CFFA"/>
<path d="M872.555 382.081V390.153L848.167 414.545L843.435 409.813L871.171 382.081H872.555Z" fill="#7AB8F5"/>
<path d="M841.479 404.512L829.08 416.906V407.446L836.747 399.78L841.479 404.512Z" fill="#7AB8F5"/>
<path d="M840.061 396.447L846.748 389.759L851.477 394.488L844.79 401.175L840.061 396.447Z" fill="#7AB8F5"/>
<path d="M529 76.5V58.5L514.384 56.5515C512.989 49.77 510.298 43.4655 506.617 37.872L515.59 26.136L502.864 13.41L491.128 22.383C485.534 18.702 479.23 16.0155 472.448 14.616L470.5 0H452.5L450.551 14.616C443.77 16.011 437.465 18.702 431.872 22.383L420.136 13.41L407.41 26.136L416.383 37.872C412.702 43.4655 410.015 49.77 408.616 56.5515L394 58.5V76.5L408.616 78.4485C410.011 85.23 412.702 91.5345 416.383 97.128L407.41 108.864L420.136 121.59L431.872 112.617C437.465 116.298 443.77 118.984 450.551 120.384L452.5 135H470.5L472.448 120.384C479.23 118.989 485.534 116.298 491.128 112.617L502.864 121.59L515.59 108.864L506.617 97.128C510.298 91.5345 512.984 85.23 514.384 78.4485L529 76.5ZM461.5 103.5C441.619 103.5 425.5 87.381 425.5 67.5C425.5 47.619 441.619 31.5 461.5 31.5C481.381 31.5 497.5 47.619 497.5 67.5C497.5 87.381 481.381 103.5 461.5 103.5Z" fill="#2862BE"/>
<path d="M461.5 128V189.5M461.5 189.5H576M461.5 189.5H340.5M804.5 228.5V189.5H576M576 189.5V228.5M340.5 189.5V228.5M340.5 189.5H103V228.5" stroke="#2862BE" stroke-width="20"/>
</svg>
