<svg width="480" height="480" viewBox="0 0 480 480" fill="none" xmlns="http://www.w3.org/2000/svg">
<path d="M464 320V32H16V320" fill="#D4D9F0"/>
<path d="M48 32V264C48 272.84 55.16 280 64 280H368C376.84 280 384 272.84 384 264V32H48Z" fill="#E2E7F6"/>
<path d="M0 0H480V32H0V0Z" fill="#3F6D8E"/>
<path d="M0 320H480V352H0V320Z" fill="#3F6D8E"/>
<path d="M256 352V480H224V352" fill="#4A80AA"/>
<path d="M320 352L368 480H336L288 352" fill="#4A80AA"/>
<path d="M160 352L112 480H144L192 352" fill="#4A80AA"/>
<path d="M160 160H72.936L71.952 151.12C71.496 147.064 68.08 144 64 144H40V160H56.832L63.752 222.256C54.368 225.68 48 234.504 48 244.728V256C48 258.24 48.928 260.248 50.416 261.704C48.912 264.84 48 268.304 48 272C48 285.232 58.768 296 72 296C85.232 296 96 285.232 96 272C96 269.184 95.424 266.512 94.528 264H113.48C112.576 266.512 112 269.184 112 272C112 285.232 122.768 296 136 296C149.232 296 160 285.232 160 272C160 269.184 159.424 266.512 158.528 264H168V248H64V244.728C64 240.984 66.544 237.776 70.192 236.936L161.792 215.8C165.432 214.96 168 211.728 168 208V168C168 163.584 164.424 160 160 160V160ZM120 176V209.024L104 212.72V176H120ZM88 176V216.408L79.424 218.384L74.72 176H88ZM80 272C80 276.408 76.416 280 72 280C67.584 280 64 276.408 64 272C64 267.592 67.584 264 72 264C76.416 264 80 267.592 80 272ZM144 272C144 276.408 140.416 280 136 280C131.584 280 128 276.408 128 272C128 267.592 131.584 264 136 264C140.416 264 144 267.592 144 272ZM152 201.64L136 205.336V176H152V201.64Z" fill="#2862BE"/>
<path d="M438.104 74.832C436.584 73.032 434.352 72 432 72H384V88H408.872L320.152 157.712L277.128 121.856C274.328 119.536 270.368 119.384 267.416 121.448L187.416 177.448L196.584 190.56L271.576 138.064L314.872 174.144C317.768 176.552 321.968 176.616 324.944 174.288L420.712 99.04L416.104 126.68L431.888 129.312L439.888 81.312C440.28 79 439.624 76.624 438.104 74.832V74.832Z" fill="#2862BE"/>
<path d="M232 288H200V208L232 184V288Z" fill="#3279EA"/>
<path d="M296 288H264V160L296 184V288Z" fill="#3279EA"/>
<path d="M360 288H328V192L360 168V288Z" fill="#3279EA"/>
<path d="M232 360H224V464H232C236.416 464 240 460.416 240 456V368C240 363.584 236.416 360 232 360Z" fill="#3F6D8E"/>
</svg>
