<svg width="512" height="512" viewBox="0 0 512 512" fill="none" xmlns="http://www.w3.org/2000/svg">
<path d="M250.618 194.941H97.2581V5.92497C97.2581 2.76297 99.8221 0.198975 102.984 0.198975H244.891C248.053 0.198975 250.617 2.76297 250.617 5.92497V194.941H250.618Z" fill="#EAB14D"/>
<path d="M232.884 0.197998V194.94H250.617V5.925C250.617 2.763 248.053 0.198998 244.891 0.198998H232.884V0.197998Z" fill="#E49542"/>
<path d="M183.635 44.319H164.242C161.695 44.319 159.631 42.255 159.631 39.708V0.197998H188.246V39.708C188.246 42.255 186.181 44.319 183.635 44.319V44.319Z" fill="#6FA5FF"/>
<path d="M426.69 363.673H191.671V131.765C191.671 126.829 195.672 122.828 200.608 122.828H420.964C424.126 122.828 426.69 125.392 426.69 128.554V363.673Z" fill="#DD944D"/>
<path d="M408.957 122.828V363.673H426.69V128.554C426.69 125.392 424.126 122.828 420.964 122.828H408.957Z" fill="#ECBE6B"/>
<path d="M318.877 166.949H299.484C296.937 166.949 294.873 164.885 294.873 162.338V122.828H323.488V162.338C323.488 164.885 321.424 166.949 318.877 166.949V166.949Z" fill="#3782FF"/>
<path d="M276.981 511.802H7.322C3.278 511.802 0 508.524 0 504.48V328.192C0 325.029 2.564 322.466 5.726 322.466H270.893C274.255 322.466 276.981 325.192 276.981 328.554V511.802Z" fill="#EAB14D"/>
<path d="M259.248 322.466V511.802H276.981V328.554C276.981 325.192 274.255 322.466 270.893 322.466H259.248Z" fill="#E49542"/>
<path d="M148.187 366.587H128.794C126.247 366.587 124.183 364.523 124.183 361.976V322.466H152.798V361.976C152.798 364.523 150.734 366.587 148.187 366.587Z" fill="#3782FF"/>
<path d="M504.678 511.802H276.981V363.673H506.274C509.436 363.673 512 366.237 512 369.399V504.479C512 508.523 508.722 511.802 504.678 511.802Z" fill="#EAB14D"/>
<path d="M494.267 363.673V511.802H504.678C508.722 511.802 512 508.524 512 504.48V369.4C512 366.237 509.436 363.674 506.274 363.674H494.267V363.673Z" fill="#E49542"/>
<path d="M404.187 407.794H384.794C382.247 407.794 380.183 405.73 380.183 403.183V363.673H408.798V403.183C408.798 405.73 406.734 407.794 404.187 407.794Z" fill="#6FA5FF"/>
<path d="M191.671 322.466H38.312V200.667C38.312 197.505 40.876 194.941 44.038 194.941H191.671V322.466Z" fill="#DD944D"/>
<path d="M173.938 194.941H191.671V322.466H173.938V194.941Z" fill="#ECBE6B"/>
<path d="M124.688 239.062H105.295C102.748 239.062 100.684 236.998 100.684 234.451V194.941H129.299V234.451C129.299 236.998 127.235 239.062 124.688 239.062Z" fill="#6FA5FF"/>
</svg>
