<svg width="384" height="393" viewBox="0 0 384 393" fill="none" xmlns="http://www.w3.org/2000/svg">
<path d="M191.6 0L287.2 49.2L383.2 98L287.2 147.2L191.6 196.4L96 147.2L0 98L96 49.2L191.6 0Z" fill="#D9AC80"/>
<path d="M311.2 179.6V135.2L263.2 159.6V204L289.6 171.6L311.2 179.6Z" fill="#6D8CBF"/>
<path d="M191.6 196.4V392.8L383.2 294.8V98L311.2 135.2L309.6 136V179.2L289.6 171.6L263.2 204V159.6L191.6 196.4Z" fill="#A67E4F"/>
<path d="M191.6 392.8V196.4L96 147.2L0 98V294.8L191.6 392.8Z" fill="#926E43"/>
<path d="M72 61.2001L263.2 159.6L309.6 136L311.2 135.2L120 36.8L96 49.2001L72 61.2001Z" fill="#6FA5FF"/>
</svg>
