<svg width="810" height="715" viewBox="0 0 810 715" fill="none" xmlns="http://www.w3.org/2000/svg">
<path d="M415.784 704.837L415.396 697.997C421.743 695.424 426.092 689.089 425.683 681.876L425.262 674.433C424.748 665.375 416.962 658.424 407.904 658.936C404.644 659.121 401.852 656.628 401.667 653.368L401.246 645.925C401.065 642.669 403.557 639.877 406.813 639.689C410.073 639.504 412.865 641.997 413.05 645.257L413.261 648.979L423.785 648.383L423.575 644.662C423.166 637.457 418.126 631.649 411.533 629.812L411.145 622.964L400.62 623.56L401.008 630.407C394.662 632.98 390.313 639.316 390.721 646.521L391.143 653.964C391.656 663.022 399.442 669.973 408.5 669.461C411.76 669.276 414.552 671.769 414.737 675.029L415.159 682.472C415.34 685.728 412.847 688.52 409.591 688.708C406.331 688.893 403.539 686.4 403.354 683.14L403.143 679.418L392.619 680.014L392.83 683.735C393.086 688.261 395.162 692.269 398.303 695.074C400.163 696.735 402.421 697.902 404.868 698.589L405.256 705.436L415.784 704.837Z" fill="#2862BE"/>
<path d="M654 360C654 496.967 542.967 608 406 608C269.033 608 158 496.967 158 360" stroke="#61668C" stroke-width="13"/>
<path d="M654 360C654 223.033 542.967 112 406 112C269.033 112 158 223.033 158 360" stroke="#61668C" stroke-width="7" stroke-dasharray="20 20"/>
<path d="M86.5881 428.254L83.6529 278.27L167.137 276.636L170.072 426.62L86.5881 428.254Z" fill="#5771E5"/>
<path d="M80.6052 269.69L83.8728 436.658L57.626 419.893L55.0344 287.47L55.8867 286.877L68.246 278.284L80.6052 269.69Z" fill="#1547C6"/>
<path d="M14.4446 420.738L11.853 288.315L55.0344 287.47L57.626 419.893L14.4446 420.738Z" fill="#5771E5"/>
<path d="M0.168908 279.904L11.7403 282.558L14.5572 426.495L3.09851 429.6L0.168908 279.904Z" fill="#89A8F5"/>
<path d="M43.9138 307.846C42.3868 307.876 40.9105 307.298 39.8096 306.24C38.7087 305.181 38.0735 303.729 38.0436 302.202L29.4073 302.371C29.4372 303.898 28.8593 305.374 27.8006 306.475C26.742 307.576 25.2895 308.211 23.7625 308.241L25.5653 400.361C27.0923 400.331 28.5686 400.909 29.6695 401.968C30.7704 403.026 31.4056 404.479 31.4355 406.006L40.0718 405.837C40.0419 404.31 40.6198 402.834 41.6784 401.733C42.7371 400.632 44.1896 399.997 45.7166 399.967L43.9138 307.846Z" fill="#6E8BEB"/>
<path d="M100.982 427.972C100.939 425.758 100.018 423.652 98.4214 422.117C96.8251 420.582 94.6844 419.744 92.4703 419.787L83.5462 419.962L83.8729 436.658L92.7971 436.484C95.0112 436.44 97.1174 435.519 98.6524 433.923C100.187 432.327 101.025 430.186 100.982 427.972V427.972Z" fill="#2E43B5"/>
<path d="M100.655 411.275C100.612 409.061 99.691 406.955 98.0947 405.42C96.4984 403.885 94.3578 403.047 92.1437 403.09L83.2195 403.265L83.5463 419.962L92.4704 419.787C94.6845 419.744 96.7908 418.823 98.3258 417.226C99.8608 415.63 100.699 413.489 100.655 411.275V411.275Z" fill="#2B396C"/>
<path d="M100.329 394.578C100.285 392.364 99.3642 390.258 97.7679 388.723C96.1717 387.188 94.031 386.35 91.8169 386.393L82.8927 386.568L83.2195 403.265L92.1436 403.09C94.3578 403.047 96.464 402.126 97.999 400.53C99.534 398.933 100.372 396.793 100.329 394.578V394.578Z" fill="#2E43B5"/>
<path d="M99.6752 361.185C99.6319 358.971 98.7108 356.865 97.1145 355.33C95.5182 353.795 93.3776 352.957 91.1634 353L82.2393 353.175L82.566 369.871L91.4902 369.697C93.7043 369.653 95.8106 368.732 97.3455 367.136C98.8805 365.54 99.7185 363.399 99.6752 361.185V361.185Z" fill="#2E43B5"/>
<path d="M99.0216 327.791C98.9783 325.577 98.0572 323.471 96.4609 321.936C94.8647 320.401 92.724 319.563 90.5099 319.606L81.5857 319.781L81.9125 336.478L90.8366 336.303C93.0508 336.26 95.157 335.338 96.692 333.742C98.227 332.146 99.065 330.005 99.0216 327.791V327.791Z" fill="#2E43B5"/>
<path d="M98.3682 294.397C98.3249 292.183 97.4038 290.077 95.8075 288.542C94.2112 287.007 92.0706 286.169 89.8564 286.212L80.9323 286.387L81.259 303.084L90.1832 302.909C92.3973 302.866 94.5036 301.945 96.0385 300.348C97.5735 298.752 98.4115 296.611 98.3682 294.397V294.397Z" fill="#2E43B5"/>
<path d="M83.8728 436.658L57.626 419.893Z" fill="#1547C6"/>
<path d="M56.9724 386.499L83.2193 403.265L83.546 419.961L57.2992 403.196L56.9724 386.499Z" fill="#2B396C"/>
<path d="M100.002 377.881C99.9585 375.667 99.0374 373.561 97.4412 372.026C95.8449 370.491 93.7042 369.653 91.4901 369.696L82.5659 369.871L82.8927 386.568L91.8168 386.393C94.031 386.35 96.1372 385.429 97.6722 383.833C99.2072 382.236 100.045 380.096 100.002 377.881V377.881Z" fill="#2B396C"/>
<path d="M56.319 353.106L82.5658 369.871L82.8926 386.568L56.6457 369.802L56.319 353.106Z" fill="#2B396C"/>
<path d="M99.3483 344.488C99.305 342.274 98.3839 340.168 96.7876 338.633C95.1913 337.098 93.0507 336.26 90.8365 336.303L81.9124 336.478L82.2391 353.174L91.1633 353C93.3774 352.956 95.4837 352.035 97.0186 350.439C98.5536 348.843 99.3916 346.702 99.3483 344.488V344.488Z" fill="#2B396C"/>
<path d="M55.6654 319.712L81.9123 336.478L82.239 353.174L55.9922 336.409L55.6654 319.712Z" fill="#2B396C"/>
<path d="M98.6947 311.094C98.6514 308.88 97.7303 306.774 96.134 305.239C94.5378 303.704 92.3971 302.866 90.183 302.909L81.2588 303.084L81.5856 319.781L90.5097 319.606C92.7239 319.563 94.8301 318.641 96.3651 317.045C97.9001 315.449 98.7381 313.308 98.6947 311.094V311.094Z" fill="#2B396C"/>
<path d="M55.8867 286.877L81.2587 303.084L81.5855 319.781L55.3386 303.015L55.0344 287.47L55.8867 286.877Z" fill="#2B396C"/>
<path d="M98.0413 277.701C97.998 275.487 97.0768 273.38 95.4806 271.845C93.8843 270.31 91.7436 269.472 89.5295 269.516L80.6054 269.69L80.9321 286.387L89.8563 286.213C92.0704 286.169 94.1766 285.248 95.7116 283.652C97.2466 282.056 98.0846 279.915 98.0413 277.701V277.701Z" fill="#2B396C"/>
<path d="M80.6051 269.69L80.9319 286.387L68.2459 278.284L80.6051 269.69Z" fill="#2B396C"/>
<path d="M112.266 415.944L111.534 378.52L146.079 377.844L146.811 415.268L112.266 415.944Z" fill="#96CFFA"/>
<path d="M111.308 367.005L110.745 338.217L168.32 337.091L168.884 365.878L111.308 367.005Z" fill="#89A8F5"/>
<path d="M142.806 357.749C142.774 356.159 141.46 354.895 139.87 354.926C138.281 354.957 137.017 356.271 137.048 357.861C137.079 359.451 138.393 360.715 139.983 360.684C141.573 360.653 142.837 359.338 142.806 357.749Z" fill="#6E8BEB"/>
<path d="M111.534 378.52L118.482 378.384L139.89 398.966L135.896 403.119L111.557 379.711L111.534 378.52Z" fill="#7AB8F5"/>
<path d="M131.366 404.893L142.245 415.357L134.101 415.516L127.373 409.046L131.366 404.893Z" fill="#7AB8F5"/>
<path d="M124.435 406.243L118.566 400.599L122.557 396.449L128.426 402.093L124.435 406.243Z" fill="#7AB8F5"/>
<path d="M110.52 326.702L109.787 289.278L144.332 288.602L145.065 326.026L110.52 326.702Z" fill="#96CFFA"/>
<path d="M109.787 289.278L116.736 289.142L138.144 309.725L134.15 313.878L109.811 290.469L109.787 289.278Z" fill="#7AB8F5"/>
<path d="M129.62 315.651L140.498 326.115L132.355 326.275L125.626 319.804L129.62 315.651Z" fill="#7AB8F5"/>
<path d="M122.701 317.008L116.832 311.364L120.823 307.213L126.692 312.857L122.701 317.008Z" fill="#7AB8F5"/>
<path d="M722.647 429.254L725.583 279.27L642.099 277.636L639.163 427.62L722.647 429.254Z" fill="#5771E5"/>
<path d="M728.63 270.69L725.363 437.658L751.61 420.893L754.201 288.47L753.349 287.877L740.99 279.284L728.63 270.69Z" fill="#1547C6"/>
<path d="M794.791 421.738L797.383 289.315L754.201 288.47L751.61 420.893L794.791 421.738Z" fill="#5771E5"/>
<path d="M809.067 280.904L797.495 283.558L794.678 427.495L806.137 430.6L809.067 280.904Z" fill="#89A8F5"/>
<path d="M765.322 308.846C766.849 308.876 768.325 308.298 769.426 307.24C770.527 306.181 771.162 304.729 771.192 303.202L779.828 303.371C779.798 304.898 780.376 306.374 781.435 307.475C782.494 308.576 783.946 309.211 785.473 309.241L783.67 401.361C782.143 401.331 780.667 401.909 779.566 402.968C778.465 404.026 777.83 405.479 777.8 407.006L769.164 406.837C769.194 405.31 768.616 403.834 767.557 402.733C766.499 401.632 765.046 400.997 763.519 400.967L765.322 308.846Z" fill="#6E8BEB"/>
<path d="M708.253 428.972C708.297 426.758 709.218 424.652 710.814 423.117C712.41 421.582 714.551 420.744 716.765 420.787L725.689 420.962L725.363 437.658L716.439 437.484C714.224 437.44 712.118 436.519 710.583 434.923C709.048 433.327 708.21 431.186 708.253 428.972V428.972Z" fill="#2E43B5"/>
<path d="M708.58 412.275C708.623 410.061 709.545 407.955 711.141 406.42C712.737 404.885 714.878 404.047 717.092 404.09L726.016 404.265L725.689 420.962L716.765 420.787C714.551 420.744 712.445 419.823 710.91 418.226C709.375 416.63 708.537 414.489 708.58 412.275V412.275Z" fill="#2B396C"/>
<path d="M708.907 395.578C708.95 393.364 709.871 391.258 711.468 389.723C713.064 388.188 715.205 387.35 717.419 387.393L726.343 387.568L726.016 404.265L717.092 404.09C714.878 404.047 712.772 403.126 711.237 401.53C709.702 399.933 708.864 397.793 708.907 395.578V395.578Z" fill="#2E43B5"/>
<path d="M709.56 362.185C709.604 359.971 710.525 357.865 712.121 356.33C713.717 354.795 715.858 353.957 718.072 354L726.996 354.175L726.67 370.871L717.745 370.697C715.531 370.653 713.425 369.732 711.89 368.136C710.355 366.54 709.517 364.399 709.56 362.185V362.185Z" fill="#2E43B5"/>
<path d="M710.214 328.791C710.257 326.577 711.178 324.471 712.775 322.936C714.371 321.401 716.512 320.563 718.726 320.606L727.65 320.781L727.323 337.478L718.399 337.303C716.185 337.26 714.079 336.338 712.544 334.742C711.009 333.146 710.171 331.005 710.214 328.791V328.791Z" fill="#2E43B5"/>
<path d="M710.867 295.397C710.911 293.183 711.832 291.077 713.428 289.542C715.024 288.007 717.165 287.169 719.379 287.212L728.303 287.387L727.977 304.084L719.052 303.909C716.838 303.866 714.732 302.945 713.197 301.348C711.662 299.752 710.824 297.611 710.867 295.397V295.397Z" fill="#2E43B5"/>
<path d="M725.363 437.658L751.61 420.893Z" fill="#1547C6"/>
<path d="M752.263 387.499L726.016 404.265L725.69 420.961L751.936 404.196L752.263 387.499Z" fill="#2B396C"/>
<path d="M709.234 378.881C709.277 376.667 710.198 374.561 711.794 373.026C713.391 371.491 715.531 370.653 717.746 370.696L726.67 370.871L726.343 387.568L717.419 387.393C715.205 387.35 713.098 386.429 711.563 384.833C710.028 383.236 709.19 381.096 709.234 378.881V378.881Z" fill="#2B396C"/>
<path d="M752.917 354.106L726.67 370.871L726.343 387.568L752.59 370.802L752.917 354.106Z" fill="#2B396C"/>
<path d="M709.887 345.488C709.931 343.274 710.852 341.168 712.448 339.633C714.044 338.098 716.185 337.26 718.399 337.303L727.323 337.478L726.996 354.174L718.072 354C715.858 353.956 713.752 353.035 712.217 351.439C710.682 349.843 709.844 347.702 709.887 345.488V345.488Z" fill="#2B396C"/>
<path d="M753.57 320.712L727.323 337.478L726.997 354.174L753.243 337.409L753.57 320.712Z" fill="#2B396C"/>
<path d="M710.541 312.094C710.584 309.88 711.505 307.774 713.102 306.239C714.698 304.704 716.839 303.866 719.053 303.909L727.977 304.084L727.65 320.781L718.726 320.606C716.512 320.563 714.406 319.641 712.871 318.045C711.336 316.449 710.498 314.308 710.541 312.094V312.094Z" fill="#2B396C"/>
<path d="M753.349 287.877L727.977 304.084L727.65 320.781L753.897 304.015L754.201 288.47L753.349 287.877Z" fill="#2B396C"/>
<path d="M711.194 278.701C711.238 276.487 712.159 274.38 713.755 272.845C715.351 271.31 717.492 270.472 719.706 270.516L728.63 270.69L728.303 287.387L719.379 287.213C717.165 287.169 715.059 286.248 713.524 284.652C711.989 283.056 711.151 280.915 711.194 278.701V278.701Z" fill="#2B396C"/>
<path d="M728.63 270.69L728.304 287.387L740.99 279.284L728.63 270.69Z" fill="#2B396C"/>
<path d="M696.969 416.944L697.702 379.52L663.157 378.844L662.424 416.268L696.969 416.944Z" fill="#96CFFA"/>
<path d="M697.927 368.005L698.491 339.217L640.915 338.091L640.352 366.878L697.927 368.005Z" fill="#89A8F5"/>
<path d="M666.43 358.749C666.461 357.159 667.775 355.895 669.365 355.926C670.955 355.957 672.219 357.271 672.188 358.861C672.156 360.451 670.842 361.715 669.252 361.684C667.663 361.653 666.399 360.338 666.43 358.749Z" fill="#6E8BEB"/>
<path d="M697.702 379.52L690.753 379.384L669.345 399.966L673.339 404.119L697.679 380.711L697.702 379.52Z" fill="#7AB8F5"/>
<path d="M677.869 405.893L666.991 416.357L675.134 416.516L681.863 410.046L677.869 405.893Z" fill="#7AB8F5"/>
<path d="M684.8 407.243L690.669 401.599L686.679 397.449L680.809 403.093L684.8 407.243Z" fill="#7AB8F5"/>
<path d="M698.716 327.702L699.448 290.278L664.903 289.602L664.171 327.026L698.716 327.702Z" fill="#96CFFA"/>
<path d="M699.448 290.278L692.5 290.142L671.092 310.725L675.086 314.878L699.425 291.469L699.448 290.278Z" fill="#7AB8F5"/>
<path d="M679.616 316.651L668.737 327.115L676.881 327.275L683.609 320.804L679.616 316.651Z" fill="#7AB8F5"/>
<path d="M686.535 318.008L692.404 312.364L688.413 308.213L682.544 313.857L686.535 318.008Z" fill="#7AB8F5"/>
<path d="M399.658 6.14255L399.729 13.4819C392.807 15.9158 387.834 22.4765 387.908 30.2152L387.985 38.2015C388.078 47.9208 396.06 55.7521 405.779 55.6597C409.277 55.6265 412.14 58.4347 412.173 61.9327L412.25 69.9189C412.279 73.413 409.471 76.275 405.977 76.3122C402.479 76.3454 399.617 73.5373 399.584 70.0393L399.545 66.0461L388.253 66.1534L388.291 70.1466C388.365 77.8773 393.467 84.3462 400.43 86.6442L400.5 93.9916L411.793 93.8843L411.722 86.5369C418.644 84.103 423.616 77.5424 423.542 69.8116L423.466 61.8254C423.373 52.1061 415.391 44.2748 405.671 44.3671C402.173 44.4004 399.311 41.5922 399.277 38.0942L399.201 30.1079C399.171 26.6139 401.979 23.7518 405.473 23.7146C408.971 23.6814 411.834 26.4896 411.867 29.9876L411.905 33.9807L423.198 33.8734L423.16 29.8803C423.113 25.0246 421.094 20.631 417.873 17.4708C415.966 15.6 413.609 14.2366 411.025 13.3786L410.955 6.03124L399.658 6.14255Z" fill="#2862BE"/>
</svg>
