<svg xmlns="http://www.w3.org/2000/svg" xmlns:xlink="http://www.w3.org/1999/xlink" viewBox="0 0 333.36 105.57"><defs><style>.cls-1{fill:#565656;}.cls-2{fill:url(#Gradiente_sem_nome_11);}.cls-3{fill:url(#Gradiente_sem_nome_11-2);}.cls-4{fill:url(#Gradiente_sem_nome_11-3);}</style><linearGradient id="Gradiente_sem_nome_11" x1="238.19" y1="28.65" x2="334.85" y2="28.65" gradientUnits="userSpaceOnUse"><stop offset="0" stop-color="#15baff"/><stop offset="1" stop-color="#857fff"/></linearGradient><linearGradient id="Gradiente_sem_nome_11-2" x1="238.19" y1="35.26" x2="334.85" y2="35.26" xlink:href="#Gradiente_sem_nome_11"/><linearGradient id="Gradiente_sem_nome_11-3" x1="238.19" y1="76.14" x2="334.85" y2="76.14" xlink:href="#Gradiente_sem_nome_11"/></defs><title>venda.la-color</title><g id="Camada_2" data-name="Camada 2"><g id="Camada_1-2" data-name="Camada 1"><path class="cls-1" d="M.43,16.58a2.87,2.87,0,0,1-.26-2.44c.29-.67,1-1,2.07-1h8.89A2.54,2.54,0,0,1,13.67,15c.39,1.23.83,2.61,1.3,4.14s1,3.1,1.5,4.71L18,28.65,19.42,33c.43,1.34.81,2.49,1.15,3.48s.58,1.68.74,2.1L28.68,15a3.1,3.1,0,0,1,1-1.49,2.84,2.84,0,0,1,1.61-.38h9.14a3.81,3.81,0,0,1,1.53.24,1.3,1.3,0,0,1,.7.66,1.7,1.7,0,0,1,.07,1,6.3,6.3,0,0,1-.35,1.13L25.87,55.78A4.47,4.47,0,0,1,25,56.84a2.38,2.38,0,0,1-1.56.43H19.26a3.54,3.54,0,0,1-2-.4,2.32,2.32,0,0,1-.85-1.09Z"/><path class="cls-1" d="M78.69,52a23.33,23.33,0,0,1-6.88,4.4A21.07,21.07,0,0,1,63.71,58a23.68,23.68,0,0,1-16.44-6.55,23.11,23.11,0,0,1-5.07-7.25,21.85,21.85,0,0,1-1.88-9.07,23.26,23.26,0,0,1,.75-5.92,23,23,0,0,1,5.45-10,21.43,21.43,0,0,1,15.69-6.76,20.52,20.52,0,0,1,5.6.77,21.63,21.63,0,0,1,5.09,2.15,22,22,0,0,1,4.36,3.34A22.32,22.32,0,0,1,80.67,23a20.65,20.65,0,0,1,2.2,4.94,18.52,18.52,0,0,1,.79,5.4c0,1.21,0,2.19-.06,3a3.33,3.33,0,0,1-.53,1.82,2.65,2.65,0,0,1-1.62.94,16.08,16.08,0,0,1-3.32.26h-25A8.52,8.52,0,0,0,57,45.37a9.87,9.87,0,0,0,3,1.27,12.7,12.7,0,0,0,2.95.38,13.68,13.68,0,0,0,2.58-.26,17.73,17.73,0,0,0,2.55-.7,13.76,13.76,0,0,0,2.26-1,8.19,8.19,0,0,0,1.65-1.2,7.07,7.07,0,0,1,1-.68,1.69,1.69,0,0,1,.85-.23,1.65,1.65,0,0,1,.92.32,8.1,8.1,0,0,1,1.06.9l3.68,4.17a2.21,2.21,0,0,1,.49.82,2.64,2.64,0,0,1,.1.74,1.93,1.93,0,0,1-.38,1.2A4.46,4.46,0,0,1,78.69,52ZM62,23a6.61,6.61,0,0,0-2.62.54A9.88,9.88,0,0,0,57,25a12.51,12.51,0,0,0-2,2.05,12.68,12.68,0,0,0-1.44,2.33H71.28a19.35,19.35,0,0,0-1.58-2.5,10.63,10.63,0,0,0-1.94-2,8.3,8.3,0,0,0-2.51-1.35A9.85,9.85,0,0,0,62,23Z"/><path class="cls-1" d="M87.82,13.76a2.1,2.1,0,0,1,1-.49,4.58,4.58,0,0,1,1-.1H95a2.21,2.21,0,0,1,1.84.83,3.27,3.27,0,0,1,.51.87c.12.32.25.66.36,1l.73,3.05a8.49,8.49,0,0,1,1.69-2.22A12.53,12.53,0,0,1,103,14.63a18.14,18.14,0,0,1,4-1.55,19.68,19.68,0,0,1,5-.6A15.8,15.8,0,0,1,119.08,14a15.59,15.59,0,0,1,5.28,4.16,18.53,18.53,0,0,1,3.31,6.16,24.5,24.5,0,0,1,1.13,7.51V54.6a3,3,0,0,1-.58,2,2.23,2.23,0,0,1-1.82.68h-8a3.14,3.14,0,0,1-2.05-.5,2.65,2.65,0,0,1-.56-2V32.18a6.2,6.2,0,0,0-.67-2.83A8.42,8.42,0,0,0,113.3,27a8.62,8.62,0,0,0-2.52-1.62,7.45,7.45,0,0,0-2.87-.59,6.49,6.49,0,0,0-2.56.55A8.91,8.91,0,0,0,103,26.88a9.19,9.19,0,0,0-1.85,2.33,6.92,6.92,0,0,0-.85,2.9V54.7a3.28,3.28,0,0,1-.22,1.18,1.88,1.88,0,0,1-.68.91,3.44,3.44,0,0,1-.85.38,3.65,3.65,0,0,1-.92.1H89.73a2.44,2.44,0,0,1-2.81-2.67V15.73a2.63,2.63,0,0,1,.29-1.21,2.22,2.22,0,0,1,.82-.87Z"/><path class="cls-1" d="M164.59,52.93a24,24,0,0,1-2.14,1.86,18.06,18.06,0,0,1-2.61,1.65,15.41,15.41,0,0,1-3,1.18,12.72,12.72,0,0,1-3.42.45,20.94,20.94,0,0,1-15.56-6.62,22.37,22.37,0,0,1-4.48-7.24,24.55,24.55,0,0,1-1.61-9,24.45,24.45,0,0,1,1.61-9A22.43,22.43,0,0,1,137.84,19a20.76,20.76,0,0,1,6.85-4.83,21.32,21.32,0,0,1,8.71-1.76,17.17,17.17,0,0,1,3.49.33,12.49,12.49,0,0,1,2.88,1,12.23,12.23,0,0,1,2.4,1.49,19.6,19.6,0,0,1,2.07,1.91V2.64a2.7,2.7,0,0,1,.68-1.88A2.6,2.6,0,0,1,167,0h7.82a2.59,2.59,0,0,1,.95.19,3.14,3.14,0,0,1,.92.54,2.73,2.73,0,0,1,.68.83,2.21,2.21,0,0,1,.26,1.08v52c0,1.78-.94,2.67-2.81,2.67H168a2.76,2.76,0,0,1-1.08-.17,1.69,1.69,0,0,1-.64-.51,3.23,3.23,0,0,1-.47-.83c-.14-.34-.32-.72-.52-1.16ZM144.26,35.24a12.54,12.54,0,0,0,.71,4.29A10.11,10.11,0,0,0,147,43a9.65,9.65,0,0,0,7.3,3.16,10.89,10.89,0,0,0,4.19-.8,10.55,10.55,0,0,0,3.42-2.21,10.94,10.94,0,0,0,3.34-7.41v-.49a10.91,10.91,0,0,0-.84-4.24,11,11,0,0,0-5.78-6,10.62,10.62,0,0,0-4.33-.89,9.46,9.46,0,0,0-4.12.89A9.71,9.71,0,0,0,147,27.45,10.92,10.92,0,0,0,145,31,12.5,12.5,0,0,0,144.26,35.24Z"/><path class="cls-1" d="M228.25,54.7a3.1,3.1,0,0,1-.21,1.13,1.72,1.72,0,0,1-.7.85,1.67,1.67,0,0,1-.9.49,4.64,4.64,0,0,1-.9.1h-6.85a3,3,0,0,1-1.18-.19,1.84,1.84,0,0,1-.73-.54,3,3,0,0,1-.47-.85c-.13-.33-.26-.7-.4-1.09L215.46,53a19.88,19.88,0,0,1-2.14,1.84,15.79,15.79,0,0,1-2.64,1.62,16,16,0,0,1-3.09,1.15,13.38,13.38,0,0,1-3.43.43,22.84,22.84,0,0,1-6.06-.8,22.17,22.17,0,0,1-10-5.82,23,23,0,0,1-3.53-4.6,23.1,23.1,0,0,1-3.07-11.61,22.52,22.52,0,0,1,22.65-22.8,15.59,15.59,0,0,1,4,.49,14.84,14.84,0,0,1,3.4,1.32,13.42,13.42,0,0,1,2.8,2,14.45,14.45,0,0,1,2.19,2.52l1-3.17.57-1.4a2.51,2.51,0,0,1,.49-.8,1.26,1.26,0,0,1,.64-.35,5,5,0,0,1,1.08-.09h5.18a4.75,4.75,0,0,1,.9.11,1.72,1.72,0,0,1,.9.48,2.27,2.27,0,0,1,.7.87,2.82,2.82,0,0,1,.21,1.11ZM194,35.24a12.54,12.54,0,0,0,.71,4.29,10.11,10.11,0,0,0,2,3.46,9.65,9.65,0,0,0,7.3,3.16,10.93,10.93,0,0,0,4.33-.85A11.09,11.09,0,0,0,211.86,43a10.3,10.3,0,0,0,2.31-3.46,11.25,11.25,0,0,0,0-8.53,11,11,0,0,0-5.78-6,10.62,10.62,0,0,0-4.33-.89,9.46,9.46,0,0,0-4.12.89,9.71,9.71,0,0,0-3.18,2.41,10.92,10.92,0,0,0-2,3.55A12.5,12.5,0,0,0,194,35.24Z"/><path class="cls-2" d="M252.06,2.68A3.13,3.13,0,0,1,252.62.8,2.21,2.21,0,0,1,254.53,0h8.52a1.62,1.62,0,0,1,.73.19,2.48,2.48,0,0,1,.71.53,3.13,3.13,0,0,1,.55.84,2.38,2.38,0,0,1,.23,1.08V54.6a2.54,2.54,0,0,1-.75,2,2.73,2.73,0,0,1-1.93.68h-8.06a2.32,2.32,0,0,1-1.91-.68,3.07,3.07,0,0,1-.56-2Z"/><path class="cls-3" d="M319,54.7a3.1,3.1,0,0,1-.21,1.13,2.73,2.73,0,0,1-1.59,1.34,4.66,4.66,0,0,1-.91.1h-6.84a3.05,3.05,0,0,1-1.19-.19,1.91,1.91,0,0,1-.73-.54,3.25,3.25,0,0,1-.47-.85c-.12-.33-.26-.7-.39-1.09L306.24,53a18.82,18.82,0,0,1-2.13,1.84,15.49,15.49,0,0,1-2.65,1.62,16,16,0,0,1-3.09,1.15,13.36,13.36,0,0,1-3.42.43,22.91,22.91,0,0,1-6.07-.8,22.17,22.17,0,0,1-10-5.82,22.91,22.91,0,0,1-3.52-4.6,22.32,22.32,0,0,1-2.28-5.48,23.31,23.31,0,0,1-.8-6.13A22.78,22.78,0,0,1,278.89,19,22.57,22.57,0,0,1,295,12.44a15.52,15.52,0,0,1,4,.49,14.92,14.92,0,0,1,3.41,1.32,13.69,13.69,0,0,1,2.8,2,15.35,15.35,0,0,1,2.19,2.52l1-3.17c.23-.57.43-1,.58-1.4a2.51,2.51,0,0,1,.48-.8,1.29,1.29,0,0,1,.65-.35,4.88,4.88,0,0,1,1.07-.09h5.18a4.75,4.75,0,0,1,.91.11,1.8,1.8,0,0,1,.9.48,2.33,2.33,0,0,1,.69.87,2.82,2.82,0,0,1,.21,1.11ZM284.8,35.24a12.79,12.79,0,0,0,.71,4.29,10.29,10.29,0,0,0,2,3.46,9.65,9.65,0,0,0,7.29,3.16,10.86,10.86,0,0,0,4.33-.85A11.25,11.25,0,0,0,302.65,43,10.61,10.61,0,0,0,305,39.53,11.37,11.37,0,0,0,305,31a11.45,11.45,0,0,0-2.31-3.55A11.18,11.18,0,0,0,299.17,25a10.55,10.55,0,0,0-4.33-.89,9.45,9.45,0,0,0-4.11.89,9.71,9.71,0,0,0-3.18,2.41,11.13,11.13,0,0,0-2,3.55A12.75,12.75,0,0,0,284.8,35.24Z"/><path class="cls-4" d="M320.74,56.48a36.47,36.47,0,0,1-72.93.73c0-.3,0-.2,0-.3l.06-8.64a1.4,1.4,0,0,0-.52-1.14,1.75,1.75,0,0,0-1.12-.43h-9.46a1.53,1.53,0,0,0-1.18.43,1.6,1.6,0,0,0-.4,1.14v8.65s0,.06,0,.1a49.09,49.09,0,0,0,98.17-.54Z"/></g></g></svg>