<svg xmlns="http://www.w3.org/2000/svg" xmlns:xlink="http://www.w3.org/1999/xlink" viewBox="0 0 133.12 143.1"><defs><style>.cls-1{fill:url(#Gradiente_sem_nome_11);}.cls-2{fill:url(#Gradiente_sem_nome_11-2);}.cls-3{fill:url(#Gradiente_sem_nome_11-3);}</style><linearGradient id="Gradiente_sem_nome_11" x1="-2.64" y1="38.8" x2="128.86" y2="38.8" gradientUnits="userSpaceOnUse"><stop offset="0" stop-color="#15baff"/><stop offset="1" stop-color="#857fff"/></linearGradient><linearGradient id="Gradiente_sem_nome_11-2" x1="-2.64" y1="47.76" x2="128.86" y2="47.76" xlink:href="#Gradiente_sem_nome_11"/><linearGradient id="Gradiente_sem_nome_11-3" x1="-2.64" y1="103.19" x2="128.86" y2="103.19" xlink:href="#Gradiente_sem_nome_11"/></defs><title>venda.la-color icon2</title><g id="Camada_2" data-name="Camada 2"><g id="Camada_1-2" data-name="Camada 1"><path class="cls-1" d="M22.89,3.58A4.16,4.16,0,0,1,23.65,1a3,3,0,0,1,2.59-1H37.78a2.22,2.22,0,0,1,1,.26,3.49,3.49,0,0,1,1,.73,4,4,0,0,1,.75,1.13,3.35,3.35,0,0,1,.31,1.46V74a3.49,3.49,0,0,1-1,2.71,3.77,3.77,0,0,1-2.62.92H26.24a3.18,3.18,0,0,1-2.59-.92A4.15,4.15,0,0,1,22.89,74Z"/><path class="cls-2" d="M113.7,74.12a4.12,4.12,0,0,1-.29,1.53,2.34,2.34,0,0,1-.94,1.16,2.44,2.44,0,0,1-1.22.66,6.8,6.8,0,0,1-1.23.14h-9.28a4.17,4.17,0,0,1-1.6-.26,2.47,2.47,0,0,1-1-.73,4,4,0,0,1-.64-1.15L97,74l-.61-2.12a28.27,28.27,0,0,1-2.9,2.5,23.1,23.1,0,0,1-3.58,2.19,22.56,22.56,0,0,1-4.2,1.55,17.83,17.83,0,0,1-4.64.59,30.88,30.88,0,0,1-8.22-1.08,30.4,30.4,0,0,1-13.55-7.89,30.73,30.73,0,0,1-4.78-6.25,30.27,30.27,0,0,1-3.09-7.42,31.63,31.63,0,0,1-1.08-8.32,30.86,30.86,0,0,1,9-22A30.5,30.5,0,0,1,81,16.82a21.4,21.4,0,0,1,5.44.66,21,21,0,0,1,4.62,1.79A18.49,18.49,0,0,1,94.89,22a19.91,19.91,0,0,1,3,3.42l1.37-4.29c.31-.78.57-1.42.78-1.91a3.24,3.24,0,0,1,.66-1.08,1.62,1.62,0,0,1,.87-.47,6.79,6.79,0,0,1,1.46-.12h7a6.8,6.8,0,0,1,1.23.14,2.3,2.3,0,0,1,1.22.66,3.06,3.06,0,0,1,.94,1.18A3.77,3.77,0,0,1,113.7,21ZM67.28,47.73a17,17,0,0,0,1,5.82A13.77,13.77,0,0,0,71,58.24a13.11,13.11,0,0,0,4.32,3.14,13.39,13.39,0,0,0,5.58,1.15,14.85,14.85,0,0,0,10.58-4.29,14.19,14.19,0,0,0,3.13-4.69,15.37,15.37,0,0,0,0-11.57,15.21,15.21,0,0,0-3.13-4.8,15,15,0,0,0-4.71-3.28,14.37,14.37,0,0,0-5.87-1.2,12.81,12.81,0,0,0-5.58,1.2A13.08,13.08,0,0,0,71,37.18,14.78,14.78,0,0,0,68.25,42,17,17,0,0,0,67.28,47.73Z"/><path class="cls-3" d="M116,76.54a49.44,49.44,0,0,1-98.88,1c0-.4,0-.26,0-.4l.08-11.71a1.91,1.91,0,0,0-.71-1.55A2.34,2.34,0,0,0,15,63.28H2.14a2.07,2.07,0,0,0-1.61.58A2.22,2.22,0,0,0,0,65.41V77.13c0,.05,0,.08,0,.13a66.55,66.55,0,0,0,133.1-.72Z"/></g></g></svg>