<?xml version="1.0" standalone="no"?>
<!DOCTYPE svg PUBLIC "-//W3C//DTD SVG 20010904//EN"
 "http://www.w3.org/TR/2001/REC-SVG-20010904/DTD/svg10.dtd">
<svg version="1.0" xmlns="http://www.w3.org/2000/svg"
 width="573.000000pt" height="573.000000pt" viewBox="0 0 573.000000 573.000000"
 preserveAspectRatio="xMidYMid meet">
<metadata>
Created by potrace 1.11, written by Peter Selinger 2001-2013
</metadata>
<g transform="translate(0.000000,573.000000) scale(0.100000,-0.100000)"
fill="#000000" stroke="none">
<path d="M1197 5715 c-16 -5 -40 -23 -51 -38 l-21 -28 -3 -1467 c-2 -1381 -1
-1469 15 -1502 31 -60 47 -63 333 -62 280 1 313 7 347 59 17 26 18 108 20
1453 1 784 0 1446 -3 1472 -5 37 -14 56 -41 83 -19 19 -40 36 -46 36 -66 7
-526 2 -550 -6z"/>
<path d="M3407 5054 c-1 -1 -37 -4 -80 -8 -332 -28 -649 -202 -855 -468 -47
-62 -129 -202 -156 -268 -10 -25 -22 -54 -26 -65 -71 -173 -90 -419 -54 -660
3 -16 14 -64 25 -105 130 -479 528 -828 1024 -896 99 -14 266 -7 346 14 136
36 286 118 382 207 21 19 40 35 42 35 2 0 13 -30 26 -67 51 -157 46 -155 333
-153 121 0 229 1 239 2 31 2 88 60 96 98 4 19 7 524 6 1122 0 1080 0 1087 -21
1114 -49 66 -56 68 -262 68 -103 0 -199 -3 -214 -7 -31 -8 -71 -85 -108 -207
-12 -41 -26 -79 -30 -83 -4 -4 -20 9 -35 29 -120 157 -324 268 -530 289 -65 7
-145 12 -148 9z m135 -648 c135 -22 267 -101 359 -216 147 -183 172 -428 67
-650 -64 -133 -231 -264 -385 -300 -197 -46 -399 12 -535 154 -62 65 -127 207
-143 316 -38 251 66 503 258 623 114 73 237 96 379 73z"/>
<path d="M267 3192 c-19 -2 -34 -14 -47 -34 -18 -30 -19 -53 -16 -379 2 -191
6 -351 9 -355 2 -5 8 -43 11 -84 4 -41 18 -129 32 -195 33 -159 31 -150 50
-214 10 -31 18 -60 20 -66 16 -72 119 -317 185 -442 134 -254 273 -440 488
-653 277 -274 577 -467 936 -603 104 -39 299 -96 384 -112 14 -3 40 -7 56 -10
17 -3 54 -10 83 -15 184 -33 585 -35 792 -4 620 91 1189 399 1610 870 50 55
64 72 131 159 39 50 80 112 186 280 30 48 145 288 177 372 36 92 101 303 110
358 3 17 8 41 11 55 30 139 43 248 51 420 l6 125 -341 0 c-220 0 -342 -4 -342
-10 -1 -5 -3 -31 -4 -56 -3 -59 -16 -197 -20 -218 -1 -9 -10 -55 -19 -102 -84
-449 -353 -884 -726 -1176 -267 -208 -590 -346 -930 -397 -159 -24 -432 -25
-557 -2 -10 2 -38 7 -63 11 -159 25 -371 95 -538 178 -394 195 -708 513 -903
913 -89 182 -145 367 -185 609 -3 22 -7 195 -9 384 l-3 344 -26 26 -26 25
-272 1 c-150 0 -286 -1 -301 -3z"/>
</g>
</svg>
