<svg width="122" height="79" viewBox="0 0 122 79" fill="none" xmlns="http://www.w3.org/2000/svg">
<path d="M85.6589 60.54C82.6379 59.461 77.7029 59.407 75.5189 58.571C74.0089 57.978 71.6079 57.33 70.8259 56.387C70.0439 55.444 70.0439 48.701 70.0439 48.701C71.1625 47.6207 72.0682 46.3398 72.7139 44.925C73.4959 42.956 74.0089 37.509 74.0089 37.509C74.0089 37.509 75.7889 38.264 76.4899 34.709C77.0829 31.635 78.2159 30.016 77.9189 27.751C77.5949 25.486 76.3549 26.025 76.3549 26.025C76.3549 26.025 77.9189 23.733 77.9189 15.939C77.9189 7.902 71.8509 0 60.4969 0C49.1699 0 43.0479 7.929 43.0479 15.939C43.0479 23.733 44.5849 26.025 44.5849 26.025C44.5849 26.025 43.3169 25.486 43.0209 27.751C42.6969 30.016 43.8299 31.635 44.4499 34.709C45.1499 38.296 46.9309 37.509 46.9309 37.509C46.9309 37.509 47.4429 42.93 48.2259 44.925C48.8716 46.3398 49.7773 47.6207 50.8959 48.701C50.8959 48.701 50.8959 55.443 50.1139 56.387C49.3319 57.331 46.9319 57.978 45.4209 58.545C43.2629 59.381 38.3279 59.489 35.2809 60.568C31.6041 61.9456 28.4433 64.4265 26.2318 67.6709C24.0203 70.9152 22.8662 74.7641 22.9279 78.69H97.9829C98.0574 74.7618 96.9122 70.907 94.7051 67.6566C92.4981 64.4061 89.3376 61.9198 85.6589 60.54Z" fill="#565656"/>
<path d="M29.266 47.406C29.266 47.406 35.712 47.19 38.274 44.898C34.09 38.555 36.359 31.17 35.496 24.266C34.633 17.389 30.722 13.266 22.901 13.266H22.79C15.239 13.266 11.166 17.366 10.303 24.266C9.44 31.143 11.84 39.366 7.552 44.897C10.114 47.216 16.587 47.135 16.587 47.135C16.587 47.135 16.857 51.019 16.317 51.666C15.3907 52.44 14.2753 52.9539 13.085 53.155C10.7212 53.6651 8.38895 54.3119 6.1 55.092C4 55.82 0 59.731 0 65.125H21.661C22.254 62.967 26.327 59.111 30.291 57.088C32.718 55.847 35.118 55.928 36.952 55.688C36.952 55.688 37.977 54.07 34.606 53.45C34.606 53.45 29.967 52.29 29.428 51.643C28.916 51.046 29.266 47.406 29.266 47.406Z" fill="#565656"/>
<path d="M91.8339 47.406C91.8339 47.406 85.3879 47.19 82.8259 44.898C87.0059 38.56 84.7409 31.171 85.6039 24.267C86.4669 17.39 90.3779 13.267 98.1989 13.267H98.3069C105.858 13.267 109.931 17.367 110.794 24.267C111.657 31.144 109.257 39.367 113.545 44.898C110.983 47.217 104.51 47.136 104.51 47.136C104.51 47.136 104.24 51.02 104.78 51.667C105.708 52.4417 106.826 52.9553 108.019 53.155C110.383 53.6668 112.715 54.3152 115.004 55.097C117.104 55.825 121.104 59.736 121.104 65.13H99.4399C98.8469 62.972 94.7739 59.116 90.8099 57.093C88.3829 55.852 85.9829 55.933 84.1489 55.693C84.1489 55.693 83.1239 54.075 86.4949 53.455C86.4949 53.455 91.1339 52.295 91.6729 51.648C92.1849 51.046 91.8339 47.406 91.8339 47.406Z" fill="#565656"/>
</svg>
