<svg width="120" height="96" viewBox="0 0 120 96" fill="none" xmlns="http://www.w3.org/2000/svg">
<path d="M47.818 49.059C48.0966 49.3376 48.4273 49.5587 48.7913 49.7094C49.1553 49.8602 49.5455 49.9379 49.9395 49.9379C50.3335 49.9379 50.7237 49.8602 51.0877 49.7094C51.4517 49.5587 51.7824 49.3376 52.061 49.059L54.182 46.938C54.4606 46.6594 54.6817 46.3287 54.8325 45.9647C54.9832 45.6007 55.0609 45.2105 55.0609 44.8165C55.0609 44.4225 54.9832 44.0323 54.8325 43.6683C54.6817 43.3043 54.4606 42.9736 54.182 42.695L47.482 35.995L54.182 29.295C54.4606 29.0164 54.6817 28.6857 54.8325 28.3217C54.9832 27.9577 55.0609 27.5675 55.0609 27.1735C55.0609 26.7795 54.9832 26.3893 54.8325 26.0253C54.6817 25.6613 54.4606 25.3306 54.182 25.052L52.061 22.931C51.7824 22.6524 51.4517 22.4313 51.0877 22.2806C50.7237 22.1298 50.3335 22.0521 49.9395 22.0521C49.5455 22.0521 49.1553 22.1298 48.7913 22.2806C48.4273 22.4313 48.0966 22.6524 47.818 22.931L36.878 33.877C36.5994 34.1556 36.3783 34.4863 36.2276 34.8503C36.0768 35.2143 35.9991 35.6045 35.9991 35.9985C35.9991 36.3925 36.0768 36.7827 36.2276 37.1467C36.3783 37.5107 36.5994 37.8414 36.878 38.12L47.818 49.059ZM65.818 46.94L67.939 49.061C68.2176 49.3396 68.5483 49.5607 68.9123 49.7114C69.2763 49.8622 69.6665 49.9399 70.0605 49.9399C70.4545 49.9399 70.8447 49.8622 71.2087 49.7114C71.5727 49.5607 71.9034 49.3396 72.182 49.061L83.123 38.123C83.4016 37.8444 83.6227 37.5137 83.7735 37.1497C83.9242 36.7857 84.0019 36.3955 84.0019 36.0015C84.0019 35.6075 83.9242 35.2173 83.7735 34.8533C83.6227 34.4893 83.4016 34.1586 83.123 33.88L72.184 22.941C71.9054 22.6624 71.5747 22.4413 71.2107 22.2906C70.8467 22.1398 70.4565 22.0621 70.0625 22.0621C69.6685 22.0621 69.2783 22.1398 68.9143 22.2906C68.5503 22.4413 68.2196 22.6624 67.941 22.941L65.82 25.061C65.5414 25.3396 65.3203 25.6703 65.1695 26.0343C65.0188 26.3983 64.9411 26.7885 64.9411 27.1825C64.9411 27.5765 65.0188 27.9667 65.1695 28.3307C65.3203 28.6947 65.5414 29.0254 65.82 29.304L72.52 36.004L65.82 42.704C65.5414 42.9826 65.3203 43.3133 65.1695 43.6773C65.0188 44.0413 64.9411 44.4315 64.9411 44.8255C64.9411 45.2195 65.0188 45.6097 65.1695 45.9737C65.3203 46.3377 65.5414 46.6684 65.82 46.947L65.818 46.94ZM117 78H71.539C71.5517 78.8033 71.4005 79.6007 71.0947 80.3436C70.7889 81.0864 70.3348 81.7592 69.7603 82.3207C69.1858 82.8822 68.5028 83.3208 67.7531 83.6095C67.0034 83.8982 66.2028 84.0311 65.4 84H54C52.4119 83.9469 50.901 83.302 49.7642 82.1918C48.6273 81.0816 47.9467 79.5864 47.856 78H3C2.20508 78.0024 1.4434 78.3192 0.881302 78.8813C0.319207 79.4434 0.00237409 80.2051 0 81L0 84C0.00923395 87.1798 1.27648 90.2266 3.52492 92.4751C5.77336 94.7235 8.82024 95.9908 12 96H108C111.18 95.9908 114.227 94.7235 116.475 92.4751C118.724 90.2266 119.991 87.1798 120 84V81C119.998 80.2051 119.681 79.4434 119.119 78.8813C118.557 78.3192 117.795 78.0024 117 78V78ZM108 9C107.993 6.61516 107.043 4.32996 105.356 2.64362C103.67 0.957274 101.385 0.00685985 99 0L21 0C18.6152 0.00685985 16.33 0.957274 14.6436 2.64362C12.9573 4.32996 12.0069 6.61516 12 9V72H108V9ZM96 60H24V12H96V60Z" fill="#565656"/>
</svg>
