<svg width="120" height="96" viewBox="0 0 120 96" fill="none" xmlns="http://www.w3.org/2000/svg">
<path d="M91.5003 36.0046H63.0003V46.5046C63.0003 50.085 61.578 53.5188 59.0463 56.0505C56.5145 58.5822 53.0808 60.0046 49.5003 60.0046C45.9199 60.0046 42.4861 58.5822 39.9544 56.0505C37.4227 53.5188 36.0003 50.085 36.0003 46.5046V23.7046L23.8343 31.0146C22.0564 32.0765 20.5842 33.5814 19.5617 35.3823C18.5392 37.1833 18.0012 39.2186 18.0003 41.2896V50.1586L3.00035 58.8206C2.31732 59.2136 1.71863 59.7377 1.23862 60.3626C0.758608 60.9876 0.406726 61.7012 0.203162 62.4625C-0.0004026 63.2238 -0.0516424 64.0178 0.052382 64.799C0.156406 65.5801 0.413648 66.3331 0.809347 67.0146L15.8093 93.0046C16.6058 94.3804 17.9158 95.3839 19.4516 95.7947C20.9873 96.2055 22.6233 95.99 24.0003 95.1956L43.3903 84.0046H69.0003C72.182 84.0016 75.2326 82.7364 77.4824 80.4866C79.7322 78.2368 80.9974 75.1863 81.0003 72.0046H84.0003C84.7885 72.0053 85.5691 71.8507 86.2974 71.5494C87.0257 71.2482 87.6874 70.8063 88.2447 70.249C88.8021 69.6916 89.244 69.0299 89.5452 68.3016C89.8465 67.5733 90.0011 66.7927 90.0003 66.0046V54.0046H91.5003C92.0917 54.006 92.6775 53.8906 93.2241 53.665C93.7708 53.4393 94.2674 53.1079 94.6856 52.6898C95.1037 52.2716 95.4351 51.775 95.6608 51.2283C95.8864 50.6817 96.0018 50.0959 96.0003 49.5046V40.5046C96.0018 39.9132 95.8864 39.3274 95.6608 38.7808C95.4351 38.2341 95.1037 37.7375 94.6856 37.3193C94.2674 36.9012 93.7708 36.5698 93.2241 36.3441C92.6775 36.1185 92.0917 36.0031 91.5003 36.0046V36.0046ZM119.2 28.9896L104.2 3.00455C103.807 2.32135 103.282 1.72244 102.657 1.24207C102.032 0.761688 101.318 0.409264 100.556 0.204943C99.7948 0.000622377 99.0004 -0.0515879 98.2187 0.0512977C97.4369 0.154183 96.6831 0.410147 96.0003 0.804553L76.6153 12.0046H57.4533C55.2081 12.0082 53.0083 12.6371 51.1003 13.8206L44.8193 17.7396C43.955 18.2756 43.2421 19.0239 42.7487 19.9132C42.2553 20.8026 41.9976 21.8035 42.0003 22.8206V46.5046C42.0003 48.4937 42.7905 50.4013 44.197 51.8079C45.6036 53.2144 47.5112 54.0046 49.5003 54.0046C51.4895 54.0046 53.3971 53.2144 54.8036 51.8079C56.2102 50.4013 57.0003 48.4937 57.0003 46.5046V30.0046H91.5003C94.2845 30.0064 96.9542 31.1133 98.9229 33.082C100.892 35.0507 101.998 37.7204 102 40.5046V45.8486L117 37.1866C118.376 36.3894 119.38 35.0792 119.791 33.5431C120.203 32.007 119.988 30.3706 119.194 28.9926L119.2 28.9896Z" fill="#565656"/>
</svg>
