<svg xmlns="http://www.w3.org/2000/svg"  viewBox="0 0 1920 184.161">
  <g id="waves" transform="translate(0 -13.754)">
    <path id="Caminho_400" data-name="Caminho 400" d="M929.7,253.343c-4.648-3.172-9.3-6.289-13.891-9.406C805.833,170.654,673.487,132.865,542.235,137.13c-124.416,4.1-244.184,46.923-347.435,116.158H929.7Z" transform="translate(-88.267 -55.757)" fill="#fff" opacity="0.35"/>
    <path id="Caminho_401" data-name="Caminho 401" d="M1920,159.267a319.5,319.5,0,0,0-34.016-16.133c-45.227-18.211-103.525-26.305-155.151-16.078-79.572,15.86-124.088,69.071-199.941,90.619-66.72,18.922-145.909,10.063-214.488-6.18-133.385-31.61-260.535-68.415-408.194-60.7C827.271,155,749.067,172.01,677.753,195.635c-73.556,24.391-160.675,58.353-245.387,31.883-72.079-22.586-109.6-72.243-176.315-99.533-49.876-20.4-113.642-27.727-172.323-19.852A307.35,307.35,0,0,0,0,131.431V239.276H1920Z" transform="translate(0 -41.361)" fill="#fff"/>
    <path id="Caminho_402" data-name="Caminho 402" d="M2766.33,201.186c-64.259-53.266-139.783-110.033-226.082-96.47-60.923,9.57-101.009,62.345-154.6,88.048-69.618,33.36-124.2-9.242-186.488-37.9-84.056-38.61-187.909-28.11-262.887,26.579-23.188,16.953-45.391,38.282-68.47,56.438h898.53v-36.7Z" transform="translate(-846.33 -40.295)" fill="#fff" opacity="0.35"/>
    <path id="Caminho_403" data-name="Caminho 403" d="M1920,94.773a171.316,171.316,0,0,0-34.071-.875c-39.922,3.008-77.767,18.266-114.572,34.071s-73.775,32.485-113.314,38.774c-131.908,20.946-241.012-73.064-362.857-103.361C1184.769,35.928,1067.791,59.663,960.6,97.616c-109.1,38.61-221.761,92.806-335.185,69.728C545.571,151.1,478.742,98.491,404.968,63.928,274.208,2.568,135.354,3.935,0,33.631V197.587H1920Z" fill="#fff" opacity="0.35"/>
  </g>
</svg>
